<svg xmlns="http://www.w3.org/2000/svg" width="27.272" height="27.273" viewBox="0 0 27.272 27.273"><g id="Grupo_7604" data-name="Grupo 7604" transform="translate(-1328.193 -2078.036)"><g id="g184" transform="translate(1328.193 2078.036)"><path id="path186" d="M-642.6-341.332h.529c2.042,0,3.931.054,5.772.166a8.065,8.065,0,0,1,4.649,1.76,7.462,7.462,0,0,1,2.508,4.049,17.94,17.94,0,0,1,.412,4.284c.015,1.125.028,2.25.031,3.375s-.015,2.255-.031,3.38a17.94,17.94,0,0,1-.412,4.284,7.462,7.462,0,0,1-2.508,4.049,8.065,8.065,0,0,1-4.649,1.76c-1.842.112-3.73.166-5.772.166h-.528c-2.043,0-3.931-.054-5.772-.166a8.065,8.065,0,0,1-4.649-1.76,7.463,7.463,0,0,1-2.508-4.049,17.939,17.939,0,0,1-.412-4.284c-.015-1.125-.028-2.25-.031-3.375s.015-2.255.031-3.38a17.939,17.939,0,0,1,.412-4.284,7.463,7.463,0,0,1,2.508-4.049,8.065,8.065,0,0,1,4.649-1.76C-646.531-341.278-644.642-341.332-642.6-341.332Zm.267,2.131h-.267c-2,0-3.845.053-5.643.163a5.87,5.87,0,0,0-3.432,1.284,5.379,5.379,0,0,0-1.79,2.924,16.321,16.321,0,0,0-.346,3.786c-.015,1.117-.028,2.234-.031,3.351s.015,2.229.031,3.346a16.321,16.321,0,0,0,.346,3.786,5.379,5.379,0,0,0,1.79,2.924,5.87,5.87,0,0,0,3.432,1.284c1.8.109,3.644.163,5.643.163h.528c2,0,3.845-.053,5.643-.163A5.87,5.87,0,0,0-633-317.637a5.379,5.379,0,0,0,1.79-2.924,16.32,16.32,0,0,0,.346-3.786c.015-1.117.028-2.234.031-3.351s-.015-2.229-.031-3.346a16.32,16.32,0,0,0-.346-3.786,5.378,5.378,0,0,0-1.79-2.924,5.87,5.87,0,0,0-3.432-1.284c-1.8-.109-3.644-.163-5.643-.163Z" transform="translate(655.972 341.332)" fill="#26528f"></path></g><g id="g188" transform="translate(1335.117 2085.015)"><path id="path190" d="M-300.007-166.666a6.666,6.666,0,0,1,6.659,6.659,6.666,6.666,0,0,1-6.659,6.659,6.666,6.666,0,0,1-6.659-6.659A6.666,6.666,0,0,1-300.007-166.666Zm0,11.186a4.533,4.533,0,0,0,4.528-4.528,4.533,4.533,0,0,0-4.528-4.528,4.533,4.533,0,0,0-4.528,4.528A4.533,4.533,0,0,0-300.007-155.48Z" transform="translate(306.666 166.666)" fill="#26528f"></path></g><g id="g192" transform="translate(1347.582 2082.884)"><path id="path194" d="M-76.8-38.4a1.6,1.6,0,0,1-1.6,1.6A1.6,1.6,0,0,1-80-38.4,1.6,1.6,0,0,1-78.4-40a1.6,1.6,0,0,1,1.6,1.6" transform="translate(80 40)" fill="#26528f"></path></g></g></svg>