<svg xmlns="http://www.w3.org/2000/svg" width="14.102" height="25.964" viewBox="0 0 14.102 25.964"><path id="Path_9504" data-name="Path 9504" d="M217.868,150.272h4.568v6.007h-3.223a2.341,2.341,0,0,0-.738.078,3.156,3.156,0,0,0-.033.572v1.33h4.114l-.679,5.994h-3.435v11.982h-7.325V164.254h-2.663V158.26h2.663V156.6C211.117,152.4,213.388,150.272,217.868,150.272Zm2.568,2h-2.568a5.2,5.2,0,0,0-3.762,1.118,4.387,4.387,0,0,0-.989,3.208v3.663h-2.663v1.994h2.663v11.982h3.325V162.254h3.648l.226-1.994h-3.874v-3.33a2.792,2.792,0,0,1,.5-1.875,2.854,2.854,0,0,1,2.273-.776h1.223Z" transform="translate(-208.454 -150.272)" fill="#26528f"></path></svg>