<?xml version="1.0" encoding="UTF-8"?> <!-- Generator: Adobe Illustrator 24.0.2, SVG Export Plug-In . SVG Version: 6.00 Build 0) --> <svg xmlns="http://www.w3.org/2000/svg" xmlns:xlink="http://www.w3.org/1999/xlink" id="Layer_1" x="0px" y="0px" viewBox="0 0 632.4 106.8" style="enable-background:new 0 0 632.4 106.8;" xml:space="preserve"> <style type="text/css"> .st0{fill:#90A6C6;} </style> <path class="st0" d="M384.2,86.1c-5,0-9.4-1-13.1-3.1c-3.7-2.1-5.5-3.9-5.5-5.6c0-0.7,0.3-1.4,0.8-2c0.6-0.6,1.2-0.9,1.8-0.9 c0.7,0,1.5,0.3,2.3,1c4.1,3.5,8.7,5.2,13.6,5.2c3.9,0,7.1-1.1,9.4-3.2c2.4-2.2,3.5-5.1,3.5-8.8c0-2.3-0.5-4.1-1.6-5.6 c-1-1.5-2.4-2.7-4-3.6c-1.6-0.9-4.4-1.9-8.3-3.1c-4.5-1.3-7.8-2.6-9.8-4c-2-1.3-3.6-3-4.8-5.2c-1.2-2.1-1.8-4.8-1.8-7.8 c0-5,1.8-9.1,5.2-12.2c3.5-3.1,7.8-4.6,13-4.6c4.4,0,8.4,1,11.8,3c3.4,2,5.1,3.8,5.1,5.4c0,0.7-0.3,1.4-0.8,2 c-0.5,0.6-1.2,0.9-1.9,0.9c-0.5,0-0.9-0.1-1.2-0.3c-0.3-0.2-0.8-0.6-1.3-1c-2.3-1.8-4.4-3-6.1-3.6c-1.7-0.6-3.6-0.9-5.5-0.9 c-3.9,0-6.9,1-9.2,3.1c-2.2,2.1-3.4,4.8-3.4,8.2c0,2.2,0.5,3.9,1.4,5.4c1,1.4,2.2,2.5,3.7,3.4c1.5,0.8,4,1.7,7.5,2.7 c7.1,2.1,11.8,4.5,14.1,7.3c2.3,2.9,3.5,6.4,3.5,10.6c0,5.2-1.8,9.4-5.3,12.6C394,84.5,389.6,86.1,384.2,86.1"></path> <path class="st0" d="M438.9,58.5c0-4.5-1.1-8.2-3.3-11c-2.2-2.8-5.2-4.2-9-4.2c-4,0-7.3,1.4-9.9,4.1c-2.6,2.8-4,6.4-4.3,11 C412.4,58.5,438.9,58.5,438.9,58.5z M412.2,63.8c0,4.9,1.4,9,4.2,12.2c2.8,3.2,6.4,4.8,10.7,4.8c1.9,0,3.7-0.3,5.6-0.9 c1.9-0.6,3.5-1.4,4.9-2.3c0.9-0.6,1.6-0.9,2.1-0.9c0.7,0,1.3,0.3,1.8,0.9c0.5,0.6,0.7,1.3,0.7,2c0,1.3-1.6,2.8-4.7,4.3 c-3.1,1.5-6.6,2.3-10.5,2.3c-6.3,0-11.3-2.1-15-6.5c-3.7-4.3-5.5-10-5.5-17.2c0-7.1,1.8-13,5.4-17.6c3.6-4.6,8.6-7,14.8-7 c5.5,0,9.8,1.9,13,5.6c3.1,3.8,4.7,8.7,4.7,15c0,1.7-0.4,3-1.1,3.8c-0.7,0.9-1.8,1.3-3.1,1.3L412.2,63.8L412.2,63.8z"></path> <path class="st0" d="M481.3,57.6c0-4.2-1.2-7.6-3.7-10.3c-2.5-2.7-5.6-4-9.3-4c-4.3,0-7.7,1.6-10.3,4.9c-2.6,3.3-3.9,7.9-3.9,13.7 c0,5.9,1.2,10.5,3.7,13.8c2.5,3.4,5.9,5,10.4,5c3.9,0,7-1.4,9.4-4.1c2.4-2.7,3.6-6.1,3.6-10.3L481.3,57.6L481.3,57.6z M486.8,81.1 c0,7.7-1.7,13.6-5.2,17.5c-3.5,3.9-8.6,5.9-15.3,5.9c-3.2,0-6.5-0.7-9.8-2.1c-3.3-1.4-5-2.8-5-4.2c0-0.9,0.3-1.7,0.8-2.2 c0.5-0.6,1-0.9,1.6-0.9c0.6,0,1.4,0.3,2.5,1c2,1.1,3.7,1.9,5.2,2.4c1.5,0.4,3.1,0.7,4.9,0.7c4.9,0,8.6-1.4,11.1-4.2 c2.4-2.8,3.7-6.9,3.7-12.4V78c-1.3,2.5-3.1,4.5-5.5,5.9c-2.4,1.4-5.1,2.2-8.2,2.2c-5.8,0-10.4-2.1-13.9-6.5 c-3.4-4.3-5.2-10.2-5.2-17.7c0-7.5,1.8-13.3,5.3-17.6c3.6-4.3,8.4-6.4,14.4-6.4c2.8,0,5.3,0.6,7.6,1.8c2.2,1.2,4.1,3,5.4,5.3v-3.7 c0-1.8,0.9-2.7,2.9-2.7c1.8,0,2.7,0.9,2.7,2.7L486.8,81.1L486.8,81.1z"></path> <path class="st0" d="M529.4,82.7c0,1.9-0.9,2.8-2.8,2.8c-1.8,0-2.8-0.9-2.8-2.8v-4.8c-1.6,2.8-3.6,4.8-6.1,6.2 c-2.5,1.4-5.3,2.1-8.6,2.1c-5,0-8.8-1.5-11.5-4.6c-2.7-3.1-4-7.3-4-12.6V41.4c0-1.9,0.9-2.8,2.7-2.8c1.9,0,2.9,0.9,2.9,2.8v27.2 c0,3.7,0.9,6.7,2.8,8.9c1.9,2.2,4.5,3.3,8,3.3c4.3,0,7.7-1.5,10.1-4.4c2.5-2.9,3.7-6.8,3.7-11.6V41.4c0-1.9,0.9-2.8,2.8-2.8 c1.9,0,2.8,0.9,2.8,2.8L529.4,82.7L529.4,82.7z"></path> <path class="st0" d="M541.8,44.5c1.2-2.1,2.7-3.8,4.5-4.9c1.8-1.1,4-1.6,6.5-1.6c2.2,0,3.8,0.3,4.9,0.9c1.1,0.6,1.6,1.4,1.6,2.3 c0,0.8-0.2,1.4-0.5,2c-0.3,0.6-0.8,0.9-1.5,0.9c-0.4,0-0.8-0.1-1.4-0.3c-1-0.3-2.1-0.4-3.3-0.4c-3.3,0-5.9,1.2-7.9,3.5 c-2,2.4-3,5.5-3,9.4v26.5c0,1.9-1,2.8-2.8,2.8c-1.8,0-2.7-0.9-2.7-2.8V41.3c0-1.8,0.9-2.7,2.7-2.7c1.9,0,2.8,0.9,2.8,2.7V44.5z"></path> <path class="st0" d="M577.7,43.3c-4.1,0-7.5,1.5-10.3,4.7c-2.8,3.1-4.2,7.8-4.2,14.1c0,6.2,1.5,10.9,4.4,14 c2.9,3.1,6.3,4.7,10.1,4.7c3.8,0,7.2-1.6,10.2-4.7c2.9-3.1,4.4-7.8,4.4-14c0-6.1-1.4-10.8-4.1-14C585.4,44.9,581.9,43.3,577.7,43.3 M577.7,86.1c-5.9,0-10.7-2.2-14.4-6.5c-3.7-4.3-5.6-10.2-5.6-17.6c0-7.7,1.9-13.6,5.6-17.8c3.7-4.2,8.6-6.3,14.4-6.3 c5.9,0,10.8,2.1,14.5,6.4c3.7,4.2,5.6,10.1,5.6,17.7c0,7.4-1.9,13.2-5.6,17.5C588.4,83.9,583.5,86.1,577.7,86.1"></path> <path class="st0" d="M616.1,86.1c-2.3,0-4.5-0.3-6.4-0.8c-1.9-0.5-3.9-1.3-5.7-2.4c-1.9-1.1-3-1.9-3.4-2.4c-0.4-0.5-0.6-1.1-0.6-1.8 c0-0.7,0.2-1.4,0.8-1.9c0.5-0.6,1.1-0.9,1.7-0.9c0.7,0,1.5,0.3,2.2,0.9c1.5,1.2,3.3,2.1,5.4,2.9c2.1,0.8,4.1,1.1,6.1,1.1 c3.4,0,6-0.7,7.9-2.1c1.9-1.4,2.8-3.3,2.8-5.7c0-2.2-0.8-3.8-2.2-5c-1.5-1.2-3.5-2-6-2.6c-4.1-0.9-7.1-1.6-8.9-2.1 c-1.8-0.6-3.4-1.3-4.7-2.3c-1.3-1-2.4-2.2-3.1-3.8c-0.8-1.5-1.2-3.4-1.1-5.8c0-4,1.5-7.2,4.5-9.8c3.1-2.5,7-3.8,11.7-3.8 c3.5,0,6.7,0.7,9.7,2.1c3,1.4,4.5,2.8,4.5,4.2c0,0.7-0.3,1.4-0.8,2.1c-0.5,0.7-1.1,1-1.8,1c-0.6,0-1.3-0.3-2.2-0.9 c-3.1-2.1-6.3-3.2-9.6-3.2c-3.4,0-6,0.7-7.9,2.2c-1.8,1.5-2.7,3.3-2.7,5.6c0,1.8,0.5,3.2,1.4,4.3c0.9,1.1,2.1,2,3.6,2.5 c1.5,0.6,4.2,1.3,8.1,2.1c5.2,1.1,8.7,2.7,10.4,4.7c1.8,2,2.6,4.6,2.6,7.9c0,3.8-1.5,7.1-4.4,9.6C625.1,84.8,621.1,86.1,616.1,86.1"></path> <path class="st0" d="M183.3,74c0,2.4-0.7,4.4-1.9,5.9c-1.3,1.5-3.7,3-7.2,4.4c-3.5,1.4-7.7,2.1-12.5,2.1c-8.5,0-15.3-2.8-20.3-8.5 c-5-5.7-7.5-13.3-7.5-23c0-9.9,2.7-17.8,8.1-23.6c5.4-5.8,12.2-8.8,20.6-8.8c4.6,0,8.4,0.5,11.3,1.6c3,1.1,5.1,2.2,6.5,3.3 c1.4,1.1,2,2.3,2,3.5c0,1.3-0.4,2.5-1.3,3.6c-0.9,1.1-1.9,1.7-3,1.7c-1,0-2-0.3-3.3-1c-4.2-2.2-8.2-3.3-12-3.3 c-5.6,0-10.1,2-13.6,6.1c-3.5,4-5.2,9.6-5.2,16.7c0,7,1.7,12.5,5,16.3c3.3,3.9,8,5.8,14,5.8c2.1,0,4.1-0.3,6-0.8 c1.9-0.6,3.1-1.1,3.5-1.6c0.5-0.5,0.7-1.2,0.7-2.2V60.5h-10.1c-1.5,0-2.7-0.3-3.4-1c-0.7-0.7-1.1-2-1.1-3.9c0-1.7,0.4-2.8,1.1-3.6 c0.7-0.7,1.9-1.1,3.6-1.1h15c3.3,0,5,1.6,5,4.6V74z"></path> <path class="st0" d="M199.9,82c0,2.8-1.7,4.2-5.1,4.2c-3.3,0-4.9-1.4-4.9-4.2V26.6c0-1.4,0.4-2.5,1.1-3.1c0.8-0.6,2-0.9,3.8-0.9 c1.8,0,3,0.3,3.8,1c0.8,0.6,1.2,1.7,1.2,3.1L199.9,82L199.9,82z"></path> <path class="st0" d="M227.2,47.2c-3.7,0-6.5,1.4-8.4,4.1c-1.9,2.7-2.9,6.3-2.9,10.9c0,4.5,1,8.1,3,10.9c2,2.8,4.8,4.2,8.4,4.2 c3.7,0,6.6-1.3,8.5-4c1.9-2.7,2.9-6.4,2.9-11.1c0-5-1-8.7-2.9-11.2C233.8,48.4,231,47.2,227.2,47.2 M227.2,86.4 c-6.6,0-11.8-2.3-15.6-6.8c-3.8-4.5-5.7-10.3-5.7-17.5c0-7.2,1.9-13,5.7-17.5c3.8-4.4,9-6.6,15.6-6.6c6.7,0,11.9,2.2,15.7,6.6 c3.8,4.4,5.7,10.2,5.7,17.5c0,7.3-1.9,13.1-5.8,17.6C239,84.1,233.8,86.4,227.2,86.4"></path> <path class="st0" d="M264.5,66c0,3.2,0.9,5.8,2.7,8c1.8,2.2,4.2,3.3,7.3,3.3c3.3,0,6-1.3,7.9-4c1.9-2.7,2.9-6.4,2.9-11.1 c0-4.6-0.9-8.3-2.8-10.9c-1.9-2.7-4.5-4-7.9-4c-3,0-5.4,1.1-7.2,3.2c-1.8,2.1-2.7,4.8-2.7,8.1V66z M264.5,79.9v2.4 c0,2.6-1.7,3.9-5.1,3.9c-1.8,0-3.1-0.3-3.8-1c-0.7-0.7-1-1.7-1-3.2V26.8c0-1.5,0.4-2.5,1.1-3.2c0.7-0.7,2-1,3.8-1 c1.8,0,3.1,0.3,3.9,1c0.8,0.7,1.2,1.7,1.2,3.2V44c2.8-4,6.6-6,11.4-6c5.8,0,10.5,2.2,14,6.6c3.5,4.4,5.2,10.2,5.2,17.5 c0,7.4-1.7,13.3-5,17.7c-3.4,4.4-7.8,6.6-13.3,6.6C271.1,86.4,267,84.2,264.5,79.9"></path> <path class="st0" d="M330.2,58.5c0-3.2-0.9-6-2.7-8.1c-1.8-2.1-4.2-3.2-7.2-3.2c-3.4,0-6,1.4-7.9,4.1c-1.9,2.7-2.8,6.3-2.8,10.9 c0,4.8,0.9,8.5,2.8,11.2c1.9,2.7,4.5,4,7.9,4c3.1,0,5.5-1.1,7.2-3.3c1.8-2.2,2.7-4.9,2.7-8.1L330.2,58.5L330.2,58.5z M330.2,79.6 c-2.4,4.5-6.5,6.7-12.4,6.7c-5.5,0-9.9-2.2-13.2-6.6c-3.4-4.4-5-10.3-5-17.7c0-7.3,1.7-13.1,5.2-17.5c3.5-4.4,8.1-6.6,14-6.6 c5.1,0,8.9,2,11.4,6v-1.7c0-2.8,1.7-4.2,5.1-4.2c1.7,0,2.9,0.3,3.7,1c0.8,0.7,1.1,1.7,1.1,3.2V82c0,1.5-0.4,2.6-1.1,3.2 c-0.7,0.6-2,1-4,1c-3.3,0-4.9-1.3-4.9-3.9V79.6z"></path> <path class="st0" d="M356.8,82c0,2.8-1.7,4.2-5.1,4.2c-3.3,0-4.9-1.4-4.9-4.2V26.6c0-1.4,0.4-2.5,1.1-3.1c0.8-0.6,2.1-0.9,3.8-0.9 s3,0.3,3.8,1c0.8,0.6,1.2,1.7,1.2,3.1L356.8,82L356.8,82z"></path> <path class="st0" d="M30.6,8.4c-0.3-1,0.2-2.2,1.3-2.5c0.1,0,9.2-3,20.4-3c1.1,0,2,0.9,2,2c0,1.1-0.9,2-2,2 c-7.9,0-14.8,1.6-17.7,2.4c-1,0.3-1.5,0.4-1.5,0.4l-0.6,0.1C31.6,9.8,30.8,9.2,30.6,8.4"></path> <path class="st0" d="M12.2,22c-0.2-1.1,0.5-2.1,1.5-2.4c0.1,0,20.7-4.4,38.4-4.4c1.1,0,1.9,0.9,1.9,2c0,1.1-0.9,2-1.9,2 c-8.6,0-18,1.1-25.3,2.2c-7.3,1.1-12.3,2.2-12.3,2.2h0l-0.4,0C13.3,23.6,12.4,22.9,12.2,22"></path> <path class="st0" d="M3.9,35.3c-0.2-1.1,0.6-2.1,1.7-2.3c0.1,0,23.9-3.7,46.6-3.7c1.1,0,2,0.9,2,2c0,1.1-0.9,2-2,2 c-11.1,0-22.7,0.9-31.4,1.8C12.1,36.1,6.2,37,6.2,37l-0.3,0C4.9,37,4.1,36.3,3.9,35.3"></path> <path class="st0" d="M0,48.6c-0.1-1.1,0.7-2.1,1.8-2.2c0,0,22.4-1.8,50.4-1.8c1.1,0,2,0.9,2,2c0,1.1-0.9,2-2,2 c-13.9,0-26.4,0.5-35.5,0.9c-9,0.5-14.6,0.9-14.6,0.9h0l-0.1,0C1,50.4,0.1,49.6,0,48.6"></path> <path class="st0" d="M31.8,103.8c-1-0.3-1.6-1.5-1.3-2.5c0.3-1.1,1.4-1.6,2.5-1.3c0,0,0.5,0.2,1.5,0.4c1,0.3,2.4,0.6,4.1,1 c3.5,0.7,8.3,1.4,13.6,1.4c1.1,0,1.9,0.9,1.9,2c0,1.1-0.9,2-1.9,2C41,106.8,31.9,103.8,31.8,103.8"></path> <path class="st0" d="M13.7,90c-1.1-0.3-1.7-1.3-1.5-2.4c0.3-1.1,1.3-1.7,2.4-1.5c0,0,1.1,0.3,3,0.7c1.9,0.4,4.7,0.9,8.2,1.5 c6.9,1.1,16.3,2.1,26.4,2.1c1.1,0,2,0.9,2,2c0,1.1-0.9,2-2,2C31.4,94.5,13.8,90,13.7,90"></path> <path class="st0" d="M5.5,76.6c-1.1-0.2-1.8-1.2-1.6-2.3c0.2-1.1,1.2-1.8,2.3-1.6c0,0,5.3,0.9,13.7,1.8c8.4,0.9,19.9,1.8,32.3,1.8 c1.1,0,2,0.9,2,2c0,1.1-0.9,2-2,2C27.2,80.3,5.6,76.6,5.5,76.6"></path> <path class="st0" d="M1.8,63.2C0.7,63.1-0.1,62.1,0,61c0.1-1.1,1-1.9,2.1-1.8c0,0,5.4,0.4,14.3,0.9c9,0.5,21.5,0.9,35.7,0.9 c1.1,0,2,0.9,2,2c0,1.1-0.9,2-2,2C23.5,65,1.8,63.2,1.8,63.2"></path> <path class="st0" d="M71.3,9.7c0,0-0.5-0.2-1.4-0.4c-1-0.3-2.4-0.6-4.1-1c-3.5-0.7-8.3-1.4-13.5-1.4c-1.1,0-2-0.9-2-2 c0-1.1,0.9-2,2-2c11.2,0,20.2,3,20.4,3c1,0.3,1.6,1.5,1.3,2.5c-0.3,0.9-1.1,1.4-1.9,1.4L71.3,9.7"></path> <path class="st0" d="M89.8,23.5c0,0-5.1-1.1-12.3-2.2c-7.3-1.1-16.7-2.2-25.3-2.2c-1.1,0-2-0.9-2-2c0-1.1,0.9-2,2-2 c17.7,0,38.3,4.4,38.4,4.4h0c1.1,0.2,1.8,1.3,1.5,2.4c-0.2,1-1,1.6-1.9,1.6L89.8,23.5"></path> <path class="st0" d="M98.2,37c0,0-5.9-0.9-14.6-1.8c-8.7-0.9-20.3-1.8-31.4-1.8c-1.1,0-2-0.9-2-2c0-1.1,0.9-2,2-2 c22.7,0,46.5,3.7,46.6,3.7c1.1,0.2,1.8,1.2,1.6,2.3c-0.1,1-1,1.7-1.9,1.7L98.2,37"></path> <path class="st0" d="M102.2,50.4c0,0-5.5-0.5-14.6-0.9c-9.1-0.5-21.6-0.9-35.4-0.9c-1.1,0-2-0.9-2-2c0-1.1,0.9-2,2-2 c27.9,0,50.3,1.8,50.3,1.8h0c1.1,0.1,1.9,1,1.8,2.2c-0.1,1-0.9,1.8-2,1.8L102.2,50.4"></path> <path class="st0" d="M50.2,104.8c0-1.1,0.9-2,2-2c7.9,0,14.8-1.6,17.7-2.4c1-0.3,1.5-0.4,1.5-0.4h0c1-0.3,2.2,0.2,2.5,1.3 c0.3,1-0.2,2.2-1.3,2.5c-0.1,0-9.1,3-20.3,3C51.1,106.8,50.2,105.9,50.2,104.8"></path> <path class="st0" d="M50.2,92.5c0-1.1,0.9-2,2-2c15.1,0,28.7-2.4,34.5-3.6c1.9-0.4,3-0.7,3-0.7c1.1-0.3,2.2,0.4,2.4,1.5 c0.3,1.1-0.4,2.2-1.5,2.4c-0.1,0-17.7,4.4-38.5,4.4C51.1,94.5,50.2,93.5,50.2,92.5"></path> <path class="st0" d="M50.2,78.3c0-1.1,0.9-2,2-2c12.3,0,23.8-0.9,32.2-1.8c8.4-0.9,13.7-1.8,13.7-1.8h0c1.1-0.2,2.1,0.5,2.3,1.6 c0.2,1.1-0.6,2.1-1.6,2.3c-0.1,0-21.7,3.7-46.6,3.7C51.1,80.3,50.2,79.4,50.2,78.3"></path> <path class="st0" d="M50.2,63c0-1.1,0.9-2,2-2c14.2,0,26.8-0.4,35.7-0.9c8.9-0.4,14.3-0.9,14.3-0.9h0c1.1-0.1,2.1,0.7,2.1,1.8 c0.1,1.1-0.7,2.1-1.8,2.2c0,0-21.7,1.8-50.4,1.8C51.1,65,50.2,64.1,50.2,63"></path> <path class="st0" d="M27.2,69.2c-0.9-3-0.2-4.5,1.7-6.1c2.1-1.8,6.7-5,9.7-6.9c1.5-1,3.1-0.6,3.7,0.7c0.9,2.1,3.5,9.2,5.8,16 c0.7,2,2.2,1.9,3.1,0C64.5,46,79.5,21.3,93,6.6c2.3-2.5,3.2-3.2,5.2-3.8c2.1-0.5,6.9-1.9,12-2.8c2.1-0.4,3.4,1.4,2,3.2 C98.5,20.4,73.6,63.9,58.3,95.6c-1.1,2.4-2.5,3.1-5,3.1c-2.7,0-11.7-0.8-11.7-0.8c-1.9,0-3.4-0.7-4.3-2.6 C33.9,87.3,27.2,69.2,27.2,69.2"></path> </svg> 