<?xml version="1.0" encoding="UTF-8"?> <!-- Generator: Adobe Illustrator 13.0.0, SVG Export Plug-In . SVG Version: 6.00 Build 14948) --> <svg xmlns="http://www.w3.org/2000/svg" xmlns:xlink="http://www.w3.org/1999/xlink" id="Layer_1" x="0px" y="0px" width="632.371px" height="106.797px" viewBox="0 0 632.371 106.797" xml:space="preserve"> <path fill="#003F8B" d="M384.201,86.103c-5.049,0-9.421-1.031-13.079-3.137c-3.693-2.086-5.518-3.936-5.518-5.563 c0-0.735,0.278-1.414,0.836-2.016c0.557-0.62,1.177-0.91,1.839-0.91c0.707,0,1.457,0.335,2.292,1.019 c4.146,3.469,8.683,5.184,13.63,5.184c3.919,0,7.051-1.073,9.398-3.201c2.358-2.157,3.534-5.084,3.534-8.814 c0-2.254-0.517-4.143-1.555-5.645c-1.048-1.505-2.383-2.703-3.985-3.574c-1.623-0.869-4.39-1.916-8.313-3.132 c-4.494-1.319-7.779-2.647-9.832-3.969c-2.048-1.306-3.647-3.046-4.814-5.177c-1.17-2.123-1.753-4.75-1.753-7.85 c0-4.995,1.753-9.065,5.237-12.165c3.497-3.111,7.81-4.648,12.953-4.648c4.445,0,8.371,1.01,11.789,3.003 c3.391,2.022,5.101,3.822,5.101,5.428c0,0.729-0.279,1.397-0.821,1.968c-0.517,0.59-1.189,0.865-1.938,0.865 c-0.475,0-0.857-0.112-1.174-0.339c-0.293-0.216-0.751-0.574-1.339-1.033c-2.34-1.777-4.379-2.962-6.106-3.563 c-1.735-0.581-3.582-0.876-5.512-0.876c-3.854,0-6.905,1.027-9.166,3.114c-2.248,2.056-3.365,4.822-3.365,8.246 c0,2.167,0.47,3.932,1.42,5.355c0.963,1.396,2.178,2.515,3.697,3.352c1.532,0.822,4.021,1.734,7.504,2.734 c7.077,2.052,11.783,4.498,14.127,7.334c2.345,2.853,3.502,6.361,3.502,10.57c0,5.211-1.76,9.414-5.254,12.621 C394.049,84.5,389.605,86.103,384.201,86.103"></path> <path fill="#003F8B" d="M438.855,58.498c0-4.496-1.079-8.16-3.26-10.963c-2.171-2.819-5.185-4.22-9.01-4.22 c-4.014,0-7.289,1.38-9.873,4.146c-2.572,2.767-4,6.435-4.338,11.037H438.855z M412.204,63.769c0,4.949,1.403,9.012,4.208,12.221 c2.799,3.184,6.384,4.787,10.689,4.787c1.859,0,3.721-0.314,5.631-0.902c1.891-0.61,3.535-1.379,4.904-2.293 c0.934-0.621,1.613-0.922,2.056-0.922c0.71,0,1.303,0.301,1.784,0.922c0.48,0.61,0.721,1.275,0.721,1.998 c0,1.326-1.575,2.752-4.714,4.263c-3.144,1.498-6.632,2.261-10.451,2.261c-6.296,0-11.285-2.146-14.967-6.452 c-3.679-4.264-5.504-9.998-5.504-17.164c0-7.102,1.804-12.971,5.406-17.599c3.634-4.633,8.569-6.95,14.784-6.95 c5.502,0,9.818,1.864,12.961,5.617c3.149,3.755,4.725,8.748,4.725,15.043c0,1.668-0.377,2.954-1.133,3.843 c-0.737,0.895-1.766,1.328-3.083,1.328H412.204z"></path> <path fill="#003F8B" d="M481.253,57.564c0-4.201-1.218-7.63-3.664-10.277c-2.46-2.651-5.578-3.972-9.344-3.972 c-4.271,0-7.686,1.623-10.257,4.898c-2.585,3.28-3.867,7.852-3.867,13.733c0,5.877,1.24,10.479,3.728,13.81 c2.487,3.351,5.947,5.021,10.396,5.021c3.894,0,7.037-1.356,9.42-4.059c2.404-2.715,3.588-6.143,3.588-10.331V57.564z M486.829,81.055c0,7.731-1.735,13.573-5.198,17.476c-3.486,3.908-8.588,5.863-15.27,5.863c-3.217,0-6.477-0.715-9.775-2.14 c-3.313-1.411-4.965-2.821-4.965-4.212c0-0.916,0.254-1.668,0.756-2.24c0.484-0.566,1.014-0.874,1.559-0.874 c0.556,0,1.398,0.345,2.518,1.026c1.993,1.121,3.714,1.916,5.193,2.377c1.472,0.449,3.098,0.689,4.893,0.689 c4.912,0,8.591-1.393,11.051-4.152c2.446-2.772,3.664-6.916,3.664-12.448v-4.399c-1.299,2.487-3.109,4.452-5.496,5.915 c-2.387,1.433-5.101,2.167-8.163,2.167c-5.801,0-10.427-2.146-13.87-6.455c-3.447-4.31-5.17-10.211-5.17-17.695 c0-7.461,1.777-13.311,5.313-17.6c3.571-4.281,8.356-6.415,14.378-6.415c2.767,0,5.288,0.62,7.57,1.841 c2.246,1.229,4.066,2.992,5.438,5.267v-3.731c0-1.839,0.949-2.74,2.852-2.74c1.82,0,2.724,0.901,2.724,2.74V81.055z"></path> <path fill="#003F8B" d="M529.443,82.679c0,1.863-0.934,2.813-2.813,2.813c-1.834,0-2.762-0.949-2.762-2.813v-4.836 c-1.602,2.755-3.637,4.828-6.068,6.191c-2.457,1.373-5.31,2.068-8.571,2.068c-4.974,0-8.811-1.539-11.524-4.619 c-2.695-3.072-4.041-7.261-4.041-12.563V41.406c0-1.899,0.893-2.832,2.704-2.832c1.909,0,2.878,0.933,2.878,2.832v27.156 c-0.009,3.707,0.919,6.665,2.811,8.881c1.871,2.223,4.548,3.323,7.968,3.323c4.286,0,7.664-1.46,10.147-4.364 c2.459-2.916,3.697-6.756,3.697-11.554V41.406c0-1.899,0.928-2.832,2.762-2.832c1.879,0,2.813,0.933,2.813,2.832V82.679z"></path> <path fill="#003F8B" d="M541.783,44.458c1.16-2.146,2.662-3.784,4.484-4.877c1.821-1.088,3.988-1.644,6.498-1.644 c2.215,0,3.817,0.301,4.891,0.914c1.073,0.61,1.623,1.369,1.623,2.293c0,0.773-0.18,1.433-0.521,2.018 c-0.329,0.57-0.819,0.854-1.464,0.854c-0.391,0-0.843-0.095-1.359-0.259c-0.999-0.3-2.062-0.442-3.253-0.442 c-3.276,0-5.93,1.174-7.93,3.547c-1.986,2.365-2.969,5.494-2.969,9.367v26.451c0,1.87-0.955,2.812-2.836,2.812 c-1.824,0-2.737-0.941-2.737-2.812V41.314c0-1.838,0.913-2.74,2.737-2.74c1.889,0,2.836,0.902,2.836,2.74V44.458z"></path> <path fill="#003F8B" d="M577.654,43.315c-4.112,0-7.536,1.55-10.32,4.653c-2.78,3.109-4.155,7.794-4.155,14.068 c-0.011,6.229,1.452,10.894,4.351,14.041c2.92,3.127,6.293,4.699,10.125,4.699c3.845,0,7.229-1.572,10.172-4.699 c2.927-3.147,4.387-7.805,4.375-14.041c0-6.139-1.364-10.82-4.097-13.971C585.366,44.888,581.865,43.315,577.654,43.315 M577.654,86.103c-5.879,0-10.696-2.167-14.442-6.504c-3.731-4.327-5.612-10.18-5.612-17.563c0-7.664,1.881-13.59,5.612-17.787 c3.746-4.203,8.563-6.312,14.442-6.312c5.922,0,10.765,2.133,14.513,6.415c3.731,4.247,5.602,10.139,5.602,17.684 c0,7.354-1.87,13.187-5.636,17.543C588.365,83.936,583.544,86.103,577.654,86.103"></path> <path fill="#003F8B" d="M616.074,86.103c-2.342,0-4.515-0.254-6.445-0.753c-1.944-0.505-3.851-1.31-5.729-2.384 c-1.877-1.072-3.017-1.885-3.387-2.406c-0.369-0.546-0.557-1.128-0.557-1.79c0-0.729,0.234-1.394,0.763-1.948 c0.498-0.596,1.083-0.893,1.718-0.893c0.742,0,1.463,0.287,2.153,0.852c1.504,1.153,3.289,2.114,5.379,2.864 c2.097,0.752,4.128,1.132,6.104,1.132c3.386,0,6.017-0.697,7.904-2.08c1.866-1.398,2.826-3.285,2.812-5.652 c0.015-2.151-0.753-3.807-2.227-4.953c-1.501-1.166-3.515-2.027-6.017-2.586c-4.09-0.859-7.059-1.566-8.883-2.133 c-1.806-0.559-3.397-1.349-4.711-2.328c-1.311-0.998-2.369-2.244-3.129-3.781c-0.783-1.508-1.16-3.448-1.149-5.793 c0-3.986,1.497-7.239,4.55-9.751c3.073-2.523,6.953-3.781,11.692-3.781c3.497,0,6.737,0.708,9.73,2.115 c3.034,1.403,4.518,2.819,4.518,4.237c0,0.707-0.251,1.404-0.805,2.076c-0.533,0.689-1.118,1.03-1.773,1.03 c-0.605,0-1.326-0.31-2.152-0.896c-3.072-2.121-6.261-3.187-9.595-3.187c-3.421,0-6.049,0.738-7.881,2.19 c-1.804,1.475-2.739,3.342-2.744,5.619c0,1.75,0.452,3.178,1.361,4.285c0.91,1.104,2.107,1.955,3.602,2.523 c1.488,0.588,4.191,1.296,8.133,2.148c5.187,1.125,8.671,2.703,10.414,4.713c1.762,2.009,2.646,4.631,2.646,7.857 c0,3.848-1.457,7.059-4.376,9.598C625.093,84.821,621.118,86.103,616.074,86.103"></path> <path fill="#003F8B" d="M183.282,73.983c0,2.397-0.654,4.38-1.933,5.919c-1.3,1.547-3.693,2.999-7.218,4.387 c-3.517,1.389-7.68,2.077-12.494,2.077c-8.516,0-15.281-2.837-20.318-8.487c-5.01-5.662-7.533-13.306-7.533-22.974 c0-9.88,2.68-17.754,8.069-23.6c5.386-5.848,12.235-8.768,20.561-8.768c4.624,0,8.387,0.547,11.334,1.641 c2.958,1.09,5.107,2.205,6.477,3.302c1.372,1.098,2.045,2.265,2.038,3.529c0.007,1.269-0.443,2.481-1.31,3.589 c-0.885,1.129-1.878,1.697-2.993,1.703c-0.968-0.006-2.049-0.322-3.261-0.984c-4.243-2.192-8.239-3.3-11.97-3.3 c-5.595,0-10.139,2.017-13.594,6.065c-3.484,4.03-5.24,9.594-5.24,16.66c0,7.037,1.669,12.49,5.01,16.331 c3.324,3.865,7.985,5.808,14.001,5.808c2.112,0,4.105-0.289,5.982-0.838c1.875-0.578,3.065-1.111,3.547-1.617 c0.484-0.504,0.738-1.232,0.738-2.192V60.486h-10.09c-1.546,0-2.693-0.331-3.427-1.003c-0.732-0.672-1.105-1.965-1.105-3.856 c0-1.668,0.373-2.838,1.105-3.567c0.734-0.707,1.937-1.07,3.616-1.07h15.036c3.321,0,4.972,1.56,4.972,4.638V73.983z"></path> <path fill="#003F8B" d="M199.89,81.996c0,2.794-1.686,4.178-5.051,4.178c-3.268,0-4.885-1.384-4.885-4.178v-55.41 c0-1.429,0.38-2.461,1.143-3.07c0.759-0.633,2.042-0.948,3.829-0.948c1.759,0,3.027,0.315,3.8,0.966 c0.781,0.64,1.164,1.657,1.164,3.052V81.996z"></path> <path fill="#003F8B" d="M227.175,47.161c-3.672,0-6.477,1.368-8.431,4.106c-1.944,2.735-2.912,6.345-2.912,10.856 c0,4.488,0.971,8.097,2.961,10.923c2,2.821,4.773,4.215,8.382,4.215c3.749,0,6.596-1.332,8.546-3.992 c1.919-2.676,2.899-6.389,2.899-11.146c0-4.985-0.959-8.716-2.868-11.208C233.843,48.404,230.993,47.161,227.175,47.161 M227.175,86.366c-6.574,0-11.775-2.251-15.594-6.761c-3.825-4.492-5.741-10.338-5.741-17.481c0-7.219,1.909-13.026,5.721-17.45 c3.798-4.416,9.015-6.644,15.614-6.644c6.696,0,11.943,2.209,15.747,6.606c3.818,4.388,5.728,10.217,5.728,17.487 c0,7.267-1.923,13.103-5.755,17.552C239.047,84.138,233.809,86.366,227.175,86.366"></path> <path fill="#003F8B" d="M264.492,65.962c0,3.181,0.877,5.847,2.651,8.041c1.798,2.166,4.202,3.258,7.253,3.258 c3.338,0,5.964-1.332,7.868-4.012c1.915-2.695,2.863-6.412,2.863-11.125c0-4.606-0.942-8.25-2.809-10.926 c-1.89-2.683-4.528-4.038-7.922-4.038c-3.01,0-5.392,1.063-7.191,3.177c-1.808,2.136-2.713,4.844-2.713,8.146V65.962z M264.492,79.902v2.361c0,2.611-1.704,3.916-5.14,3.916c-1.821,0-3.092-0.342-3.766-0.995c-0.699-0.673-1.029-1.728-1.029-3.188 V26.766c0-1.467,0.365-2.535,1.11-3.192c0.749-0.679,2.017-1.007,3.776-1.007c1.805,0,3.105,0.325,3.881,1.007 c0.784,0.663,1.168,1.725,1.168,3.192v17.276c2.79-3.996,6.587-6.013,11.443-6.013c5.844,0,10.488,2.209,13.961,6.604 c3.473,4.39,5.226,10.219,5.226,17.49c0,7.428-1.677,13.32-5.017,17.687c-3.355,4.358-7.776,6.555-13.304,6.555 C271.117,86.366,267.017,84.212,264.492,79.902"></path> <path fill="#003F8B" d="M330.242,58.469c0-3.247-0.898-5.969-2.702-8.104c-1.806-2.127-4.201-3.205-7.198-3.205 c-3.414,0-6.035,1.359-7.912,4.057c-1.877,2.71-2.812,6.348-2.812,10.906c0,4.783,0.946,8.52,2.843,11.154 c1.91,2.672,4.55,4.002,7.881,3.998c3.052,0,5.467-1.086,7.243-3.25c1.779-2.162,2.657-4.854,2.657-8.063V58.469z M330.242,79.633 c-2.407,4.487-6.524,6.731-12.354,6.731c-5.49,0-9.909-2.191-13.249-6.554c-3.352-4.366-5.021-10.259-5.021-17.688 c0-7.303,1.739-13.149,5.22-17.525c3.469-4.359,8.131-6.566,13.956-6.566c5.059,0,8.863,2.016,11.447,6.012v-1.651 c0-2.784,1.694-4.174,5.056-4.174c1.704,0,2.94,0.331,3.707,1.004c0.77,0.666,1.146,1.735,1.146,3.17v39.604 c0,1.488-0.362,2.554-1.065,3.205c-0.704,0.648-2.014,0.979-3.951,0.979c-3.253,0-4.892-1.305-4.892-3.922V79.633z"></path> <path fill="#003F8B" d="M356.824,81.996c0,2.794-1.679,4.182-5.052,4.178c-3.26,0.004-4.891-1.384-4.891-4.178v-55.41 c0-1.429,0.387-2.461,1.149-3.07c0.771-0.633,2.055-0.948,3.822-0.948c1.767,0,3.041,0.315,3.808,0.966 c0.776,0.64,1.163,1.657,1.163,3.052V81.996z"></path> <path fill="#003F8B" d="M30.56,8.378c-0.338-1.045,0.229-2.177,1.274-2.508c0.105-0.038,9.156-3.021,20.367-3.021 c1.091,0,1.958,0.903,1.958,2.007c0,1.101-0.867,1.989-1.958,1.989c-7.908,0-14.8,1.6-17.684,2.387 c-0.972,0.289-1.474,0.428-1.474,0.428l-0.606,0.102C31.608,9.762,30.821,9.232,30.56,8.378"></path> <path fill="#003F8B" d="M12.221,21.973c-0.203-1.095,0.473-2.137,1.54-2.37c0.073,0,20.693-4.405,38.44-4.405 c1.091,0,1.948,0.889,1.948,1.999c0,1.1-0.857,2.001-1.948,2.001c-8.563,0-18.003,1.074-25.278,2.161 c-7.267,1.073-12.329,2.167-12.329,2.167h-0.025l-0.404,0.035C13.251,23.561,12.423,22.927,12.221,21.973"></path> <path fill="#003F8B" d="M3.922,35.298C3.749,34.211,4.5,33.194,5.581,33.02c0.059-0.003,23.913-3.702,46.607-3.702 c1.105,0,1.971,0.905,1.971,2.009c0,1.109-0.866,2.01-1.971,2.01c-11.141,0-22.659,0.913-31.375,1.826 C12.077,36.076,6.18,36.988,6.18,36.988l-0.315,0.014C4.924,37.001,4.068,36.293,3.922,35.298"></path> <path fill="#003F8B" d="M0.006,48.606c-0.087-1.101,0.729-2.079,1.815-2.151c0,0,22.447-1.838,50.38-1.838 c1.091,0,1.957,0.893,1.957,2.01c0,1.099-0.866,1.99-1.957,1.99c-13.901,0-26.414,0.463-35.48,0.899 c-9.012,0.46-14.576,0.912-14.576,0.912H2.131l-0.143,0.015C0.967,50.443,0.083,49.649,0.006,48.606"></path> <path fill="#003F8B" d="M31.834,103.794c-1.045-0.33-1.616-1.477-1.274-2.521c0.34-1.058,1.435-1.642,2.483-1.287 c0,0,0.501,0.153,1.474,0.42c0.962,0.267,2.369,0.613,4.1,0.974c3.494,0.712,8.309,1.415,13.584,1.415c1.09,0,1.947,0.9,1.947,2.007 c0,1.09-0.857,1.996-1.947,1.996C40.991,106.791,31.939,103.816,31.834,103.794"></path> <path fill="#003F8B" d="M13.698,90.019c-1.07-0.254-1.707-1.338-1.471-2.404c0.279-1.087,1.344-1.742,2.405-1.47 c0,0,1.051,0.25,2.992,0.662c1.933,0.397,4.738,0.935,8.163,1.491c6.88,1.08,16.304,2.146,26.414,2.146 c1.091,0,1.957,0.902,1.957,2.015c0,1.09-0.866,1.996-1.957,1.996C31.413,94.455,13.788,90.044,13.698,90.019"></path> <path fill="#003F8B" d="M5.545,76.606c-1.087-0.167-1.797-1.194-1.623-2.292c0.202-1.098,1.205-1.832,2.285-1.641 c0,0,5.317,0.902,13.737,1.814c8.438,0.924,19.945,1.836,32.257,1.836c1.091,0,1.957,0.899,1.957,1.986 c0,1.107-0.866,2.003-1.957,2.014C27.229,80.313,5.615,76.626,5.545,76.606"></path> <path fill="#003F8B" d="M1.804,63.207c-1.08-0.076-1.885-1.068-1.79-2.162c0.084-1.109,1.038-1.917,2.118-1.826 c0.031,0,5.365,0.442,14.322,0.898c8.95,0.453,21.478,0.923,35.748,0.923c1.09,0,1.957,0.892,1.957,1.979 c0,1.107-0.867,2.021-1.957,2.021C23.501,65.04,1.839,63.207,1.804,63.207"></path> <path fill="#003F8B" d="M71.321,9.66c0,0-0.502-0.153-1.446-0.428c-0.983-0.258-2.394-0.602-4.149-0.958 c-3.47-0.714-8.275-1.439-13.525-1.439c-1.108,0-1.988-0.878-1.988-1.979c0-1.108,0.88-2.007,1.988-2.007 c11.198,0,20.221,2.983,20.353,3.004c1.025,0.348,1.596,1.48,1.272,2.525c-0.293,0.854-1.056,1.384-1.906,1.384L71.321,9.66"></path> <path fill="#003F8B" d="M89.792,23.526c0,0-5.079-1.084-12.34-2.153c-7.274-1.101-16.721-2.175-25.251-2.175 c-1.104,0-1.989-0.902-1.989-1.999c0-1.122,0.885-1.997,1.989-2.001c17.726,0,38.35,4.391,38.399,4.405h0.007 c1.074,0.233,1.753,1.275,1.529,2.37c-0.188,0.953-1.013,1.577-1.919,1.577L89.792,23.526"></path> <path fill="#003F8B" d="M98.203,36.988c0,0-5.901-0.91-14.626-1.833c-8.74-0.905-20.261-1.818-31.375-1.818 c-1.108,0-1.989-0.902-1.989-2.01c0-1.105,0.881-1.997,1.989-1.997c22.659,0,46.544,3.689,46.6,3.689 c1.081,0.175,1.826,1.193,1.647,2.279c-0.149,0.996-0.999,1.703-1.939,1.703L98.203,36.988"></path> <path fill="#003F8B" d="M102.223,50.428c0,0-5.549-0.464-14.584-0.896c-9.057-0.453-21.571-0.916-35.437-0.916 c-1.105,0-1.989-0.896-1.989-1.989c0-1.118,0.884-2.011,1.989-2.011c27.905,0,50.331,1.836,50.331,1.836h0.025 c1.079,0.078,1.888,1.049,1.801,2.153c-0.08,1.044-0.945,1.837-1.965,1.837L102.223,50.428"></path> <path fill="#003F8B" d="M50.213,104.801c0-1.106,0.884-2.003,1.988-2.007c7.867,0.017,14.769-1.596,17.664-2.389 c0.955-0.263,1.456-0.418,1.456-0.418h0.007c1.038-0.346,2.156,0.228,2.498,1.285c0.31,1.045-0.247,2.191-1.278,2.521 c-0.125,0.027-9.149,3.003-20.347,3.003C51.097,106.797,50.213,105.9,50.213,104.801"></path> <path fill="#003F8B" d="M50.213,92.455c0-1.107,0.884-2.011,1.988-2.011c15.145,0,28.749-2.421,34.547-3.628 c1.944-0.422,2.983-0.672,2.983-0.672c1.069-0.271,2.152,0.392,2.396,1.471c0.257,1.053-0.383,2.15-1.457,2.404 c-0.089,0.025-17.711,4.436-38.469,4.436C51.097,94.455,50.213,93.548,50.213,92.455"></path> <path fill="#003F8B" d="M50.213,78.316c0-1.098,0.884-1.992,1.988-1.992c12.281,0,23.8-0.913,32.223-1.836 c8.421-0.913,13.73-1.814,13.73-1.814h0.024c1.056-0.191,2.074,0.543,2.282,1.648c0.168,1.076-0.558,2.117-1.638,2.284 c-0.055,0.024-21.666,3.707-46.621,3.718C51.097,80.313,50.213,79.419,50.213,78.316"></path> <path fill="#003F8B" d="M50.213,63.019c0-1.102,0.884-2,1.988-2c14.243,0,26.771-0.449,35.717-0.902 c8.94-0.445,14.298-0.898,14.298-0.898h0.007c1.115-0.092,2.056,0.717,2.146,1.826c0.084,1.09-0.717,2.072-1.811,2.166 c0,0-21.691,1.83-50.357,1.83C51.097,65.041,50.213,64.126,50.213,63.019"></path> <path fill="#DA031B" d="M27.246,69.158c-0.874-3.003-0.223-4.462,1.704-6.139c2.097-1.812,6.703-5.03,9.668-6.92 c1.502-0.971,3.142-0.599,3.724,0.718c0.941,2.079,3.49,9.167,5.791,16.006c0.668,2.034,2.181,1.946,3.149,0 C64.503,46.005,79.529,21.297,93.005,6.629c2.299-2.511,3.163-3.239,5.233-3.786c2.062-0.548,6.922-1.881,11.97-2.794 c2.097-0.37,3.421,1.421,2.01,3.156C98.46,20.363,73.558,63.873,58.333,95.642c-1.135,2.4-2.515,3.086-4.996,3.091 c-2.676-0.005-11.692-0.785-11.692-0.785c-1.943,0.028-3.42-0.745-4.257-2.615C33.87,87.298,27.246,69.158,27.246,69.158"></path> </svg> 