<?xml version="1.0" encoding="UTF-8"?> <svg xmlns="http://www.w3.org/2000/svg" width="78.525" height="19.853" viewBox="0 0 78.525 19.853"><g id="allianz-fit" opacity="0.61"><path id="Trazado_4" data-name="Trazado 4" d="M72.906,13.237a6.869,6.869,0,0,1,2.311-1.313c1.891-.368,3.046.473,3.151,2.363.053,2.206,0,4.359.053,6.565,0,.42-.158.525-.525.525-2.363.158-2.363.158-2.363-2.153V15.337c0-.63-.105-1.1-.945-1.05-.893.053-1.523.525-1.523,1.208,0,1.681-.053,3.361,0,5.042,0,.578-.105.84-.788.84-2.153,0-2.153,0-2.153-2.153V14.077c0-.42.053-.84-.525-1-.525-.105-.263-.525-.315-.84,0-.42.315-.315.525-.315H71.75C72.59,11.924,72.958,12.291,72.906,13.237Z" transform="translate(-32.878 -5.621)" fill="#486da1"></path><path id="Trazado_5" data-name="Trazado 5" d="M92.8,19.7c1.208,0,2.258.053,3.309,0,.525,0,.735.105.735.683-.053,1.523.158,1.208-1.26,1.26H90.12c-.473,0-.63-.105-.63-.63a2.981,2.981,0,0,1,.683-2.258c1.1-1.418,2.1-2.889,3.256-4.464h-2.1a.57.57,0,0,0-.63.473c-.105.578-.578.368-.893.315-.473,0-.263-.42-.315-.63-.053-2,0-2.048,1.943-2.048h4.622c.42,0,.578.105.578.578a3.4,3.4,0,0,1-.735,2.416C94.847,16.759,93.9,18.177,92.8,19.7Z" transform="translate(-42.477 -5.887)" fill="#486da1"></path><path id="Trazado_6" data-name="Trazado 6" d="M25.839,12.895v5.3c0,.525-.158.683-.63.683-2.258.053-2.258.053-2.258-2.206V8.641c0-.473.053-.945-.63-1.1-.473-.105-.263-.473-.263-.788,0-.368.263-.263.473-.263h1.838c1.208,0,1.418.21,1.418,1.418C25.839,9.534,25.839,11.214,25.839,12.895Z" transform="translate(-10.444 -3.074)" fill="#486da1"></path><path id="Trazado_7" data-name="Trazado 7" d="M35.539,12.76v5.3c0,.473-.105.683-.63.683-2.258.053-2.258.053-2.258-2.153V8.453c0-.473,0-.893-.63-1.05-.473-.105-.263-.473-.263-.788,0-.42.315-.263.525-.315h2.1c.788,0,1.1.368,1.1,1.155C35.487,9.241,35.539,11.027,35.539,12.76Z" transform="translate(-15.05 -2.991)" fill="#486da1"></path><path id="Trazado_8" data-name="Trazado 8" d="M45.211,17.079V20.86c0,.473-.105.63-.63.63-2.258.053-2.258.053-2.258-2.206V14.138c0-.42,0-.788-.525-.893s-.263-.525-.315-.84c-.053-.42.263-.315.525-.315h2.206c.683,0,1,.368,1,1.05Z" transform="translate(-19.679 -5.734)" fill="#486da1"></path><path id="Trazado_9" data-name="Trazado 9" d="M44.081,6.1c1,0,1.576.525,1.523,1.366,0,.788-.63,1.26-1.628,1.26-1.05,0-1.576-.473-1.576-1.313C42.4,6.517,43.03,6.044,44.081,6.1Z" transform="translate(-20.125 -2.893)" fill="#486da1"></path><g id="Grupo_1" data-name="Grupo 1" transform="translate(0 3.309)"><path id="Trazado_10" data-name="Trazado 10" d="M11.076,17.855a.394.394,0,0,1-.053-.263c-.945-3.361-1.943-6.723-2.889-10.084-.158-.578-.42-1.155-1.1-1.155-1.523-.053-3.046,0-4.517-.053-.315.053-.42.21-.368.473.053.21-.21.63.263.63,1.05.053.893.683.683,1.313C2.2,11.447,1.254,14.178.362,16.909c-.63,1.838-.63,1.786,1.313,1.838A1.155,1.155,0,0,0,3.093,17.7c.525-2,.578-2,2.574-2,1.523,0,1.523,0,1.891,1.471.42,1.523.42,1.523,2,1.523a4.492,4.492,0,0,1,.84,0C11.233,18.852,11.443,18.537,11.076,17.855ZM6.3,13.653H4.143c.473-1.471.893-2.836,1.366-4.464.42,1.471.735,2.731,1.1,3.939C6.717,13.443,6.717,13.653,6.3,13.653Z" transform="translate(0.013 -6.3)" fill="#486da1"></path></g><g id="Grupo_2" data-name="Grupo 2" transform="translate(26.945 6.402)"><path id="Trazado_11" data-name="Trazado 11" d="M59.856,20.493c-.683-.158-.578-.63-.63-1.1-.053-1.681.105-3.414-.105-5.094a1.943,1.943,0,0,0-1.733-1.943,7.924,7.924,0,0,0-5.147.683c-.158.053-.368.105-.315.315a6.074,6.074,0,0,0,.525,1.471c.21.315.578-.105.893-.21a5.738,5.738,0,0,1,2.311-.315c.525.053.683.42.683.893.053.525-.368.368-.63.473-.683.158-1.366.263-2.048.473A3.012,3.012,0,0,0,51.4,20.02a1.984,1.984,0,0,0,2,1.681,4.125,4.125,0,0,0,2.994-1.05.961.961,0,0,0,1.1,1h2c.21,0,.473,0,.473-.315C60.014,20.966,60.171,20.545,59.856,20.493Zm-4.307-1.05c-.473.21-1.05.42-1.418-.158a1.353,1.353,0,0,1,.578-1.733c.21-.105.473-.158.683-.263.945-.263.945-.263.945.788C56.547,18.76,56.18,19.18,55.55,19.442Z" transform="translate(-51.29 -12.189)" fill="#486da1"></path></g><g id="Grupo_3" data-name="Grupo 3" transform="translate(58.62)"><path id="Trazado_12" data-name="Trazado 12" d="M121.526,0A9.662,9.662,0,0,0,111.6,9.926a9.953,9.953,0,1,0,19.905-.053A9.663,9.663,0,0,0,121.526,0Zm0,17.962a7.769,7.769,0,0,1-7.983-8.036,8.062,8.062,0,0,1,16.124-.053A7.91,7.91,0,0,1,121.526,17.962Z" transform="translate(-111.6)" fill="#486da1"></path><path id="Trazado_13" data-name="Trazado 13" d="M129.936,13.035V8.255c0-.735-.315-1.155-1.1-1.155H126.89c-.263,0-.473,0-.42.315.053.263-.21.735.21.788.683.105.578.578.578,1v7.3c0,2.048,0,2.048,2.1,2,.473,0,.63-.158.63-.63C129.936,16.291,129.936,14.663,129.936,13.035Z" transform="translate(-118.644 -3.371)" fill="#486da1"></path><path id="Trazado_14" data-name="Trazado 14" d="M122.643,11.876a2.128,2.128,0,0,1-.578,0c-1.155,0-1.366.263-1.366,1.366V18.7c0,2.153,0,2.153,2.153,2.1.42,0,.578-.158.578-.578-.053-1.313,0-2.574,0-3.887,0-1.26-.053-2.521,0-3.781C123.431,11.982,123.221,11.771,122.643,11.876Z" transform="translate(-115.921 -5.627)" fill="#486da1"></path><path id="Trazado_15" data-name="Trazado 15" d="M138.331,13.886c0-2-.105-2.048-2.1-2-.473,0-.63.158-.63.63.053,1.26,0,2.574,0,3.834v2.521c0,2,0,1.943,2.048,1.943.578,0,.683-.21.683-.735Z" transform="translate(-122.995 -5.64)" fill="#486da1"></path></g></g></svg> 