<?xml version="1.0" encoding="UTF-8"?> <svg xmlns="http://www.w3.org/2000/svg" width="403.939" height="205.7" viewBox="0 0 403.939 205.7"><g id="Grupo_1000" data-name="Grupo 1000" opacity="0.28"><path id="Trazado_253" data-name="Trazado 253" d="M1239.008,808.3a1.8,1.8,0,1,1-1.8-1.8A1.8,1.8,0,0,1,1239.008,808.3Z" transform="translate(-1235.407 -806.496)" fill="#486da1"></path><ellipse id="Elipse_16" data-name="Elipse 16" cx="1.801" cy="1.801" rx="1.801" ry="1.801" transform="translate(22.241 0)" fill="#486da1"></ellipse><circle id="Elipse_17" data-name="Elipse 17" cx="1.8" cy="1.8" r="1.8" transform="translate(44.482 0)" fill="#486da1"></circle><path id="Trazado_254" data-name="Trazado 254" d="M1286.694,808.3a1.8,1.8,0,1,1-1.8-1.8A1.8,1.8,0,0,1,1286.694,808.3Z" transform="translate(-1216.37 -806.496)" fill="#486da1"></path><circle id="Elipse_18" data-name="Elipse 18" cx="1.8" cy="1.8" r="1.8" transform="translate(88.965 0)" fill="#486da1"></circle><circle id="Elipse_19" data-name="Elipse 19" cx="1.8" cy="1.8" r="1.8" transform="translate(111.205 0)" fill="#486da1"></circle><path id="Trazado_255" data-name="Trazado 255" d="M1334.381,808.3a1.8,1.8,0,1,1-1.8-1.8A1.8,1.8,0,0,1,1334.381,808.3Z" transform="translate(-1197.334 -806.496)" fill="#486da1"></path><path id="Trazado_256" data-name="Trazado 256" d="M1350.276,808.3a1.8,1.8,0,1,1-1.8-1.8A1.8,1.8,0,0,1,1350.276,808.3Z" transform="translate(-1190.988 -806.496)" fill="#486da1"></path><circle id="Elipse_20" data-name="Elipse 20" cx="1.8" cy="1.8" r="1.8" transform="translate(177.929 0)" fill="#486da1"></circle><path id="Trazado_257" data-name="Trazado 257" d="M1382.068,808.3a1.8,1.8,0,1,1-1.8-1.8A1.8,1.8,0,0,1,1382.068,808.3Z" transform="translate(-1178.297 -806.496)" fill="#486da1"></path><path id="Trazado_258" data-name="Trazado 258" d="M1397.963,808.3a1.8,1.8,0,1,1-1.8-1.8A1.8,1.8,0,0,1,1397.963,808.3Z" transform="translate(-1171.951 -806.496)" fill="#486da1"></path><circle id="Elipse_21" data-name="Elipse 21" cx="1.8" cy="1.8" r="1.8" transform="translate(244.652 0)" fill="#486da1"></circle><path id="Trazado_259" data-name="Trazado 259" d="M1429.754,808.3a1.8,1.8,0,1,1-1.8-1.8A1.8,1.8,0,0,1,1429.754,808.3Z" transform="translate(-1159.261 -806.496)" fill="#486da1"></path><path id="Trazado_260" data-name="Trazado 260" d="M1445.65,808.3a1.8,1.8,0,1,1-1.8-1.8A1.8,1.8,0,0,1,1445.65,808.3Z" transform="translate(-1152.915 -806.496)" fill="#486da1"></path><circle id="Elipse_22" data-name="Elipse 22" cx="1.8" cy="1.8" r="1.8" transform="translate(311.375 0)" fill="#486da1"></circle><path id="Trazado_261" data-name="Trazado 261" d="M1477.441,808.3a1.8,1.8,0,1,1-1.8-1.8A1.8,1.8,0,0,1,1477.441,808.3Z" transform="translate(-1140.224 -806.496)" fill="#486da1"></path><path id="Trazado_262" data-name="Trazado 262" d="M1493.336,808.3a1.8,1.8,0,1,1-1.8-1.8A1.8,1.8,0,0,1,1493.336,808.3Z" transform="translate(-1133.878 -806.496)" fill="#486da1"></path><circle id="Elipse_23" data-name="Elipse 23" cx="1.8" cy="1.8" r="1.8" transform="translate(378.098 0)" fill="#486da1"></circle><path id="Trazado_263" data-name="Trazado 263" d="M1525.127,808.3a1.8,1.8,0,1,1-1.8-1.8A1.8,1.8,0,0,1,1525.127,808.3Z" transform="translate(-1121.188 -806.496)" fill="#486da1"></path><path id="Trazado_264" data-name="Trazado 264" d="M1239.008,826.352a1.8,1.8,0,1,1-1.8-1.8A1.8,1.8,0,0,1,1239.008,826.352Z" transform="translate(-1235.407 -799.288)" fill="#486da1"></path><ellipse id="Elipse_24" data-name="Elipse 24" cx="1.8" cy="1.8" rx="1.8" ry="1.8" transform="translate(22.203 28.825) rotate(-88.77)" fill="#486da1"></ellipse><circle id="Elipse_25" data-name="Elipse 25" cx="1.8" cy="1.8" r="1.8" transform="translate(44.482 25.263)" fill="#486da1"></circle><path id="Trazado_265" data-name="Trazado 265" d="M1286.694,826.352a1.8,1.8,0,1,1-1.8-1.8A1.8,1.8,0,0,1,1286.694,826.352Z" transform="translate(-1216.37 -799.288)" fill="#486da1"></path><circle id="Elipse_26" data-name="Elipse 26" cx="1.8" cy="1.8" r="1.8" transform="translate(88.965 25.263)" fill="#486da1"></circle><circle id="Elipse_27" data-name="Elipse 27" cx="1.8" cy="1.8" r="1.8" transform="translate(111.205 25.263)" fill="#486da1"></circle><path id="Trazado_266" data-name="Trazado 266" d="M1334.381,826.352a1.8,1.8,0,1,1-1.8-1.8A1.8,1.8,0,0,1,1334.381,826.352Z" transform="translate(-1197.334 -799.288)" fill="#486da1"></path><path id="Trazado_267" data-name="Trazado 267" d="M1350.276,826.352a1.8,1.8,0,1,1-1.8-1.8A1.8,1.8,0,0,1,1350.276,826.352Z" transform="translate(-1190.988 -799.288)" fill="#486da1"></path><circle id="Elipse_28" data-name="Elipse 28" cx="1.8" cy="1.8" r="1.8" transform="translate(177.929 25.263)" fill="#486da1"></circle><path id="Trazado_268" data-name="Trazado 268" d="M1382.068,826.352a1.8,1.8,0,1,1-1.8-1.8A1.8,1.8,0,0,1,1382.068,826.352Z" transform="translate(-1178.297 -799.288)" fill="#486da1"></path><path id="Trazado_269" data-name="Trazado 269" d="M1397.963,826.352a1.8,1.8,0,1,1-1.8-1.8A1.8,1.8,0,0,1,1397.963,826.352Z" transform="translate(-1171.951 -799.288)" fill="#486da1"></path><circle id="Elipse_29" data-name="Elipse 29" cx="1.8" cy="1.8" r="1.8" transform="translate(244.652 25.263)" fill="#486da1"></circle><path id="Trazado_270" data-name="Trazado 270" d="M1429.754,826.352a1.8,1.8,0,1,1-1.8-1.8A1.8,1.8,0,0,1,1429.754,826.352Z" transform="translate(-1159.261 -799.288)" fill="#486da1"></path><path id="Trazado_271" data-name="Trazado 271" d="M1445.65,826.352a1.8,1.8,0,1,1-1.8-1.8A1.8,1.8,0,0,1,1445.65,826.352Z" transform="translate(-1152.915 -799.288)" fill="#486da1"></path><circle id="Elipse_30" data-name="Elipse 30" cx="1.8" cy="1.8" r="1.8" transform="translate(311.375 25.263)" fill="#486da1"></circle><path id="Trazado_272" data-name="Trazado 272" d="M1477.441,826.352a1.8,1.8,0,1,1-1.8-1.8A1.8,1.8,0,0,1,1477.441,826.352Z" transform="translate(-1140.224 -799.288)" fill="#486da1"></path><path id="Trazado_273" data-name="Trazado 273" d="M1493.336,826.352a1.8,1.8,0,1,1-1.8-1.8A1.8,1.8,0,0,1,1493.336,826.352Z" transform="translate(-1133.878 -799.288)" fill="#486da1"></path><circle id="Elipse_31" data-name="Elipse 31" cx="1.8" cy="1.8" r="1.8" transform="translate(378.098 25.263)" fill="#486da1"></circle><path id="Trazado_274" data-name="Trazado 274" d="M1525.127,826.352a1.8,1.8,0,1,1-1.8-1.8A1.8,1.8,0,0,1,1525.127,826.352Z" transform="translate(-1121.188 -799.288)" fill="#486da1"></path><path id="Trazado_275" data-name="Trazado 275" d="M1239.008,844.407a1.8,1.8,0,1,1-1.8-1.8A1.8,1.8,0,0,1,1239.008,844.407Z" transform="translate(-1235.407 -792.081)" fill="#486da1"></path><ellipse id="Elipse_32" data-name="Elipse 32" cx="1.801" cy="1.801" rx="1.801" ry="1.801" transform="translate(22.241 50.525)" fill="#486da1"></ellipse><circle id="Elipse_33" data-name="Elipse 33" cx="1.8" cy="1.8" r="1.8" transform="translate(44.482 50.525)" fill="#486da1"></circle><path id="Trazado_276" data-name="Trazado 276" d="M1286.694,844.407a1.8,1.8,0,1,1-1.8-1.8A1.8,1.8,0,0,1,1286.694,844.407Z" transform="translate(-1216.37 -792.081)" fill="#486da1"></path><circle id="Elipse_34" data-name="Elipse 34" cx="1.8" cy="1.8" r="1.8" transform="translate(88.965 50.525)" fill="#486da1"></circle><circle id="Elipse_35" data-name="Elipse 35" cx="1.8" cy="1.8" r="1.8" transform="translate(111.205 50.525)" fill="#486da1"></circle><path id="Trazado_277" data-name="Trazado 277" d="M1334.381,844.407a1.8,1.8,0,1,1-1.8-1.8A1.8,1.8,0,0,1,1334.381,844.407Z" transform="translate(-1197.334 -792.081)" fill="#486da1"></path><path id="Trazado_278" data-name="Trazado 278" d="M1350.276,844.407a1.8,1.8,0,1,1-1.8-1.8A1.8,1.8,0,0,1,1350.276,844.407Z" transform="translate(-1190.988 -792.081)" fill="#486da1"></path><circle id="Elipse_36" data-name="Elipse 36" cx="1.8" cy="1.8" r="1.8" transform="translate(177.929 50.525)" fill="#486da1"></circle><path id="Trazado_279" data-name="Trazado 279" d="M1382.068,844.407a1.8,1.8,0,1,1-1.8-1.8A1.8,1.8,0,0,1,1382.068,844.407Z" transform="translate(-1178.297 -792.081)" fill="#486da1"></path><path id="Trazado_280" data-name="Trazado 280" d="M1397.963,844.407a1.8,1.8,0,1,1-1.8-1.8A1.8,1.8,0,0,1,1397.963,844.407Z" transform="translate(-1171.951 -792.081)" fill="#486da1"></path><circle id="Elipse_37" data-name="Elipse 37" cx="1.8" cy="1.8" r="1.8" transform="translate(244.652 50.525)" fill="#486da1"></circle><path id="Trazado_281" data-name="Trazado 281" d="M1429.754,844.407a1.8,1.8,0,1,1-1.8-1.8A1.8,1.8,0,0,1,1429.754,844.407Z" transform="translate(-1159.261 -792.081)" fill="#486da1"></path><path id="Trazado_282" data-name="Trazado 282" d="M1445.65,844.407a1.8,1.8,0,1,1-1.8-1.8A1.8,1.8,0,0,1,1445.65,844.407Z" transform="translate(-1152.915 -792.081)" fill="#486da1"></path><circle id="Elipse_38" data-name="Elipse 38" cx="1.8" cy="1.8" r="1.8" transform="translate(311.375 50.525)" fill="#486da1"></circle><path id="Trazado_283" data-name="Trazado 283" d="M1477.441,844.407a1.8,1.8,0,1,1-1.8-1.8A1.8,1.8,0,0,1,1477.441,844.407Z" transform="translate(-1140.224 -792.081)" fill="#486da1"></path><path id="Trazado_284" data-name="Trazado 284" d="M1493.336,844.407a1.8,1.8,0,1,1-1.8-1.8A1.8,1.8,0,0,1,1493.336,844.407Z" transform="translate(-1133.878 -792.081)" fill="#486da1"></path><circle id="Elipse_39" data-name="Elipse 39" cx="1.8" cy="1.8" r="1.8" transform="translate(378.098 50.525)" fill="#486da1"></circle><path id="Trazado_285" data-name="Trazado 285" d="M1525.127,844.407a1.8,1.8,0,1,1-1.8-1.8A1.8,1.8,0,0,1,1525.127,844.407Z" transform="translate(-1121.188 -792.081)" fill="#486da1"></path><path id="Trazado_286" data-name="Trazado 286" d="M1239.008,862.462a1.8,1.8,0,1,1-1.8-1.8A1.8,1.8,0,0,1,1239.008,862.462Z" transform="translate(-1235.407 -784.873)" fill="#486da1"></path><ellipse id="Elipse_40" data-name="Elipse 40" cx="1.801" cy="1.801" rx="1.801" ry="1.801" transform="translate(22.241 75.787)" fill="#486da1"></ellipse><circle id="Elipse_41" data-name="Elipse 41" cx="1.8" cy="1.8" r="1.8" transform="translate(44.482 75.787)" fill="#486da1"></circle><path id="Trazado_287" data-name="Trazado 287" d="M1286.694,862.462a1.8,1.8,0,1,1-1.8-1.8A1.8,1.8,0,0,1,1286.694,862.462Z" transform="translate(-1216.37 -784.873)" fill="#486da1"></path><circle id="Elipse_42" data-name="Elipse 42" cx="1.8" cy="1.8" r="1.8" transform="translate(88.965 75.787)" fill="#486da1"></circle><circle id="Elipse_43" data-name="Elipse 43" cx="1.8" cy="1.8" r="1.8" transform="translate(111.205 75.787)" fill="#486da1"></circle><path id="Trazado_288" data-name="Trazado 288" d="M1334.381,862.462a1.8,1.8,0,1,1-1.8-1.8A1.8,1.8,0,0,1,1334.381,862.462Z" transform="translate(-1197.334 -784.873)" fill="#486da1"></path><path id="Trazado_289" data-name="Trazado 289" d="M1350.276,862.462a1.8,1.8,0,1,1-1.8-1.8A1.8,1.8,0,0,1,1350.276,862.462Z" transform="translate(-1190.988 -784.873)" fill="#486da1"></path><circle id="Elipse_44" data-name="Elipse 44" cx="1.8" cy="1.8" r="1.8" transform="translate(177.929 75.787)" fill="#486da1"></circle><path id="Trazado_290" data-name="Trazado 290" d="M1382.068,862.462a1.8,1.8,0,1,1-1.8-1.8A1.8,1.8,0,0,1,1382.068,862.462Z" transform="translate(-1178.297 -784.873)" fill="#486da1"></path><path id="Trazado_291" data-name="Trazado 291" d="M1397.963,862.462a1.8,1.8,0,1,1-1.8-1.8A1.8,1.8,0,0,1,1397.963,862.462Z" transform="translate(-1171.951 -784.873)" fill="#486da1"></path><circle id="Elipse_45" data-name="Elipse 45" cx="1.8" cy="1.8" r="1.8" transform="translate(244.652 75.787)" fill="#486da1"></circle><path id="Trazado_292" data-name="Trazado 292" d="M1429.754,862.462a1.8,1.8,0,1,1-1.8-1.8A1.8,1.8,0,0,1,1429.754,862.462Z" transform="translate(-1159.261 -784.873)" fill="#486da1"></path><path id="Trazado_293" data-name="Trazado 293" d="M1445.65,862.462a1.8,1.8,0,1,1-1.8-1.8A1.8,1.8,0,0,1,1445.65,862.462Z" transform="translate(-1152.915 -784.873)" fill="#486da1"></path><circle id="Elipse_46" data-name="Elipse 46" cx="1.8" cy="1.8" r="1.8" transform="translate(311.375 75.787)" fill="#486da1"></circle><path id="Trazado_294" data-name="Trazado 294" d="M1477.441,862.462a1.8,1.8,0,1,1-1.8-1.8A1.8,1.8,0,0,1,1477.441,862.462Z" transform="translate(-1140.224 -784.873)" fill="#486da1"></path><path id="Trazado_295" data-name="Trazado 295" d="M1493.336,862.462a1.8,1.8,0,1,1-1.8-1.8A1.8,1.8,0,0,1,1493.336,862.462Z" transform="translate(-1133.878 -784.873)" fill="#486da1"></path><circle id="Elipse_47" data-name="Elipse 47" cx="1.8" cy="1.8" r="1.8" transform="translate(378.098 75.787)" fill="#486da1"></circle><path id="Trazado_296" data-name="Trazado 296" d="M1525.127,862.462a1.8,1.8,0,1,1-1.8-1.8A1.8,1.8,0,0,1,1525.127,862.462Z" transform="translate(-1121.188 -784.873)" fill="#486da1"></path><path id="Trazado_297" data-name="Trazado 297" d="M1239.008,880.515a1.8,1.8,0,1,1-1.8-1.8A1.8,1.8,0,0,1,1239.008,880.515Z" transform="translate(-1235.407 -777.666)" fill="#486da1"></path><ellipse id="Elipse_48" data-name="Elipse 48" cx="1.801" cy="1.801" rx="1.801" ry="1.801" transform="translate(22.241 101.05)" fill="#486da1"></ellipse><circle id="Elipse_49" data-name="Elipse 49" cx="1.8" cy="1.8" r="1.8" transform="translate(44.482 101.05)" fill="#486da1"></circle><path id="Trazado_298" data-name="Trazado 298" d="M1286.694,880.515a1.8,1.8,0,1,1-1.8-1.8A1.8,1.8,0,0,1,1286.694,880.515Z" transform="translate(-1216.37 -777.666)" fill="#486da1"></path><circle id="Elipse_50" data-name="Elipse 50" cx="1.8" cy="1.8" r="1.8" transform="translate(88.965 101.05)" fill="#486da1"></circle><circle id="Elipse_51" data-name="Elipse 51" cx="1.8" cy="1.8" r="1.8" transform="translate(111.205 101.05)" fill="#486da1"></circle><path id="Trazado_299" data-name="Trazado 299" d="M1334.381,880.515a1.8,1.8,0,1,1-1.8-1.8A1.8,1.8,0,0,1,1334.381,880.515Z" transform="translate(-1197.334 -777.666)" fill="#486da1"></path><path id="Trazado_300" data-name="Trazado 300" d="M1350.276,880.515a1.8,1.8,0,1,1-1.8-1.8A1.8,1.8,0,0,1,1350.276,880.515Z" transform="translate(-1190.988 -777.666)" fill="#486da1"></path><circle id="Elipse_52" data-name="Elipse 52" cx="1.8" cy="1.8" r="1.8" transform="translate(177.929 101.05)" fill="#486da1"></circle><path id="Trazado_301" data-name="Trazado 301" d="M1382.068,880.515a1.8,1.8,0,1,1-1.8-1.8A1.8,1.8,0,0,1,1382.068,880.515Z" transform="translate(-1178.297 -777.666)" fill="#486da1"></path><path id="Trazado_302" data-name="Trazado 302" d="M1397.963,880.515a1.8,1.8,0,1,1-1.8-1.8A1.8,1.8,0,0,1,1397.963,880.515Z" transform="translate(-1171.951 -777.666)" fill="#486da1"></path><circle id="Elipse_53" data-name="Elipse 53" cx="1.8" cy="1.8" r="1.8" transform="translate(244.652 101.05)" fill="#486da1"></circle><path id="Trazado_303" data-name="Trazado 303" d="M1429.754,880.515a1.8,1.8,0,1,1-1.8-1.8A1.8,1.8,0,0,1,1429.754,880.515Z" transform="translate(-1159.261 -777.666)" fill="#486da1"></path><path id="Trazado_304" data-name="Trazado 304" d="M1445.65,880.515a1.8,1.8,0,1,1-1.8-1.8A1.8,1.8,0,0,1,1445.65,880.515Z" transform="translate(-1152.915 -777.666)" fill="#486da1"></path><circle id="Elipse_54" data-name="Elipse 54" cx="1.8" cy="1.8" r="1.8" transform="translate(311.375 101.05)" fill="#486da1"></circle><path id="Trazado_305" data-name="Trazado 305" d="M1477.441,880.515a1.8,1.8,0,1,1-1.8-1.8A1.8,1.8,0,0,1,1477.441,880.515Z" transform="translate(-1140.224 -777.666)" fill="#486da1"></path><path id="Trazado_306" data-name="Trazado 306" d="M1493.336,880.515a1.8,1.8,0,1,1-1.8-1.8A1.8,1.8,0,0,1,1493.336,880.515Z" transform="translate(-1133.878 -777.666)" fill="#486da1"></path><circle id="Elipse_55" data-name="Elipse 55" cx="1.8" cy="1.8" r="1.8" transform="translate(378.098 101.05)" fill="#486da1"></circle><path id="Trazado_307" data-name="Trazado 307" d="M1525.127,880.515a1.8,1.8,0,1,1-1.8-1.8A1.8,1.8,0,0,1,1525.127,880.515Z" transform="translate(-1121.188 -777.666)" fill="#486da1"></path><path id="Trazado_308" data-name="Trazado 308" d="M1239.008,898.571a1.8,1.8,0,1,1-1.8-1.8A1.8,1.8,0,0,1,1239.008,898.571Z" transform="translate(-1235.407 -770.458)" fill="#486da1"></path><path id="Trazado_309" data-name="Trazado 309" d="M1254.9,898.571a1.8,1.8,0,1,1-1.8-1.8A1.8,1.8,0,0,1,1254.9,898.571Z" transform="translate(-1229.061 -770.458)" fill="#486da1"></path><path id="Trazado_310" data-name="Trazado 310" d="M1270.8,898.571a1.8,1.8,0,1,1-1.8-1.8A1.8,1.8,0,0,1,1270.8,898.571Z" transform="translate(-1222.716 -770.458)" fill="#486da1"></path><path id="Trazado_311" data-name="Trazado 311" d="M1286.694,898.571a1.8,1.8,0,1,1-1.8-1.8A1.8,1.8,0,0,1,1286.694,898.571Z" transform="translate(-1216.37 -770.458)" fill="#486da1"></path><path id="Trazado_312" data-name="Trazado 312" d="M1302.59,898.571a1.8,1.8,0,1,1-1.8-1.8A1.8,1.8,0,0,1,1302.59,898.571Z" transform="translate(-1210.025 -770.458)" fill="#486da1"></path><path id="Trazado_313" data-name="Trazado 313" d="M1318.486,898.571a1.8,1.8,0,1,1-1.8-1.8A1.8,1.8,0,0,1,1318.486,898.571Z" transform="translate(-1203.679 -770.458)" fill="#486da1"></path><path id="Trazado_314" data-name="Trazado 314" d="M1334.381,898.571a1.8,1.8,0,1,1-1.8-1.8A1.8,1.8,0,0,1,1334.381,898.571Z" transform="translate(-1197.334 -770.458)" fill="#486da1"></path><path id="Trazado_315" data-name="Trazado 315" d="M1350.276,898.571a1.8,1.8,0,1,1-1.8-1.8A1.8,1.8,0,0,1,1350.276,898.571Z" transform="translate(-1190.988 -770.458)" fill="#486da1"></path><path id="Trazado_316" data-name="Trazado 316" d="M1366.172,898.571a1.8,1.8,0,1,1-1.8-1.8A1.8,1.8,0,0,1,1366.172,898.571Z" transform="translate(-1184.643 -770.458)" fill="#486da1"></path><path id="Trazado_317" data-name="Trazado 317" d="M1382.068,898.571a1.8,1.8,0,1,1-1.8-1.8A1.8,1.8,0,0,1,1382.068,898.571Z" transform="translate(-1178.297 -770.458)" fill="#486da1"></path><path id="Trazado_318" data-name="Trazado 318" d="M1397.963,898.571a1.8,1.8,0,1,1-1.8-1.8A1.8,1.8,0,0,1,1397.963,898.571Z" transform="translate(-1171.951 -770.458)" fill="#486da1"></path><path id="Trazado_319" data-name="Trazado 319" d="M1413.86,898.571a1.8,1.8,0,1,1-1.8-1.8A1.8,1.8,0,0,1,1413.86,898.571Z" transform="translate(-1165.606 -770.458)" fill="#486da1"></path><path id="Trazado_320" data-name="Trazado 320" d="M1429.754,898.571a1.8,1.8,0,1,1-1.8-1.8A1.8,1.8,0,0,1,1429.754,898.571Z" transform="translate(-1159.261 -770.458)" fill="#486da1"></path><path id="Trazado_321" data-name="Trazado 321" d="M1445.65,898.571a1.8,1.8,0,1,1-1.8-1.8A1.8,1.8,0,0,1,1445.65,898.571Z" transform="translate(-1152.915 -770.458)" fill="#486da1"></path><path id="Trazado_322" data-name="Trazado 322" d="M1461.545,898.571a1.8,1.8,0,1,1-1.8-1.8A1.8,1.8,0,0,1,1461.545,898.571Z" transform="translate(-1146.569 -770.458)" fill="#486da1"></path><path id="Trazado_323" data-name="Trazado 323" d="M1477.441,898.571a1.8,1.8,0,1,1-1.8-1.8A1.8,1.8,0,0,1,1477.441,898.571Z" transform="translate(-1140.224 -770.458)" fill="#486da1"></path><path id="Trazado_324" data-name="Trazado 324" d="M1493.336,898.571a1.8,1.8,0,1,1-1.8-1.8A1.8,1.8,0,0,1,1493.336,898.571Z" transform="translate(-1133.878 -770.458)" fill="#486da1"></path><path id="Trazado_325" data-name="Trazado 325" d="M1509.233,898.571a1.8,1.8,0,1,1-1.8-1.8A1.8,1.8,0,0,1,1509.233,898.571Z" transform="translate(-1127.533 -770.458)" fill="#486da1"></path><path id="Trazado_326" data-name="Trazado 326" d="M1525.127,898.571a1.8,1.8,0,1,1-1.8-1.8A1.8,1.8,0,0,1,1525.127,898.571Z" transform="translate(-1121.188 -770.458)" fill="#486da1"></path><path id="Trazado_327" data-name="Trazado 327" d="M1239.008,916.626a1.8,1.8,0,1,1-1.8-1.8A1.8,1.8,0,0,1,1239.008,916.626Z" transform="translate(-1235.407 -763.251)" fill="#486da1"></path><path id="Trazado_328" data-name="Trazado 328" d="M1254.9,916.626a1.8,1.8,0,1,1-1.8-1.8A1.8,1.8,0,0,1,1254.9,916.626Z" transform="translate(-1229.061 -763.251)" fill="#486da1"></path><path id="Trazado_329" data-name="Trazado 329" d="M1270.8,916.626a1.8,1.8,0,1,1-1.8-1.8A1.8,1.8,0,0,1,1270.8,916.626Z" transform="translate(-1222.716 -763.251)" fill="#486da1"></path><path id="Trazado_330" data-name="Trazado 330" d="M1286.694,916.626a1.8,1.8,0,1,1-1.8-1.8A1.8,1.8,0,0,1,1286.694,916.626Z" transform="translate(-1216.37 -763.251)" fill="#486da1"></path><path id="Trazado_331" data-name="Trazado 331" d="M1302.59,916.626a1.8,1.8,0,1,1-1.8-1.8A1.8,1.8,0,0,1,1302.59,916.626Z" transform="translate(-1210.025 -763.251)" fill="#486da1"></path><path id="Trazado_332" data-name="Trazado 332" d="M1318.486,916.626a1.8,1.8,0,1,1-1.8-1.8A1.8,1.8,0,0,1,1318.486,916.626Z" transform="translate(-1203.679 -763.251)" fill="#486da1"></path><path id="Trazado_333" data-name="Trazado 333" d="M1334.381,916.626a1.8,1.8,0,1,1-1.8-1.8A1.8,1.8,0,0,1,1334.381,916.626Z" transform="translate(-1197.334 -763.251)" fill="#486da1"></path><path id="Trazado_334" data-name="Trazado 334" d="M1350.276,916.626a1.8,1.8,0,1,1-1.8-1.8A1.8,1.8,0,0,1,1350.276,916.626Z" transform="translate(-1190.988 -763.251)" fill="#486da1"></path><path id="Trazado_335" data-name="Trazado 335" d="M1366.172,916.626a1.8,1.8,0,1,1-1.8-1.8A1.8,1.8,0,0,1,1366.172,916.626Z" transform="translate(-1184.643 -763.251)" fill="#486da1"></path><path id="Trazado_336" data-name="Trazado 336" d="M1382.068,916.626a1.8,1.8,0,1,1-1.8-1.8A1.8,1.8,0,0,1,1382.068,916.626Z" transform="translate(-1178.297 -763.251)" fill="#486da1"></path><path id="Trazado_337" data-name="Trazado 337" d="M1397.963,916.626a1.8,1.8,0,1,1-1.8-1.8A1.8,1.8,0,0,1,1397.963,916.626Z" transform="translate(-1171.951 -763.251)" fill="#486da1"></path><path id="Trazado_338" data-name="Trazado 338" d="M1413.86,916.626a1.8,1.8,0,1,1-1.8-1.8A1.8,1.8,0,0,1,1413.86,916.626Z" transform="translate(-1165.606 -763.251)" fill="#486da1"></path><path id="Trazado_339" data-name="Trazado 339" d="M1429.754,916.626a1.8,1.8,0,1,1-1.8-1.8A1.8,1.8,0,0,1,1429.754,916.626Z" transform="translate(-1159.261 -763.251)" fill="#486da1"></path><path id="Trazado_340" data-name="Trazado 340" d="M1445.65,916.626a1.8,1.8,0,1,1-1.8-1.8A1.8,1.8,0,0,1,1445.65,916.626Z" transform="translate(-1152.915 -763.251)" fill="#486da1"></path><path id="Trazado_341" data-name="Trazado 341" d="M1461.545,916.626a1.8,1.8,0,1,1-1.8-1.8A1.8,1.8,0,0,1,1461.545,916.626Z" transform="translate(-1146.569 -763.251)" fill="#486da1"></path><path id="Trazado_342" data-name="Trazado 342" d="M1477.441,916.626a1.8,1.8,0,1,1-1.8-1.8A1.8,1.8,0,0,1,1477.441,916.626Z" transform="translate(-1140.224 -763.251)" fill="#486da1"></path><path id="Trazado_343" data-name="Trazado 343" d="M1493.336,916.626a1.8,1.8,0,1,1-1.8-1.8A1.8,1.8,0,0,1,1493.336,916.626Z" transform="translate(-1133.878 -763.251)" fill="#486da1"></path><path id="Trazado_344" data-name="Trazado 344" d="M1509.233,916.626a1.8,1.8,0,1,1-1.8-1.8A1.8,1.8,0,0,1,1509.233,916.626Z" transform="translate(-1127.533 -763.251)" fill="#486da1"></path><path id="Trazado_345" data-name="Trazado 345" d="M1525.127,916.626a1.8,1.8,0,1,1-1.8-1.8A1.8,1.8,0,0,1,1525.127,916.626Z" transform="translate(-1121.188 -763.251)" fill="#486da1"></path><path id="Trazado_346" data-name="Trazado 346" d="M1239.008,934.681a1.8,1.8,0,1,1-1.8-1.8A1.8,1.8,0,0,1,1239.008,934.681Z" transform="translate(-1235.407 -756.043)" fill="#486da1"></path><ellipse id="Elipse_56" data-name="Elipse 56" cx="1.8" cy="1.8" rx="1.8" ry="1.8" transform="translate(22.242 176.836)" fill="#486da1"></ellipse><ellipse id="Elipse_57" data-name="Elipse 57" cx="1.8" cy="1.8" rx="1.8" ry="1.8" transform="translate(44.482 176.836)" fill="#486da1"></ellipse><path id="Trazado_347" data-name="Trazado 347" d="M1286.694,934.681a1.8,1.8,0,1,1-1.8-1.8A1.8,1.8,0,0,1,1286.694,934.681Z" transform="translate(-1216.37 -756.043)" fill="#486da1"></path><ellipse id="Elipse_58" data-name="Elipse 58" cx="1.8" cy="1.8" rx="1.8" ry="1.8" transform="translate(88.965 176.836)" fill="#486da1"></ellipse><ellipse id="Elipse_59" data-name="Elipse 59" cx="1.8" cy="1.8" rx="1.8" ry="1.8" transform="translate(111.205 176.836)" fill="#486da1"></ellipse><path id="Trazado_348" data-name="Trazado 348" d="M1334.381,934.681a1.8,1.8,0,1,1-1.8-1.8A1.8,1.8,0,0,1,1334.381,934.681Z" transform="translate(-1197.334 -756.043)" fill="#486da1"></path><path id="Trazado_349" data-name="Trazado 349" d="M1350.276,934.681a1.8,1.8,0,1,1-1.8-1.8A1.8,1.8,0,0,1,1350.276,934.681Z" transform="translate(-1190.988 -756.043)" fill="#486da1"></path><ellipse id="Elipse_60" data-name="Elipse 60" cx="1.8" cy="1.8" rx="1.8" ry="1.8" transform="translate(177.929 176.836)" fill="#486da1"></ellipse><path id="Trazado_350" data-name="Trazado 350" d="M1382.068,934.681a1.8,1.8,0,1,1-1.8-1.8A1.8,1.8,0,0,1,1382.068,934.681Z" transform="translate(-1178.297 -756.043)" fill="#486da1"></path><path id="Trazado_351" data-name="Trazado 351" d="M1397.963,934.681a1.8,1.8,0,1,1-1.8-1.8A1.8,1.8,0,0,1,1397.963,934.681Z" transform="translate(-1171.951 -756.043)" fill="#486da1"></path><ellipse id="Elipse_61" data-name="Elipse 61" cx="1.8" cy="1.8" rx="1.8" ry="1.8" transform="translate(244.652 176.836)" fill="#486da1"></ellipse><path id="Trazado_352" data-name="Trazado 352" d="M1429.754,934.681a1.8,1.8,0,1,1-1.8-1.8A1.8,1.8,0,0,1,1429.754,934.681Z" transform="translate(-1159.261 -756.043)" fill="#486da1"></path><path id="Trazado_353" data-name="Trazado 353" d="M1445.65,934.681a1.8,1.8,0,1,1-1.8-1.8A1.8,1.8,0,0,1,1445.65,934.681Z" transform="translate(-1152.915 -756.043)" fill="#486da1"></path><ellipse id="Elipse_62" data-name="Elipse 62" cx="1.8" cy="1.8" rx="1.8" ry="1.8" transform="translate(311.375 176.836)" fill="#486da1"></ellipse><path id="Trazado_354" data-name="Trazado 354" d="M1477.441,934.681a1.8,1.8,0,1,1-1.8-1.8A1.8,1.8,0,0,1,1477.441,934.681Z" transform="translate(-1140.224 -756.043)" fill="#486da1"></path><path id="Trazado_355" data-name="Trazado 355" d="M1493.336,934.681a1.8,1.8,0,1,1-1.8-1.8A1.8,1.8,0,0,1,1493.336,934.681Z" transform="translate(-1133.878 -756.043)" fill="#486da1"></path><ellipse id="Elipse_63" data-name="Elipse 63" cx="1.8" cy="1.8" rx="1.8" ry="1.8" transform="translate(378.098 176.836)" fill="#486da1"></ellipse><path id="Trazado_356" data-name="Trazado 356" d="M1525.127,934.681a1.8,1.8,0,1,1-1.8-1.8A1.8,1.8,0,0,1,1525.127,934.681Z" transform="translate(-1121.188 -756.043)" fill="#486da1"></path><path id="Trazado_357" data-name="Trazado 357" d="M1239.008,952.734a1.8,1.8,0,1,1-1.8-1.8A1.8,1.8,0,0,1,1239.008,952.734Z" transform="translate(-1235.407 -748.836)" fill="#486da1"></path><ellipse id="Elipse_64" data-name="Elipse 64" cx="1.801" cy="1.801" rx="1.801" ry="1.801" transform="translate(22.241 202.099)" fill="#486da1"></ellipse><circle id="Elipse_65" data-name="Elipse 65" cx="1.8" cy="1.8" r="1.8" transform="translate(44.482 202.099)" fill="#486da1"></circle><path id="Trazado_358" data-name="Trazado 358" d="M1286.694,952.734a1.8,1.8,0,1,1-1.8-1.8A1.8,1.8,0,0,1,1286.694,952.734Z" transform="translate(-1216.37 -748.836)" fill="#486da1"></path><circle id="Elipse_66" data-name="Elipse 66" cx="1.8" cy="1.8" r="1.8" transform="translate(88.965 202.099)" fill="#486da1"></circle><circle id="Elipse_67" data-name="Elipse 67" cx="1.8" cy="1.8" r="1.8" transform="translate(111.205 202.099)" fill="#486da1"></circle><path id="Trazado_359" data-name="Trazado 359" d="M1334.381,952.734a1.8,1.8,0,1,1-1.8-1.8A1.8,1.8,0,0,1,1334.381,952.734Z" transform="translate(-1197.334 -748.836)" fill="#486da1"></path><path id="Trazado_360" data-name="Trazado 360" d="M1350.276,952.734a1.8,1.8,0,1,1-1.8-1.8A1.8,1.8,0,0,1,1350.276,952.734Z" transform="translate(-1190.988 -748.836)" fill="#486da1"></path><circle id="Elipse_68" data-name="Elipse 68" cx="1.8" cy="1.8" r="1.8" transform="translate(177.929 202.099)" fill="#486da1"></circle><path id="Trazado_361" data-name="Trazado 361" d="M1382.068,952.734a1.8,1.8,0,1,1-1.8-1.8A1.8,1.8,0,0,1,1382.068,952.734Z" transform="translate(-1178.297 -748.836)" fill="#486da1"></path><path id="Trazado_362" data-name="Trazado 362" d="M1397.963,952.734a1.8,1.8,0,1,1-1.8-1.8A1.8,1.8,0,0,1,1397.963,952.734Z" transform="translate(-1171.951 -748.836)" fill="#486da1"></path><circle id="Elipse_69" data-name="Elipse 69" cx="1.8" cy="1.8" r="1.8" transform="translate(244.652 202.099)" fill="#486da1"></circle><path id="Trazado_363" data-name="Trazado 363" d="M1429.754,952.734a1.8,1.8,0,1,1-1.8-1.8A1.8,1.8,0,0,1,1429.754,952.734Z" transform="translate(-1159.261 -748.836)" fill="#486da1"></path><path id="Trazado_364" data-name="Trazado 364" d="M1445.65,952.734a1.8,1.8,0,1,1-1.8-1.8A1.8,1.8,0,0,1,1445.65,952.734Z" transform="translate(-1152.915 -748.836)" fill="#486da1"></path><circle id="Elipse_70" data-name="Elipse 70" cx="1.8" cy="1.8" r="1.8" transform="translate(311.375 202.099)" fill="#486da1"></circle><path id="Trazado_365" data-name="Trazado 365" d="M1477.441,952.734a1.8,1.8,0,1,1-1.8-1.8A1.8,1.8,0,0,1,1477.441,952.734Z" transform="translate(-1140.224 -748.836)" fill="#486da1"></path><path id="Trazado_366" data-name="Trazado 366" d="M1493.336,952.734a1.8,1.8,0,1,1-1.8-1.8A1.8,1.8,0,0,1,1493.336,952.734Z" transform="translate(-1133.878 -748.836)" fill="#486da1"></path><circle id="Elipse_71" data-name="Elipse 71" cx="1.8" cy="1.8" r="1.8" transform="translate(378.098 202.099)" fill="#486da1"></circle><path id="Trazado_367" data-name="Trazado 367" d="M1525.127,952.734a1.8,1.8,0,1,1-1.8-1.8A1.8,1.8,0,0,1,1525.127,952.734Z" transform="translate(-1121.188 -748.836)" fill="#486da1"></path><path id="Trazado_585" data-name="Trazado 585" d="M1525.127,808.3a1.8,1.8,0,1,1-1.8-1.8A1.8,1.8,0,0,1,1525.127,808.3Z" transform="translate(-1121.188 -806.496)" fill="#486da1"></path></g></svg> 