<?xml version="1.0" encoding="UTF-8"?> <svg xmlns="http://www.w3.org/2000/svg" width="85.81" height="85.294" viewBox="0 0 85.81 85.294"><g id="Grupo_843" data-name="Grupo 843" opacity="0.996"><path id="Trazado_373" data-name="Trazado 373" d="M1396.065,735.128a.851.851,0,1,1-.851-.851A.851.851,0,0,1,1396.065,735.128Z" transform="translate(-1394.363 -734.277)" fill="#486da1"></path><ellipse id="Elipse_77" data-name="Elipse 77" cx="0.851" cy="0.851" rx="0.851" ry="0.851" transform="translate(10.513 0)" fill="#486da1"></ellipse><path id="Trazado_374" data-name="Trazado 374" d="M1427.856,735.128a.851.851,0,1,1-.851-.851A.851.851,0,0,1,1427.856,735.128Z" transform="translate(-1405.127 -734.277)" fill="#486da1"></path><path id="Trazado_375" data-name="Trazado 375" d="M1443.752,735.128a.851.851,0,1,1-.851-.851A.851.851,0,0,1,1443.752,735.128Z" transform="translate(-1410.509 -734.277)" fill="#486da1"></path><ellipse id="Elipse_78" data-name="Elipse 78" cx="0.851" cy="0.851" rx="0.851" ry="0.851" transform="translate(42.054 0)" fill="#486da1"></ellipse><path id="Trazado_376" data-name="Trazado 376" d="M1475.542,735.128a.851.851,0,1,1-.851-.851A.851.851,0,0,1,1475.542,735.128Z" transform="translate(-1421.273 -734.277)" fill="#486da1"></path><path id="Trazado_377" data-name="Trazado 377" d="M1491.438,735.128a.851.851,0,1,1-.851-.851A.851.851,0,0,1,1491.438,735.128Z" transform="translate(-1426.655 -734.277)" fill="#486da1"></path><ellipse id="Elipse_79" data-name="Elipse 79" cx="0.851" cy="0.851" rx="0.851" ry="0.851" transform="translate(73.594 0)" fill="#486da1"></ellipse><path id="Trazado_378" data-name="Trazado 378" d="M1523.229,735.128a.851.851,0,1,1-.851-.851A.851.851,0,0,1,1523.229,735.128Z" transform="translate(-1437.419 -734.277)" fill="#486da1"></path><path id="Trazado_389" data-name="Trazado 389" d="M1396.065,753.183a.851.851,0,1,1-.851-.851A.851.851,0,0,1,1396.065,753.183Z" transform="translate(-1394.363 -740.39)" fill="#486da1"></path><path id="Trazado_390" data-name="Trazado 390" d="M1411.961,753.183a.851.851,0,1,1-.851-.851A.852.852,0,0,1,1411.961,753.183Z" transform="translate(-1399.745 -740.39)" fill="#486da1"></path><path id="Trazado_391" data-name="Trazado 391" d="M1427.856,753.183a.851.851,0,1,1-.851-.851A.851.851,0,0,1,1427.856,753.183Z" transform="translate(-1405.127 -740.39)" fill="#486da1"></path><path id="Trazado_392" data-name="Trazado 392" d="M1443.752,753.183a.851.851,0,1,1-.851-.851A.852.852,0,0,1,1443.752,753.183Z" transform="translate(-1410.509 -740.39)" fill="#486da1"></path><path id="Trazado_393" data-name="Trazado 393" d="M1459.647,753.183a.851.851,0,1,1-.851-.851A.851.851,0,0,1,1459.647,753.183Z" transform="translate(-1415.891 -740.39)" fill="#486da1"></path><path id="Trazado_394" data-name="Trazado 394" d="M1475.542,753.183a.851.851,0,1,1-.851-.851A.851.851,0,0,1,1475.542,753.183Z" transform="translate(-1421.273 -740.39)" fill="#486da1"></path><path id="Trazado_395" data-name="Trazado 395" d="M1491.438,753.183a.851.851,0,1,1-.851-.851A.851.851,0,0,1,1491.438,753.183Z" transform="translate(-1426.655 -740.39)" fill="#486da1"></path><path id="Trazado_396" data-name="Trazado 396" d="M1507.333,753.183a.851.851,0,1,1-.851-.851A.851.851,0,0,1,1507.333,753.183Z" transform="translate(-1432.037 -740.39)" fill="#486da1"></path><path id="Trazado_397" data-name="Trazado 397" d="M1523.229,753.183a.851.851,0,1,1-.851-.851A.851.851,0,0,1,1523.229,753.183Z" transform="translate(-1437.419 -740.39)" fill="#486da1"></path><path id="Trazado_408" data-name="Trazado 408" d="M1396.065,771.238a.851.851,0,1,1-.851-.851A.851.851,0,0,1,1396.065,771.238Z" transform="translate(-1394.363 -746.503)" fill="#486da1"></path><path id="Trazado_409" data-name="Trazado 409" d="M1411.961,771.238a.851.851,0,1,1-.851-.851A.851.851,0,0,1,1411.961,771.238Z" transform="translate(-1399.745 -746.503)" fill="#486da1"></path><path id="Trazado_410" data-name="Trazado 410" d="M1427.856,771.238a.851.851,0,1,1-.851-.851A.851.851,0,0,1,1427.856,771.238Z" transform="translate(-1405.127 -746.503)" fill="#486da1"></path><path id="Trazado_411" data-name="Trazado 411" d="M1443.752,771.238a.851.851,0,1,1-.851-.851A.851.851,0,0,1,1443.752,771.238Z" transform="translate(-1410.509 -746.503)" fill="#486da1"></path><path id="Trazado_412" data-name="Trazado 412" d="M1459.647,771.238a.851.851,0,1,1-.851-.851A.851.851,0,0,1,1459.647,771.238Z" transform="translate(-1415.891 -746.503)" fill="#486da1"></path><path id="Trazado_413" data-name="Trazado 413" d="M1475.542,771.238a.851.851,0,1,1-.851-.851A.851.851,0,0,1,1475.542,771.238Z" transform="translate(-1421.273 -746.503)" fill="#486da1"></path><path id="Trazado_414" data-name="Trazado 414" d="M1491.438,771.238a.851.851,0,1,1-.851-.851A.851.851,0,0,1,1491.438,771.238Z" transform="translate(-1426.655 -746.503)" fill="#486da1"></path><path id="Trazado_415" data-name="Trazado 415" d="M1507.333,771.238a.851.851,0,1,1-.851-.851A.851.851,0,0,1,1507.333,771.238Z" transform="translate(-1432.037 -746.503)" fill="#486da1"></path><path id="Trazado_416" data-name="Trazado 416" d="M1523.229,771.238a.851.851,0,1,1-.851-.851A.851.851,0,0,1,1523.229,771.238Z" transform="translate(-1437.419 -746.503)" fill="#486da1"></path><path id="Trazado_427" data-name="Trazado 427" d="M1396.065,789.293a.851.851,0,1,1-.851-.851A.851.851,0,0,1,1396.065,789.293Z" transform="translate(-1394.363 -752.617)" fill="#486da1"></path><path id="Trazado_428" data-name="Trazado 428" d="M1411.961,789.293a.851.851,0,1,1-.851-.851A.851.851,0,0,1,1411.961,789.293Z" transform="translate(-1399.745 -752.617)" fill="#486da1"></path><path id="Trazado_429" data-name="Trazado 429" d="M1427.856,789.293a.851.851,0,1,1-.851-.851A.851.851,0,0,1,1427.856,789.293Z" transform="translate(-1405.127 -752.617)" fill="#486da1"></path><path id="Trazado_430" data-name="Trazado 430" d="M1443.752,789.293a.851.851,0,1,1-.851-.851A.851.851,0,0,1,1443.752,789.293Z" transform="translate(-1410.509 -752.617)" fill="#486da1"></path><path id="Trazado_431" data-name="Trazado 431" d="M1459.647,789.293a.851.851,0,1,1-.851-.851A.851.851,0,0,1,1459.647,789.293Z" transform="translate(-1415.891 -752.617)" fill="#486da1"></path><path id="Trazado_432" data-name="Trazado 432" d="M1475.542,789.293a.851.851,0,1,1-.851-.851A.851.851,0,0,1,1475.542,789.293Z" transform="translate(-1421.273 -752.617)" fill="#486da1"></path><path id="Trazado_433" data-name="Trazado 433" d="M1491.438,789.293a.851.851,0,1,1-.851-.851A.851.851,0,0,1,1491.438,789.293Z" transform="translate(-1426.655 -752.617)" fill="#486da1"></path><path id="Trazado_434" data-name="Trazado 434" d="M1507.333,789.293a.851.851,0,1,1-.851-.851A.851.851,0,0,1,1507.333,789.293Z" transform="translate(-1432.037 -752.617)" fill="#486da1"></path><path id="Trazado_435" data-name="Trazado 435" d="M1523.229,789.293a.851.851,0,1,1-.851-.851A.851.851,0,0,1,1523.229,789.293Z" transform="translate(-1437.419 -752.617)" fill="#486da1"></path><path id="Trazado_441" data-name="Trazado 441" d="M1396.065,807.347a.851.851,0,1,1-.851-.851A.851.851,0,0,1,1396.065,807.347Z" transform="translate(-1394.363 -758.729)" fill="#486da1"></path><ellipse id="Elipse_85" data-name="Elipse 85" cx="0.851" cy="0.851" rx="0.851" ry="0.851" transform="translate(10.513 47.767)" fill="#486da1"></ellipse><path id="Trazado_442" data-name="Trazado 442" d="M1427.856,807.347a.851.851,0,1,1-.851-.851A.851.851,0,0,1,1427.856,807.347Z" transform="translate(-1405.127 -758.729)" fill="#486da1"></path><path id="Trazado_443" data-name="Trazado 443" d="M1443.752,807.347a.851.851,0,1,1-.851-.851A.851.851,0,0,1,1443.752,807.347Z" transform="translate(-1410.509 -758.729)" fill="#486da1"></path><ellipse id="Elipse_86" data-name="Elipse 86" cx="0.851" cy="0.851" rx="0.851" ry="0.851" transform="translate(42.054 47.767)" fill="#486da1"></ellipse><path id="Trazado_444" data-name="Trazado 444" d="M1475.542,807.347a.851.851,0,1,1-.851-.851A.851.851,0,0,1,1475.542,807.347Z" transform="translate(-1421.273 -758.729)" fill="#486da1"></path><path id="Trazado_445" data-name="Trazado 445" d="M1491.438,807.347a.851.851,0,1,1-.851-.851A.851.851,0,0,1,1491.438,807.347Z" transform="translate(-1426.655 -758.729)" fill="#486da1"></path><ellipse id="Elipse_87" data-name="Elipse 87" cx="0.851" cy="0.851" rx="0.851" ry="0.851" transform="translate(73.594 47.767)" fill="#486da1"></ellipse><path id="Trazado_446" data-name="Trazado 446" d="M1523.229,807.347a.851.851,0,1,1-.851-.851A.851.851,0,0,1,1523.229,807.347Z" transform="translate(-1437.419 -758.729)" fill="#486da1"></path><path id="Trazado_452" data-name="Trazado 452" d="M1396.065,825.4a.851.851,0,1,1-.851-.851A.851.851,0,0,1,1396.065,825.4Z" transform="translate(-1394.363 -764.843)" fill="#486da1"></path><circle id="Elipse_93" data-name="Elipse 93" cx="0.851" cy="0.851" r="0.851" transform="translate(10.513 59.708)" fill="#486da1"></circle><path id="Trazado_453" data-name="Trazado 453" d="M1427.856,825.4a.851.851,0,1,1-.851-.851A.851.851,0,0,1,1427.856,825.4Z" transform="translate(-1405.127 -764.843)" fill="#486da1"></path><path id="Trazado_454" data-name="Trazado 454" d="M1443.752,825.4a.851.851,0,1,1-.851-.851A.851.851,0,0,1,1443.752,825.4Z" transform="translate(-1410.509 -764.843)" fill="#486da1"></path><circle id="Elipse_94" data-name="Elipse 94" cx="0.851" cy="0.851" r="0.851" transform="translate(42.054 59.708)" fill="#486da1"></circle><path id="Trazado_455" data-name="Trazado 455" d="M1475.542,825.4a.851.851,0,1,1-.851-.851A.851.851,0,0,1,1475.542,825.4Z" transform="translate(-1421.273 -764.843)" fill="#486da1"></path><path id="Trazado_456" data-name="Trazado 456" d="M1491.438,825.4a.851.851,0,1,1-.851-.851A.851.851,0,0,1,1491.438,825.4Z" transform="translate(-1426.655 -764.843)" fill="#486da1"></path><circle id="Elipse_95" data-name="Elipse 95" cx="0.851" cy="0.851" r="0.851" transform="translate(73.594 59.708)" fill="#486da1"></circle><path id="Trazado_457" data-name="Trazado 457" d="M1523.229,825.4a.851.851,0,1,1-.851-.851A.851.851,0,0,1,1523.229,825.4Z" transform="translate(-1437.419 -764.843)" fill="#486da1"></path><path id="Trazado_463" data-name="Trazado 463" d="M1396.065,843.457a.851.851,0,1,1-.851-.851A.851.851,0,0,1,1396.065,843.457Z" transform="translate(-1394.363 -770.956)" fill="#486da1"></path><ellipse id="Elipse_101" data-name="Elipse 101" cx="0.851" cy="0.851" rx="0.851" ry="0.851" transform="translate(10.513 71.65)" fill="#486da1"></ellipse><path id="Trazado_464" data-name="Trazado 464" d="M1427.856,843.457a.851.851,0,1,1-.851-.851A.851.851,0,0,1,1427.856,843.457Z" transform="translate(-1405.127 -770.956)" fill="#486da1"></path><path id="Trazado_465" data-name="Trazado 465" d="M1443.752,843.457a.851.851,0,1,1-.851-.851A.852.852,0,0,1,1443.752,843.457Z" transform="translate(-1410.509 -770.956)" fill="#486da1"></path><ellipse id="Elipse_102" data-name="Elipse 102" cx="0.851" cy="0.851" rx="0.851" ry="0.851" transform="translate(42.054 71.65)" fill="#486da1"></ellipse><path id="Trazado_466" data-name="Trazado 466" d="M1475.542,843.457a.851.851,0,1,1-.851-.851A.851.851,0,0,1,1475.542,843.457Z" transform="translate(-1421.273 -770.956)" fill="#486da1"></path><path id="Trazado_467" data-name="Trazado 467" d="M1491.438,843.457a.851.851,0,1,1-.851-.851A.851.851,0,0,1,1491.438,843.457Z" transform="translate(-1426.655 -770.956)" fill="#486da1"></path><ellipse id="Elipse_103" data-name="Elipse 103" cx="0.851" cy="0.851" rx="0.851" ry="0.851" transform="translate(73.594 71.65)" fill="#486da1"></ellipse><path id="Trazado_468" data-name="Trazado 468" d="M1523.229,843.457a.851.851,0,1,1-.851-.851A.851.851,0,0,1,1523.229,843.457Z" transform="translate(-1437.419 -770.956)" fill="#486da1"></path><path id="Trazado_474" data-name="Trazado 474" d="M1396.065,861.512a.851.851,0,1,1-.851-.851A.851.851,0,0,1,1396.065,861.512Z" transform="translate(-1394.363 -777.069)" fill="#486da1"></path><ellipse id="Elipse_109" data-name="Elipse 109" cx="0.851" cy="0.851" rx="0.851" ry="0.851" transform="translate(10.513 83.592)" fill="#486da1"></ellipse><path id="Trazado_475" data-name="Trazado 475" d="M1427.856,861.512a.851.851,0,1,1-.851-.851A.851.851,0,0,1,1427.856,861.512Z" transform="translate(-1405.127 -777.069)" fill="#486da1"></path><path id="Trazado_476" data-name="Trazado 476" d="M1443.752,861.512a.851.851,0,1,1-.851-.851A.851.851,0,0,1,1443.752,861.512Z" transform="translate(-1410.509 -777.069)" fill="#486da1"></path><ellipse id="Elipse_110" data-name="Elipse 110" cx="0.851" cy="0.851" rx="0.851" ry="0.851" transform="translate(42.054 83.592)" fill="#486da1"></ellipse><path id="Trazado_477" data-name="Trazado 477" d="M1475.542,861.512a.851.851,0,1,1-.851-.851A.851.851,0,0,1,1475.542,861.512Z" transform="translate(-1421.273 -777.069)" fill="#486da1"></path><path id="Trazado_478" data-name="Trazado 478" d="M1491.438,861.512a.851.851,0,1,1-.851-.851A.851.851,0,0,1,1491.438,861.512Z" transform="translate(-1426.655 -777.069)" fill="#486da1"></path><ellipse id="Elipse_111" data-name="Elipse 111" cx="0.851" cy="0.851" rx="0.851" ry="0.851" transform="translate(73.594 83.592)" fill="#486da1"></ellipse><path id="Trazado_479" data-name="Trazado 479" d="M1523.229,861.512a.851.851,0,1,1-.851-.851A.851.851,0,0,1,1523.229,861.512Z" transform="translate(-1437.419 -777.069)" fill="#486da1"></path><path id="Trazado_702" data-name="Trazado 702" d="M1443.752,861.512a.851.851,0,1,1-.851-.851A.851.851,0,0,1,1443.752,861.512Z" transform="translate(-1410.509 -777.069)" fill="#486da1"></path></g></svg> 