<?xml version="1.0" encoding="UTF-8"?> <svg xmlns="http://www.w3.org/2000/svg" width="49.172" height="47.405" viewBox="0 0 49.172 47.405"><g id="equidad-fit" opacity="0.61"><g id="Grupo_17" data-name="Grupo 17" transform="translate(14.424 0)"><path id="Trazado_61" data-name="Trazado 61" d="M45.376.2a10.848,10.848,0,0,1,9.348,10.759,8.348,8.348,0,0,1-.235,2.116C51.256,12.252,45.2,9.842,45.2,2.728A24.184,24.184,0,0,1,45.376.2Z" transform="translate(-33.03 -0.141)" fill="#486da1"></path><path id="Trazado_62" data-name="Trazado 62" d="M33.965,2.728c0-1.058-.059-1.881-.118-2.528A10.848,10.848,0,0,0,24.5,10.959a8.348,8.348,0,0,0,.235,2.116C27.91,12.311,33.965,9.842,33.965,2.728Z" transform="translate(-24.5 -0.141)" fill="#486da1"></path><path id="Trazado_63" data-name="Trazado 63" d="M37.471,2.863c0-1.176.059-2.058.118-2.763H36.178a27.123,27.123,0,0,1,.176,2.763c0,10.818-5,13.875-8.054,14.7a11.01,11.01,0,0,0,8.584,4.233,10.835,10.835,0,0,0,8.584-4.233C42.469,16.738,37.471,13.681,37.471,2.863Z" transform="translate(-26.066 -0.1)" fill="#486da1"></path></g><g id="Grupo_18" data-name="Grupo 18" transform="translate(0 26.633)"><path id="Trazado_64" data-name="Trazado 64" d="M7.041,54.327s.588-3.234-3.292-3.527c0,0-3.88-.118-3.763,3.175,0,0-.529,3.116,3.821,3.234A3.9,3.9,0,0,0,6.688,55.8H6.1a3.5,3.5,0,0,1-2.41.764s-2.41.059-2.234-2.175l5.585-.059ZM1.4,53.622c-.118-2,2.058-2.116,2.058-2.116,2.646.059,2.293,2.116,2.293,2.116Z" transform="translate(0.034 -47.625)" fill="#486da1"></path><path id="Trazado_65" data-name="Trazado 65" d="M21.349,54.234a2.926,2.926,0,0,0-.823-2.293A4.527,4.527,0,0,0,17.7,51a4.285,4.285,0,0,0-2.822,1.058A2.925,2.925,0,0,0,14,54.234a3.3,3.3,0,0,0,.529,2,3.86,3.86,0,0,0,3.057,1.235,1.334,1.334,0,0,1,1,.941V60H20V58.819a1.063,1.063,0,0,0-.412-1,3.182,3.182,0,0,0-.882-.47h-.059a3.447,3.447,0,0,0,1.881-1A2.628,2.628,0,0,0,21.349,54.234Zm-1.7,1.646a2.428,2.428,0,0,1-1.94.882,2.161,2.161,0,0,1-1.94-1,3.255,3.255,0,0,1-.353-1.529,2.488,2.488,0,0,1,.47-1.646,2.374,2.374,0,0,1,1.823-.882,2.649,2.649,0,0,1,1.764.705A2.623,2.623,0,0,1,20,54.175,2.718,2.718,0,0,1,19.644,55.88Z" transform="translate(-5.749 -47.708)" fill="#486da1"></path><rect id="Rectángulo_3" data-name="Rectángulo 3" width="1.411" height="6.467" transform="translate(24.536 3.234)" fill="#486da1"></rect><ellipse id="Elipse_2" data-name="Elipse 2" cx="0.882" cy="0.941" rx="0.882" ry="0.941" transform="translate(24.36 0.118)" fill="#486da1"></ellipse><path id="Trazado_66" data-name="Trazado 66" d="M28.5,50.9h1.529v3.939s-.176,2.058,1.7,1.881a1.685,1.685,0,0,0,1.7-1.881v-3.88h1.411v3.527s.118,2.822-3.175,2.822a2.839,2.839,0,0,1-3.116-2.41Z" transform="translate(-11.724 -47.666)" fill="#486da1"></path><path id="Trazado_67" data-name="Trazado 67" d="M53.067,52.226V45.7H51.6v3.586a4,4,0,0,0-1.823-.47,3.578,3.578,0,0,0-2.352.823,3.111,3.111,0,0,0-.823,2.41,3.652,3.652,0,0,0,.588,2.234,3.177,3.177,0,0,0,2.587,1.058,3.508,3.508,0,0,0,2.763-1.117A3.6,3.6,0,0,0,53.067,52.226ZM51.421,53.7a1.684,1.684,0,0,1-1.587.882,1.564,1.564,0,0,1-1.47-.823,3.849,3.849,0,0,1-.294-1.7,3.194,3.194,0,0,1,.412-1.881,1.852,1.852,0,0,1,1.352-.647,1.59,1.59,0,0,1,1.352.647,3.194,3.194,0,0,1,.412,1.881A3.749,3.749,0,0,1,51.421,53.7Z" transform="translate(-19.183 -45.524)" fill="#486da1"></path><path id="Trazado_68" data-name="Trazado 68" d="M79.067,51.926V45.4H77.6v3.586a4.075,4.075,0,0,0-1.823-.529,3.578,3.578,0,0,0-2.352.823,3.111,3.111,0,0,0-.823,2.41,3.653,3.653,0,0,0,.588,2.234,3.177,3.177,0,0,0,2.587,1.058,3.508,3.508,0,0,0,2.763-1.117A3.36,3.36,0,0,0,79.067,51.926ZM77.421,53.4a1.684,1.684,0,0,1-1.587.882,1.564,1.564,0,0,1-1.47-.823,3.849,3.849,0,0,1-.294-1.7,3.194,3.194,0,0,1,.412-1.881,1.852,1.852,0,0,1,1.352-.647,1.59,1.59,0,0,1,1.352.647,3.194,3.194,0,0,1,.412,1.881A3.05,3.05,0,0,1,77.421,53.4Z" transform="translate(-29.897 -45.4)" fill="#486da1"></path><path id="Trazado_69" data-name="Trazado 69" d="M65.967,54.216a3.17,3.17,0,0,0-.764-2.352,3.866,3.866,0,0,0-2.469-.764,4.025,4.025,0,0,0-2.469.823,2.887,2.887,0,0,0-.764,2.293,3.21,3.21,0,0,0,.588,2.117,3.457,3.457,0,0,0,2.646,1c.823,0,1.352-.647,1.823-1.293v1.352h1.352l.059-2.763C66.026,54.627,65.967,54.334,65.967,54.216Zm-1.646,1.646a1.772,1.772,0,0,1-1.646.882,1.714,1.714,0,0,1-1.529-.823,3.837,3.837,0,0,1-.353-1.7,2.826,2.826,0,0,1,.47-1.881,1.976,1.976,0,0,1,1.411-.647,1.7,1.7,0,0,1,1.411.647,3.206,3.206,0,0,1,.47,1.881A3.737,3.737,0,0,1,64.321,55.862Z" transform="translate(-24.499 -47.749)" fill="#486da1"></path><path id="Trazado_70" data-name="Trazado 70" d="M28.4,67.5l.353-.353a1.789,1.789,0,0,0,2.175,1.117c.353-.059,1.058-.529.764-1.117-.118-.176-.353-.47-1.47-.941,0,0-1.47-.706-.647-1.646a3.175,3.175,0,0,1,3.234-.588l-.294.353s-1.7-.529-2.528.353c-.176.235-.235.647.823,1.058,0,0,1.47.588,1.529,1.235.059.47-.176,2-2.293,1.764A1.914,1.914,0,0,1,28.4,67.5Z" transform="translate(-11.683 -52.975)" fill="#486da1"></path><path id="Trazado_71" data-name="Trazado 71" d="M76.1,67.4l.353-.353a1.789,1.789,0,0,0,2.175,1.117c.353-.059,1.058-.529.764-1.117-.118-.176-.353-.47-1.47-.941,0,0-1.47-.705-.647-1.646a3.175,3.175,0,0,1,3.234-.588l-.294.353s-1.7-.529-2.528.353c-.176.235-.235.647.823,1.058,0,0,1.47.588,1.529,1.235.059.47-.176,2-2.293,1.764A1.914,1.914,0,0,1,76.1,67.4Z" transform="translate(-31.339 -52.933)" fill="#486da1"></path><path id="Trazado_72" data-name="Trazado 72" d="M40.965,64.717s.941-1.117-.882-1.117a4.082,4.082,0,0,0-3.234,3.116S36.2,69.009,38.79,68.3a7.1,7.1,0,0,0,2.116-1.235l-.353-.059s-2,1.47-2.763.882a1.113,1.113,0,0,1-.176-1.176A8.6,8.6,0,0,0,40.965,64.717Zm-.764-.705s1.47.118-.823,1.411a6.514,6.514,0,0,1-1.7.705C37.732,66.187,38.613,64.129,40.2,64.012Z" transform="translate(-15.135 -52.9)" fill="#486da1"></path><path id="Trazado_73" data-name="Trazado 73" d="M47.55,62.494l-.412-.294s-.235,1.117-1.176.823c-.059,0-.118-.059-.176-.059h0a2.278,2.278,0,0,0-1.823.529c-.882.647-1.235,1.7-.764,2.293.059.118.176.176.235.235a11.237,11.237,0,0,0-1.235.823c-.176.176-.705.764.706,1,0,0,2.7.118,2.587,1.47a3.159,3.159,0,0,1-2.41,3s-2.41.353-3-1.058a1.371,1.371,0,0,1-.118-.647c.059-.235.235-.176.412-.176.235,0,.47-.647-.294-.647a.66.66,0,0,0-.706.647c-.118.529,0,2,2.116,2.528a3.408,3.408,0,0,0,4.233-2.116s1.411-2.646-1.058-3.234a7.951,7.951,0,0,0-1.7-.235s-.823,0-.118-.412l1.411-.706a3.576,3.576,0,0,0,1.352-.529,2.435,2.435,0,0,0,.882-1.235h0a1.809,1.809,0,0,0,.176-1A1.44,1.44,0,0,0,47.55,62.494Zm-2.116,2.822c-.647.47-1.411.529-1.764.118s-.059-1.176.529-1.646c.647-.47,1.411-.529,1.764-.118S46.022,64.846,45.434,65.316Z" transform="translate(-16.194 -52.323)" fill="#486da1"></path><path id="Trazado_74" data-name="Trazado 74" d="M54.312,64.388a24.392,24.392,0,0,0-1.176,2.646s-.529,1.235.235.941a6.269,6.269,0,0,0,1.587-1.058,5.254,5.254,0,0,0,1.352-1.587,9.62,9.62,0,0,0,.412-1.235.483.483,0,0,1,.294-.294c.176,0,.412.118.294.235,0,0-1.058,2.469-.882,3.527,0,0,0,.353.118.47a2.94,2.94,0,0,0-.412.294s-.647-.118-.235-1.881c0,0-1.823,2-2.94,2-.412,0-.823-.176-.529-1.117s1.058-3.234,1.646-3.292C54.312,64.094,54.37,64.212,54.312,64.388Z" transform="translate(-21.544 -52.982)" fill="#486da1"></path><path id="Trazado_75" data-name="Trazado 75" d="M60.693,68.283s1.117-3.175,1.352-3.763c0,0,.118-.412.47-.353,0,0,.353-.059.235.294l-.647,1.47s1.7-1.823,2.528-1.94c0,0,.882-.176.529.764a1.53,1.53,0,0,1-.647.705s-.235-.118.118-.412c0,0,.412-.529-.118-.529a6.533,6.533,0,0,0-2.7,2.469,4.761,4.761,0,0,0-.529,1.352s-.059.176-.412.176C60.87,68.518,60.635,68.459,60.693,68.283Z" transform="translate(-24.987 -53.056)" fill="#486da1"></path><path id="Trazado_76" data-name="Trazado 76" d="M72.51,64.2a1.874,1.874,0,0,0-1.411-.235,3.366,3.366,0,0,0-1.764,1.058c-1.117,1.117-1.587,2.528-.941,3.116s2,.118,3.175-1C72.686,66.025,73.1,64.85,72.51,64.2Zm-1.293,2.822a3.408,3.408,0,0,1-1.587,1,.934.934,0,0,1-.823-.235c-.47-.47-.118-1.529.764-2.352.882-.882,1.94-1.176,2.352-.764C72.392,65.085,72.1,66.143,71.216,67.025Z" transform="translate(-28.043 -53.032)" fill="#486da1"></path></g></g></svg> 