<?xml version="1.0" encoding="UTF-8"?> <svg xmlns="http://www.w3.org/2000/svg" width="713.646" height="267.471" viewBox="0 0 713.646 267.471"><g id="Grupo_34" data-name="Grupo 34" opacity="0.03"><path id="Trazado_138" data-name="Trazado 138" d="M-736.8,828.134c-11.615,8.13-22.821,11.99-35.481,11.743-24.989-.489-43.738-17.469-45.464-42.51-1.849-26.829-.381-53.729-.814-80.595-.05-3.079,1.144-3.85,4-3.794,7.647.151,15.31.293,22.946-.046,4.112-.182,4.694,1.482,4.673,5.041-.138,22.536.022,45.074-.108,67.612-.066,11.433,3.271,20.856,14.491,25.668,9.936,4.26,26.262.656,33.591-6.822,2.089-2.132,1.576-4.568,1.579-6.965.037-26.26.149-52.52-.094-78.777-.042-4.671,1.162-6.036,5.811-5.77,7.213.413,14.471.228,21.7.052,2.928-.072,3.893.8,3.887,3.813q-.134,58.307,0,116.617c.008,3.046-1.011,3.865-3.909,3.788a178.958,178.958,0,0,0-19.837.07C-735.916,837.773-738.872,836.2-736.8,828.134Z" transform="translate(1166.604 -641.75)" fill="#486da1"></path><path id="Trazado_139" data-name="Trazado 139" d="M-950.787,841.22c-16.759-.64-31.535-5.8-43.147-18.517-2.533-2.774-3.019-4.628.154-7.383a158.937,158.937,0,0,0,12.728-12.683c2.286-2.491,3.51-2.183,5.744.222,8.562,9.22,19.1,13.566,31.766,11.291,4.778-.858,9.456-2.539,10.337-8.271.864-5.626-2.629-8.722-7.157-11.068-6.821-3.532-14.175-5.6-21.42-7.979-9.3-3.054-18.02-7.112-25.071-14.192-14.308-14.365-13.789-35.811,1.263-49.453,21.588-19.567,62.979-16.226,81.2,6.476,1.25,1.559,1.711,2.487.133,4.063-4.971,4.96-9.885,9.979-14.689,15.1-2.84,3.026-3.849-.129-5.22-1.441-8.491-8.123-18.028-13.09-30.18-10.153a22.583,22.583,0,0,0-6.279,2.521c-6.913,4.161-7.148,10.761-.447,15.3,6.044,4.1,13.025,6.133,19.937,8.246,9.745,2.977,19.006,6.959,26.792,13.713,17.961,15.574,16.757,40.224-2.574,54.092C-925.63,837.354-939.642,841.551-950.787,841.22Z" transform="translate(1123.564 -642.358)" fill="#486da1"></path><path id="Trazado_140" data-name="Trazado 140" d="M-861.544,710.208c18.161.439,32.587,5.953,44.337,18.064,2.516,2.593,3.217,4.186.19,6.9a157.353,157.353,0,0,0-12.161,12.386c-2.416,2.707-3.8,3.038-6.6.091-8.115-8.524-17.85-13.34-30.029-10.36a21.741,21.741,0,0,0-6.79,2.843c-6.4,4.254-6.365,10.732.048,14.988,6.092,4.043,13.06,6.106,19.969,8.241,9.544,2.949,18.559,6.9,26.334,13.368,17.776,14.794,17.433,39.209-.808,53.4-22.548,17.545-60.789,13.587-78.929-8.057-1.991-2.374-2.27-3.85.181-6.085,4.427-4.037,8.665-8.305,12.722-12.716,2.428-2.64,3.764-3.154,6.64-.067,8.211,8.815,18.415,13.1,30.68,11.094,5.078-.833,9.952-2.4,11.091-8.256,1.172-6.02-3-8.992-7.59-11.4-6.614-3.465-13.795-5.418-20.842-7.733-9.092-2.986-17.7-6.849-24.661-13.716-16.156-15.933-14.151-39.96,4.459-52.991C-883.3,713.2-871.959,710.655-861.544,710.208Z" transform="translate(1144.912 -642.395)" fill="#486da1"></path><path id="Trazado_141" data-name="Trazado 141" d="M-675.98,725.194c19.147-22.6,39.41-16.165,54.49-1.847,2.233,2.12,3.155,3.692,1.113,6.663-4.438,6.462-8.515,13.176-12.594,19.876-1.448,2.379-2.647,2.789-4.593.565a43.129,43.129,0,0,0-4.155-3.708c-15.341-13.5-30.729-3.132-33.938,13.1a51.8,51.8,0,0,0-.633,9.872c-.052,20.88-.148,41.76.072,62.637.046,4.347-1.167,5.7-5.516,5.483-7.218-.354-14.473-.281-21.7-.02-3.633.132-4.467-1.184-4.458-4.609q.16-57.676.007-115.353c-.007-3.173.8-4.387,4.144-4.285,7.229.221,14.487.381,21.7-.046,4.7-.278,6.457,1.154,5.776,5.812C-676.494,720.888-676.133,722.53-675.98,725.194Z" transform="translate(1193.317 -642.355)" fill="#486da1"></path><path id="Trazado_142" data-name="Trazado 142" d="M-525.392,703.019l-35.5-3.913c-.045-.6-.236-1.077-.08-1.37,4.67-8.788,4.735-8.922-4.861-13.107q-101.919-44.453-200.437,7.175c-2.98,1.557-4.978,2.866-7.127-1.345-1.658-3.25-1.088-4.349,1.87-5.953a234.138,234.138,0,0,1,98.491-28.491c40.666-2.477,79.3,5.384,115.9,23.033,5.024,2.421,7.675,2.093,9.869-2.843,1.862-4.187,3.531-4.854,6.091-.177C-536.329,684.872-531.017,693.462-525.392,703.019Z" transform="translate(1177.305 -655.568)" fill="#486da1"></path><path id="Trazado_143" data-name="Trazado 143" d="M-755.03,864.038l-18.462-31.348,35.981,3.95c-5,10.287-5.059,10.419,5.126,14.8q101.329,43.56,199.3-7.182c2.083-1.08,4.311-4.513,7.046-.057,2.246,3.661,1.876,5.407-2,7.417-69.33,35.9-139.644,38.289-210.987,6.38-8.73-3.9-8.644-4.086-14.266,4.164A22.264,22.264,0,0,1-755.03,864.038Z" transform="translate(1177.503 -612.869)" fill="#486da1"></path><path id="Trazado_144" data-name="Trazado 144" d="M-564.533,710.156c-36.26.037-66.318,29.766-66.315,65.587,0,36.08,29.727,65.336,66.33,65.288,37.046-.05,66.245-28.728,66.274-65.094C-498.213,738.993-527.312,710.117-564.533,710.156Zm-.293,102.976c-19.422-.182-34.559-16.849-34.426-37.9s15.361-36.99,35.256-36.908c19.27.078,34.946,17.116,34.719,37.733C-529.5,796.576-545.551,813.313-564.826,813.132Z" transform="translate(1211.89 -642.408)" fill="#486da1"></path><path id="Trazado_145" data-name="Trazado 145" d="M-992.393,756.88c-1.31-18.391-9.811-32.6-26.846-40.893-22.071-10.75-54.545-5.587-73.129,11.3-2.815,2.558-2.325,3.963.006,6.178,4.2,3.985,8.354,8.032,12.241,12.314,2.264,2.495,3.8,2.658,6.5.439,9-7.378,19.526-9.4,30.874-7.77,10.665,1.531,18.67,9.267,19.651,18.574.341,3.232-.451,4.505-3.842,4.386-5.575-.2-11.166-.186-16.743-.021-12.943.385-25.479,2.573-36.753,9.426-14.87,9.04-21.325,24.443-17.532,41.479,3.508,15.76,15.8,26.337,32.919,28.089,14.523,1.485,28.369-.8,41.315-8.416,1.28,2.23-.655,6.186,4.264,5.9,8.037-.462,16.123-.256,24.181-.061,3.191.077,3.774-1.313,3.734-4.062C-991.915,808.12-990.569,782.464-992.393,756.88Zm-40.983,54.719c-7.069,2.708-14.334,3.927-21.858,2.589-6.687-1.19-11.738-6.179-12.494-12.084-.752-5.883,2.428-11.029,8.778-14.28,7.048-3.608,14.745-3.533,23.713-4.046,12.149-.429,12.149-.429,12.149,12.88C-1023.087,807.664-1023.09,807.659-1033.376,811.6Z" transform="translate(1099.027 -642.357)" fill="#486da1"></path></g></svg> 