<?xml version="1.0" encoding="UTF-8"?> <svg xmlns="http://www.w3.org/2000/svg" width="84" height="84" viewBox="0 0 84 84"><g id="Grupo_1008" data-name="Grupo 1008" transform="translate(-909 -1425)"><rect id="Rectángulo_237" data-name="Rectángulo 237" width="84" height="84" transform="translate(909 1425)" fill="none"></rect><g id="Grupo_1007" data-name="Grupo 1007" transform="translate(-19.384 -1.227)"><g id="lock" transform="translate(950.382 1422.353)"><g id="Grupo_997" data-name="Grupo 997" transform="translate(0 9.874)"><g id="Grupo_996" data-name="Grupo 996" transform="translate(0 0)"><path id="Trazado_747" data-name="Trazado 747" d="M39.514,9.875a12.189,12.189,0,0,0-12.3,12.175V30H2.226A2.229,2.229,0,0,0,0,32.226v25a2.229,2.229,0,0,0,2.226,2.226H35.939a2.229,2.229,0,0,0,2.226-2.226v-25A2.229,2.229,0,0,0,35.939,30H33.386V22.164a6.1,6.1,0,0,1,5.892-6.121A6.016,6.016,0,0,1,45.4,22.051v4.8A2.349,2.349,0,0,0,47.75,29.2h1.474a2.349,2.349,0,0,0,2.347-2.347V22.2A12.288,12.288,0,0,0,39.514,9.875ZM35.939,31.508a.719.719,0,0,1,.718.718v.983H9.191a.754.754,0,1,0,0,1.509H36.657v3.429H32.263a.754.754,0,0,0,0,1.509h4.394v4.319H32.263a.754.754,0,0,0,0,1.509h4.394V49.8H32.263a.754.754,0,0,0,0,1.509h4.394v3.429H31.694a.754.754,0,0,0,0,1.509h4.962v.983a.718.718,0,0,1-.718.718H2.226a.719.719,0,0,1-.718-.718v-.983H28.185a.754.754,0,1,0,0-1.509H1.509V51.309H5.9a.754.754,0,0,0,0-1.509H1.509V45.482H5.9a.754.754,0,0,0,0-1.509H1.509V39.655H5.9a.754.754,0,0,0,0-1.509H1.509V34.717H5.681a.754.754,0,1,0,0-1.509H1.509v-.983a.718.718,0,0,1,.718-.718Zm13.285-3.817H47.75a.839.839,0,0,1-.838-.838v-4.8a7.525,7.525,0,0,0-7.662-7.516,7.613,7.613,0,0,0-7.372,7.629V30h-3.15V22.051A10.68,10.68,0,0,1,39.394,11.383H39.5A10.775,10.775,0,0,1,50.062,22.2v4.657h0A.839.839,0,0,1,49.224,27.691Z" transform="translate(0 -9.874)" fill="#26528f"></path></g></g><g id="Grupo_999" data-name="Grupo 999" transform="translate(15.004 38.146)"><g id="Grupo_998" data-name="Grupo 998" transform="translate(0 0)"><path id="Trazado_748" data-name="Trazado 748" d="M153.041,290.561a4.078,4.078,0,0,0-2.389,7.384v3.39a2.389,2.389,0,1,0,4.778,0v-3.39a4.078,4.078,0,0,0-2.389-7.384Zm1.263,6.316a.754.754,0,0,0-.383.657v3.8a.88.88,0,1,1-1.761,0v-3.8a.755.755,0,0,0-.383-.657,2.57,2.57,0,1,1,2.526,0Z" transform="translate(-148.962 -290.561)" fill="#26528f"></path></g></g></g><circle id="Elipse_190" data-name="Elipse 190" cx="34.387" cy="34.387" r="34.387" transform="translate(936.384 1436.227)" fill="#26528f" opacity="0.196"></circle></g></g></svg> 