<?xml version="1.0" encoding="UTF-8"?> <svg xmlns="http://www.w3.org/2000/svg" width="84" height="84" viewBox="0 0 84 84"><g id="Grupo_1010" data-name="Grupo 1010" transform="translate(-113 -1425)"><rect id="Rectángulo_235" data-name="Rectángulo 235" width="84" height="84" transform="translate(113 1425)" fill="none"></rect><g id="Grupo_1005" data-name="Grupo 1005" transform="translate(-0.384 -0.112)"><circle id="Elipse_188" data-name="Elipse 188" cx="34.387" cy="34.387" r="34.387" transform="translate(121.384 1436.227)" fill="#26528f" opacity="0.196"></circle><g id="money" transform="translate(126.127 1429.112)"><path id="Trazado_724" data-name="Trazado 724" d="M56.4,38.89V32.963A2.972,2.972,0,0,0,53.439,30H10.963A2.972,2.972,0,0,0,8,32.963V58.647a2.972,2.972,0,0,0,2.963,2.963H53.439A2.972,2.972,0,0,0,56.4,58.647V52.72a4.939,4.939,0,0,0,4.939-4.939V43.829A4.939,4.939,0,0,0,56.4,38.89ZM54.427,58.647a.988.988,0,0,1-.988.988H10.963a.988.988,0,0,1-.988-.988V32.963a.988.988,0,0,1,.988-.988H53.439a.988.988,0,0,1,.988.988V38.89H48.5a4.939,4.939,0,0,0-4.939,4.939v3.951A4.939,4.939,0,0,0,48.5,52.72h5.927Zm4.939-10.866A2.972,2.972,0,0,1,56.4,50.744H48.5a2.972,2.972,0,0,1-2.963-2.963V43.829A2.972,2.972,0,0,1,48.5,40.866h7.9a2.972,2.972,0,0,1,2.963,2.963Z" transform="translate(-2.073 -2.341)" fill="#26528f"></path><path id="Trazado_725" data-name="Trazado 725" d="M50.963,43a2.963,2.963,0,1,0,2.963,2.963A2.963,2.963,0,0,0,50.963,43Zm0,3.951a.988.988,0,1,1,.988-.988A.988.988,0,0,1,50.963,46.951Z" transform="translate(-2.561 -2.5)" fill="#26528f"></path><path id="Trazado_726" data-name="Trazado 726" d="M31.89,7a8.89,8.89,0,1,0,8.89,8.89A8.89,8.89,0,0,0,31.89,7Zm0,15.8A6.915,6.915,0,1,1,38.8,15.89,6.915,6.915,0,0,1,31.89,22.8Z" transform="translate(-2.256 -2.061)" fill="#26528f"></path><path id="Trazado_727" data-name="Trazado 727" d="M32.939,14.939V12.963a.988.988,0,0,1,.988.988H35.9a2.972,2.972,0,0,0-2.963-2.963V10H30.963v.988a2.963,2.963,0,1,0,0,5.927V18.89a.988.988,0,0,1-.988-.988H28a2.972,2.972,0,0,0,2.963,2.963v.988h1.976v-.988a2.963,2.963,0,1,0,0-5.927Zm-1.976,0a.988.988,0,1,1,0-1.976Zm1.976,3.951V16.915a.988.988,0,1,1,0,1.976Z" transform="translate(-2.317 -2.098)" fill="#26528f"></path><path id="Trazado_728" data-name="Trazado 728" d="M10.89,2a8.89,8.89,0,1,0,8.89,8.89A8.89,8.89,0,0,0,10.89,2Zm0,15.8A6.915,6.915,0,1,1,17.8,10.89,6.915,6.915,0,0,1,10.89,17.8Z" transform="translate(-2 -2)" fill="#26528f"></path><path id="Trazado_729" data-name="Trazado 729" d="M11.939,16.854v-.988a2.963,2.963,0,1,0,0-5.927V7.963a.988.988,0,0,1,.988.988H14.9a2.963,2.963,0,0,0-2.963-2.963V5H9.963v.988a2.963,2.963,0,1,0,0,5.927V13.89a.988.988,0,0,1-.988-.988H7a2.963,2.963,0,0,0,2.963,2.963v.988Zm-2.963-7.9a.988.988,0,0,1,.988-.988V9.939A.988.988,0,0,1,8.976,8.951Zm2.963,2.963a.988.988,0,1,1,0,1.976Z" transform="translate(-2.061 -2.037)" fill="#26528f"></path><path id="Trazado_730" data-name="Trazado 730" d="M52.89,2a8.89,8.89,0,1,0,8.89,8.89A8.89,8.89,0,0,0,52.89,2Zm0,15.8A6.915,6.915,0,1,1,59.8,10.89,6.915,6.915,0,0,1,52.89,17.8Z" transform="translate(-2.512 -2)" fill="#26528f"></path><path id="Trazado_731" data-name="Trazado 731" d="M53.939,9.939V7.963a.988.988,0,0,1,.988.988H56.9a2.972,2.972,0,0,0-2.963-2.963V5H51.963v.988a2.963,2.963,0,0,0,0,5.927V13.89a.988.988,0,0,1-.988-.988H49a2.972,2.972,0,0,0,2.963,2.963v.988h1.976v-.988a2.963,2.963,0,1,0,0-5.927Zm-1.976,0a.988.988,0,0,1,0-1.976Zm1.976,3.951V11.915a.988.988,0,1,1,0,1.976Z" transform="translate(-2.573 -2.037)" fill="#26528f"></path><path id="Trazado_732" data-name="Trazado 732" d="M8,22H9.976v1.976H8Z" transform="translate(-2.073 -2.244)" fill="#26528f"></path><path id="Trazado_733" data-name="Trazado 733" d="M8,26H9.976v1.976H8Z" transform="translate(-2.073 -2.293)" fill="#26528f"></path><path id="Trazado_734" data-name="Trazado 734" d="M12,22h1.976v1.976H12Z" transform="translate(-2.122 -2.244)" fill="#26528f"></path><path id="Trazado_735" data-name="Trazado 735" d="M54,22h1.976v1.976H54Z" transform="translate(-2.634 -2.244)" fill="#26528f"></path><path id="Trazado_736" data-name="Trazado 736" d="M54,26h1.976v1.976H54Z" transform="translate(-2.634 -2.293)" fill="#26528f"></path><path id="Trazado_737" data-name="Trazado 737" d="M50,22h1.976v1.976H50Z" transform="translate(-2.585 -2.244)" fill="#26528f"></path><path id="Trazado_738" data-name="Trazado 738" d="M31,26h1.976v1.976H31Z" transform="translate(-2.353 -2.293)" fill="#26528f"></path><path id="Trazado_739" data-name="Trazado 739" d="M13,35h1.976V56.732H13Z" transform="translate(-2.134 -2.402)" fill="#26528f"></path></g></g></g></svg> 