<?xml version="1.0" encoding="UTF-8"?> <svg xmlns="http://www.w3.org/2000/svg" width="84" height="84" viewBox="0 0 84 84"><g id="Grupo_1009" data-name="Grupo 1009" transform="translate(-537 -1425)"><rect id="Rectángulo_236" data-name="Rectángulo 236" width="84" height="84" transform="translate(537 1425)" fill="none"></rect><g id="Grupo_1006" data-name="Grupo 1006" transform="translate(13.616 -1.227)"><g id="report" transform="translate(544.384 1432.227)"><path id="Trazado_740" data-name="Trazado 740" d="M0,47.922a4.812,4.812,0,0,0,4.921,4.66H33.81A4.831,4.831,0,0,0,38.626,48.7a4.74,4.74,0,0,0,4.1-4.6V23.11h2.348a.84.84,0,0,0,.463-.128l4.3-2.79a.845.845,0,0,0,0-1.418l-4.3-2.818a.872.872,0,0,0-.463-.161H42.723V11.169a1.05,1.05,0,0,0-.377-.73L32.569.479a.85.85,0,0,0-.2-.2L32.343.251A.845.845,0,0,0,31.738,0H8.947A4.85,4.85,0,0,0,4.114,3.879,4.756,4.756,0,0,0,0,8.48ZM14.418,21.414V17.492H44.207v3.922Zm31.485-.7V18.255L47.8,19.486ZM32.758,3.055l7.033,7.228h-5.9A1.108,1.108,0,0,1,32.758,9.2ZM8.947,1.7H31.061V9.2a2.805,2.805,0,0,0,2.83,2.782h7.135V15.8H13.612a.927.927,0,0,0-.89.9V16.8L10.2,16.75H10.19a.871.871,0,0,0-.848.874l.027,3.691a.848.848,0,0,0,.848.841h2.5v.125a.87.87,0,0,0,.89.829H15.4l-.012,1.272a1.866,1.866,0,0,0,.506,1.307,1.57,1.57,0,0,0,1.1.5h10.3a.848.848,0,1,0,0-1.7h-10.2c0-.106,0-.053,0-.066L17.1,23.11H41.027V44.1a3.088,3.088,0,0,1-3.19,2.967H8.947A3.117,3.117,0,0,1,5.725,44.1V4.794c0-.043.028-.087.028-.132a.809.809,0,0,0,0-.11A3.1,3.1,0,0,1,8.947,1.7ZM12.721,20.46H11.059l-.036-1.984,1.7.02ZM1.7,8.48A3.1,3.1,0,0,1,4.028,5.621V44.1a4.813,4.813,0,0,0,4.919,4.663h27.92a3.112,3.112,0,0,1-3.057,2.12H4.921A3.117,3.117,0,0,1,1.7,47.922Zm0,0" transform="translate(0 0)" fill="#26528f"></path><path id="Trazado_741" data-name="Trazado 741" d="M89.309,269.7h13.944a.848.848,0,0,0,0-1.7H89.309a.848.848,0,0,0,0,1.7Zm0,0" transform="translate(-79.083 -239.589)" fill="#26528f"></path><path id="Trazado_742" data-name="Trazado 742" d="M89.309,308.7h24.267a.848.848,0,1,0,0-1.7H89.309a.848.848,0,1,0,0,1.7Zm0,0" transform="translate(-79.083 -274.455)" fill="#26528f"></path><path id="Trazado_743" data-name="Trazado 743" d="M89.309,347.7h24.267a.848.848,0,1,0,0-1.7H89.309a.848.848,0,1,0,0,1.7Zm0,0" transform="translate(-79.083 -309.32)" fill="#26528f"></path><path id="Trazado_744" data-name="Trazado 744" d="M89.309,386.7h24.267a.848.848,0,1,0,0-1.7H89.309a.848.848,0,1,0,0,1.7Zm0,0" transform="translate(-79.083 -344.186)" fill="#26528f"></path></g><circle id="Elipse_189" data-name="Elipse 189" cx="34.387" cy="34.387" r="34.387" transform="translate(531.384 1436.227)" fill="#26528f" opacity="0.196"></circle></g></g></svg> 