<?xml version="1.0" encoding="UTF-8"?> <svg xmlns="http://www.w3.org/2000/svg" width="69.224" height="35.117" viewBox="0 0 69.224 35.117"><g id="liberty-fit" opacity="0.61"><g id="Grupo_22" data-name="Grupo 22" transform="translate(0 0)"><path id="Trazado_81" data-name="Trazado 81" d="M26.577,28.451l.106-.958a2.6,2.6,0,0,0-2.183,0l.373.8A5.027,5.027,0,0,1,26.577,28.451Z" transform="translate(-11.454 -12.724)" fill="#486da1"></path><path id="Trazado_82" data-name="Trazado 82" d="M23.273,28.4c-.586.319-.479,1.171-.479,1.171l.745-.586Z" transform="translate(-10.653 -13.259)" fill="#486da1"></path><path id="Trazado_83" data-name="Trazado 83" d="M31.357,29.158c-.586-.426-1.491-.958-1.491-.958l-.266.852a11.969,11.969,0,0,1,1.331.745Z" transform="translate(-13.838 -13.166)" fill="#486da1"></path><path id="Trazado_84" data-name="Trazado 84" d="M25.756,32.994a1.288,1.288,0,0,0-1.171.373c-.106.319.319.532.319.532a.519.519,0,0,0,.426.106c.053-.053-.053-.213-.053-.213-.053-.16.16-.107.16-.107a8.962,8.962,0,0,0,1.065.107c.479.053.373-.213.373-.213A1.778,1.778,0,0,0,25.756,32.994Z" transform="translate(-11.486 -15.404)" fill="#486da1"></path><path id="Trazado_85" data-name="Trazado 85" d="M24.122,13.51a.279.279,0,0,0-.266-.053L20.98,14.521c-.266.16-.319-.213-.319-.213a8.4,8.4,0,0,0-.586-1.225.368.368,0,0,1,0-.479l.905-2.343c.16-.319,0-.426,0-.426-.16-.106-.266.106-.266.106l-1.7,1.384c-.213.213-.213.106-.213.106a7.13,7.13,0,0,0-3.355-2.077c-.213,0-.213-.16-.213-.16L14.7,7.067c-.213-.426-.426.053-.426.053l-.213,1.491c-.106.479-.213.426-.213.426a8.977,8.977,0,0,0-6.23,1.544L6.922,8.664c-.053-.106.106-.213.106-.213a2.462,2.462,0,0,0,.586-1.118,3.221,3.221,0,0,0-.106-1.757c-.319-.639-.213-.8-.213-.8A1.717,1.717,0,0,1,7.4,4.457c0-.319-.426-.373-.426-.373C6.6,4.191,6.6,3.978,6.6,3.978c-.106-.266.266-.426.266-.426.319-.106,1.065-.426,1.065-.426A1.935,1.935,0,0,0,9.106,1.795,1.463,1.463,0,0,0,8.467.2c-.213-.16-.213,0-.213,0A1.228,1.228,0,0,1,6.816.943L6.763.677C6.816.357,6.39.038,6.39.038c-.16-.16-.213,0-.213,0C5.857.57,4.686.357,4.686.357c-2.183-.426-2.982.8-2.982.8A2.073,2.073,0,0,0,1.6,3.446c.213.266.053.319.053.319l-.532.373a.623.623,0,0,0-.532-.053C.692,4.3.426,5.15.426,5.15A3.843,3.843,0,0,0,0,6.694,2.345,2.345,0,0,0,.905,8.5c.213.106.16.213.16.213a.6.6,0,0,0,.426.745.3.3,0,0,0-.106.373,1.1,1.1,0,0,0,.532.8c.266.16.266.8.266.8a1.728,1.728,0,0,0-.213.692c0,.639.479.586.479.586.213,0,.213.266.213.266.16.852,1.651.745,1.651.745l.053,1.651a17.747,17.747,0,0,0-.905,8.307c.852,5.485,3.514,7.561,3.514,7.561.319.106.319-.16.319-.16l.16-.373c3.142-4.846,7.3-5.591,7.3-5.591a18.052,18.052,0,0,0-6.869,6.39c-.16.16,0,.213,0,.213l.692.373c.106.053.16,0,.16,0A16.418,16.418,0,0,1,13.792,26.5a15.185,15.185,0,0,1,7.934-2.556l.16-3.195a12.613,12.613,0,0,0-.426-4.047l2.5-2.716C24.282,13.669,24.122,13.51,24.122,13.51ZM20.235,10.9l-1.97,4.26a7.308,7.308,0,0,0-1.278-1.012ZM14.484,8.238l.958,5.272c-.586-.106-1.651-.16-1.651-.16Zm-2.13,5.591a2.544,2.544,0,0,0-.958,1.065l-2.29-3.94Zm-1.331,3.035-.16.213a4.944,4.944,0,0,0-.053.692c-.266-.16-1.012-.692-1.012-.692v-.852ZM2.449,1.848s.16-.8,1.544-.692c0,0,1.544.16,1.97-.16a3.338,3.338,0,0,1,.053.586,2.342,2.342,0,0,0,2.13-.213s.373.692-.692,1.118c0,0-.586.213-1.278.532,0,0-.692.426-.692.532,0,0-.213-.213-.319-.16a1.49,1.49,0,0,1-.532.266s-.053.106-.8-.426a.554.554,0,0,0-.532.106.877.877,0,0,1-.586.213A1.551,1.551,0,0,1,2.449,1.848ZM.958,6.747a.73.73,0,0,1,.053-.905,1.181,1.181,0,0,0,.213-.692l-.053-.373h.586a1.2,1.2,0,0,0,.426-.532h.958s.106,0,.426-.266c0,0,.266-.213.692.16a.889.889,0,0,0,.479.16,1.874,1.874,0,0,0,.532-.213.4.4,0,0,1,.479.213s-.106.319.319.479H6.6a1.653,1.653,0,0,0,.213,1.065,3.567,3.567,0,0,1,.053.905S6.443,5.1,3.887,5.2C3.834,5.2,1.438,5.1.958,6.747Zm4.313.586A3.411,3.411,0,0,0,3.834,6.8a2.7,2.7,0,0,0-1.384.426,1.216,1.216,0,0,1,1.278-.958C5.325,6.215,5.272,7.333,5.272,7.333ZM2.4,10.049l-.16-.213a.322.322,0,0,1-.053-.426l.266-.373L2.5,8.93H1.917c-.16-.532.16-.532.16-.532V8.185a.266.266,0,0,1,.213-.319s.532-.16.692-.213.213,0,.213,0c.213.532-.266.639-.266.639h.106c.586,0,.532.319.532.319,0,.266-.373.266-.373.266v.479A2.173,2.173,0,0,0,2.4,10.049Zm2.343,2.023c-.106.213-.479,0-.479,0a1.437,1.437,0,0,0-.8-.053,2.13,2.13,0,0,0-.479.16c-.373-.053.053-.639.053-.639l.053-1.6.586-.426c.16-.266.319-.053.319-.053l.586.745.053,1.331A.852.852,0,0,1,4.739,12.072Zm.586,5.059-.266-6.443.319-.266a2.733,2.733,0,0,0-.639-.266L4.686,8.664c.106-.586-.319-.479-.319-.479a.911.911,0,0,1-.639-.373c-.16-.479.266-.426.266-.426l1.278.479a1.627,1.627,0,0,1,.8,1.278l2.29,5.751a5.737,5.737,0,0,1,.745,3.142A6.123,6.123,0,0,1,9.745,19.1,3.489,3.489,0,0,0,7.082,22.03Zm3.94,7.242a8.926,8.926,0,0,1-2.183,5.005,13.789,13.789,0,0,0,.319-4.42S6.922,22.136,8.52,20.7a2.476,2.476,0,0,1,2.662-.8l.905,1.7s-1.651,0-2.13.958C9.9,22.509,9.425,23.148,9.265,24.373Zm.532,2.29s-.426.373-.479.319a2.306,2.306,0,0,1,.053-.266,17.82,17.82,0,0,0,.639-2.822,1.845,1.845,0,0,1,2.023-1.7L13.1,24.426l.373.16C13.579,24.639,11.449,25.544,9.8,26.662Zm4.579-2.183L14.058,23.2l.745-1.225-1.171.213a.507.507,0,0,1-.586-.266L12.94,21.5s-.053-.16.373-.16c0,0,.266-.16.319-.319l-.852-.053s-.106,0-.106-.213l1.065-.053a1.584,1.584,0,0,0-1.012-.266l.479-.532a1.261,1.261,0,0,0-.852-.213l.106-1.331s0-.213-.266-.053l-.319.16v-.745l.426-.479v-.266s.053-.213-.266-.107a2.012,2.012,0,0,0-.692.905s-.373-.266,0-.8l.213-.319v-.639s-.16-1.331,1.757-2.023c0,0,1.7-.532,3.834,1.225a11.148,11.148,0,0,1,1.6,1.6v.319l-.639-.8a1.969,1.969,0,0,0-.532.586l.905.905a1.565,1.565,0,0,1-1.97-.532l-.266-.426s-.053-.106-.319-.16a6.708,6.708,0,0,0-1.384-.319,6.183,6.183,0,0,0-1.225.106h-.905a.954.954,0,0,0,.266.373s.107.213.692.053a2.624,2.624,0,0,1,1.917.319s.479.319,1.118.852a.94.94,0,0,0,.905.479s.16,0,.213-.106a.155.155,0,0,1,.266.053.407.407,0,0,0-.106.266s.053.479.532.053h.319s-.426.958-1.278.852a1.717,1.717,0,0,0-.106.319l1.384,3.248A24.77,24.77,0,0,0,14.377,24.479Zm5.005-1.384-.905-1.757c-.373-.586-.266-.373-.319-.852a1.734,1.734,0,0,1,.426-.639,2.551,2.551,0,0,1,.586-.426v1.225l1.171,2.449Zm.373-5.751a6.944,6.944,0,0,0-.586-1.438l3.781-1.544Z" transform="translate(0 0.033)" fill="#486da1"></path><path id="Trazado_86" data-name="Trazado 86" d="M19.265,32.144a4.945,4.945,0,0,1,.053-.692l.16-.213L18.2,30.6v.852A11.285,11.285,0,0,1,19.265,32.144Z" transform="translate(-8.509 -14.288)" fill="#486da1"></path><path id="Trazado_87" data-name="Trazado 87" d="M35.112,36.5a2.551,2.551,0,0,0-.586.426,3.064,3.064,0,0,0-.426.639c.053.479-.053.266.319.852l.905,1.757h.958l-1.171-2.449A9.151,9.151,0,0,1,35.112,36.5Z" transform="translate(-15.942 -17.046)" fill="#486da1"></path><path id="Trazado_88" data-name="Trazado 88" d="M6.963,18.475l-.586-.745s-.16-.213-.319.053l-.586.426-.053,1.6s-.426.532-.053.639a4.144,4.144,0,0,0,.479-.16,1.437,1.437,0,0,1,.8.053s.373.213.479.053a.852.852,0,0,0-.106-.532Z" transform="translate(-2.437 -8.233)" fill="#486da1"></path><path id="Trazado_89" data-name="Trazado 89" d="M4.5,12.757a3.393,3.393,0,0,1,1.384-.426,3.411,3.411,0,0,1,1.438.532s.053-1.118-1.6-1.065A1.2,1.2,0,0,0,4.5,12.757Z" transform="translate(-2.104 -5.497)" fill="#486da1"></path><path id="Trazado_90" data-name="Trazado 90" d="M4.867,15.625s.319,0,.373-.266c0,0,.053-.319-.532-.319H4.6s.479-.106.266-.639a.412.412,0,0,0-.16.053c-.106.053-.692.213-.692.213s-.266,0-.213.319V15.2s-.373,0-.16.532h.586l-.106.053-.266.319a.322.322,0,0,0,.053.426l.16.213a1.494,1.494,0,0,1,.8-.639v-.479Z" transform="translate(-1.672 -6.714)" fill="#486da1"></path></g><path id="Trazado_91" data-name="Trazado 91" d="M50.3,18.6h3.887v.373s-1.012.053-1.012.692v5.857s0,.692.852.692H55.2s.586,0,1.065-1.171l.213-.479H56.8l-.213,2.183H50.406v-.319a.8.8,0,0,0,.745-.266,1.733,1.733,0,0,0,.16-.692V19.558s.053-.639-1.012-.586V18.6Z" transform="translate(-23.516 -8.678)" fill="#486da1"></path><ellipse id="Elipse_3" data-name="Elipse 3" cx="0.905" cy="0.905" rx="0.905" ry="0.905" transform="translate(34.079 9.443)" fill="#486da1"></ellipse><path id="Trazado_92" data-name="Trazado 92" d="M62.453,23.913l2.5-.213v4.26s-.106.586.373.745l.426.16v.213h-3.3v-.213s.532-.053.692-.319a.77.77,0,0,0,.16-.532V24.765a.6.6,0,0,0-.426-.532,2.194,2.194,0,0,0-.479-.107Z" transform="translate(-29.173 -11.062)" fill="#486da1"></path><path id="Trazado_93" data-name="Trazado 93" d="M74.817,21.387a2.448,2.448,0,0,0-2.929-.213,4.726,4.726,0,0,0-.639.479V17.5l-2.449.266v.213s.692.106.8.586v7.668a16.96,16.96,0,0,0,3.248.16,2.991,2.991,0,0,0,2.662-1.7A3.072,3.072,0,0,0,74.817,21.387Zm-1.065,3.461A1.554,1.554,0,0,1,72.1,25.967c-.8.053-.905-.479-.905-.479V22.4a.726.726,0,0,1,.639-.745,1.318,1.318,0,0,1,1.6.373C74.444,23.091,73.752,24.848,73.752,24.848Z" transform="translate(-32.165 -8.164)" fill="#486da1"></path><path id="Trazado_94" data-name="Trazado 94" d="M86.358,28.5a1.59,1.59,0,0,1-1.438-1.065,2.868,2.868,0,0,1-.266-1.384L88.595,26s-.106-2.343-2.982-2.4A2.958,2.958,0,0,0,82.9,26.209a2.731,2.731,0,0,0,2.822,2.929,2.83,2.83,0,0,0,2.875-1.81h-.319A2.052,2.052,0,0,1,86.358,28.5Zm-.692-4.42c1.065.053,1.118,1.544,1.118,1.544H84.6C84.654,24.4,85.4,24.079,85.666,24.079Z" transform="translate(-38.754 -11.015)" fill="#486da1"></path><path id="Trazado_95" data-name="Trazado 95" d="M63.5,53.639a1.456,1.456,0,0,1-1.384-1.065,2.629,2.629,0,0,1-.266-1.331l3.781-.053a2.557,2.557,0,0,0-2.875-2.29A2.781,2.781,0,0,0,60.2,51.4a2.819,2.819,0,0,0,5.431,1.065h-.266A1.873,1.873,0,0,1,63.5,53.639Zm-.639-4.26c1.065.053,1.065,1.491,1.065,1.491H61.848C61.9,49.7,62.593,49.379,62.859,49.379Z" transform="translate(-28.141 -22.843)" fill="#486da1"></path><path id="Trazado_96" data-name="Trazado 96" d="M86.4,29.9" transform="translate(-40.393 -13.961)" fill="none" stroke="#1d1d1b" stroke-miterlimit="10" stroke-width="1"></path><path id="Trazado_97" data-name="Trazado 97" d="M93.807,23.766l2.5-.266v1.6l.532-.745s.639-1.012,1.491-.692a1.622,1.622,0,0,1,.639.479L98.6,25.577s0,.16-.16.053A1.281,1.281,0,0,0,97,25.1c-.32.106-.745.586-.692.639v2.343s-.053.479.852.745v.213h-3.3v-.213a1.293,1.293,0,0,0,.586-.213.771.771,0,0,0,.213-.479V24.778a.766.766,0,0,0-.479-.586s-.373-.053-.479-.053Z" transform="translate(-43.806 -10.969)" fill="#486da1"></path><path id="Trazado_98" data-name="Trazado 98" d="M97.153,49.113,99.5,48.9v1.491l.532-.692s.586-.958,1.384-.639a1.445,1.445,0,0,1,.586.426l-.373,1.331s0,.16-.16.053a1.193,1.193,0,0,0-1.331-.479c-.319.106-.692.532-.639.586v2.13s-.053.426.8.692v.213H97.206v-.266a1.16,1.16,0,0,0,.532-.213.618.618,0,0,0,.213-.479V50.018a.66.66,0,0,0-.426-.532s-.319-.053-.426-.053Z" transform="translate(-45.395 -22.843)" fill="#486da1"></path><path id="Trazado_99" data-name="Trazado 99" d="M106.4,20.2l-.266.053a14.409,14.409,0,0,1-2.236,2.183v.319h.905V26a1.5,1.5,0,0,0,1.331,1.6,2.138,2.138,0,0,0,2.13-.8l-.16-.213s-.053-.053-.106.053a.819.819,0,0,1-.958.266s-.586-.106-.586-1.065V22.7H108s.373,0,.479.16l.319.479,1.97,4.207s-.639,2.023-1.438,2.29c0,0-.106.266-1.278.053l-.426,1.6a2.368,2.368,0,0,0,2.236-.8,6.784,6.784,0,0,0,.745-1.331l2.556-5.857a1.461,1.461,0,0,1,1.065-1.012v-.266h-2.183v.266a1.1,1.1,0,0,1,.639.319,1.752,1.752,0,0,1-.16.852l-.8,1.917-1.278-2.5s-.16-.319.106-.479a.421.421,0,0,1,.373-.106V22.17h-4.473Z" transform="translate(-48.574 -9.426)" fill="#486da1"></path><path id="Trazado_100" data-name="Trazado 100" d="M50.153,38.2h31.2v.426H50.1Z" transform="translate(-23.422 -17.841)" fill="#486da1"></path><path id="Trazado_101" data-name="Trazado 101" d="M118.053,38.2h6.337v.426l-6.39.053Z" transform="translate(-55.166 -17.841)" fill="#486da1"></path><path id="Trazado_102" data-name="Trazado 102" d="M50.2,58.8" transform="translate(-23.469 -27.472)" fill="#486da1"></path><path id="Trazado_103" data-name="Trazado 103" d="M50.166,51.7V49.3h.266s.16,1.171.8,1.544a1.852,1.852,0,0,0,1.7.319,1.13,1.13,0,0,0,.852-.905s.106-.532-.639-1.118c0,0-.8-.586-1.6-1.065a2.988,2.988,0,0,1-1.331-1.6,2.145,2.145,0,0,1,.745-2.343,2.68,2.68,0,0,1,2.609-.426s.639.16.8-.213h.266v2.13h-.266a1.915,1.915,0,0,0-.8-1.171s-1.118-.8-1.917-.107a.856.856,0,0,0-.053,1.384,6.545,6.545,0,0,0,1.331.958,7.7,7.7,0,0,1,1.757,1.384,2.261,2.261,0,0,1,.373,1.81,2,2,0,0,1-1.7,1.7,5.329,5.329,0,0,1-2.343-.16s-.479-.213-.586.213Z" transform="translate(-23.435 -20.319)" fill="#486da1"></path><path id="Trazado_104" data-name="Trazado 104" d="M77.242,48.8H73.567s-1.81.213-2.13,1.7c0,0-.479,1.491,1.384,2.077,0,0-1.544.319-1.438,1.331,0,0,.053.745,1.438,1.012,0,0-1.6.373-1.757,1.171,0,0-.586,1.6,2.716,1.81,0,0,2.556.213,3.3-1.6a1.668,1.668,0,0,0-1.118-2.183,9.7,9.7,0,0,0-2.5-.426s-.905-.16-.8-.586c0,0,.16-.319.905-.373a4.429,4.429,0,0,0,2.183-.373A2.412,2.412,0,0,0,76.6,51.09a1.694,1.694,0,0,0-.479-1.438h1.118V48.8Zm-2.769,6.443c1.065.106,1.917.586,1.864,1.118a.6.6,0,0,1-.426.586,4.041,4.041,0,0,1-1.651.107c-1.065-.107-1.917-.586-1.864-1.118.053-.319.106-.532.8-.692A5.112,5.112,0,0,1,74.473,55.243Zm.373-3.408a1.023,1.023,0,0,1-.852.479.832.832,0,0,1-.8-.426,2.47,2.47,0,0,1-.213-1.118,2.112,2.112,0,0,1,.213-1.065.932.932,0,0,1,1.6-.053,2.242,2.242,0,0,1,.213,1.065A1.853,1.853,0,0,1,74.845,51.835Z" transform="translate(-33.205 -22.797)" fill="#486da1"></path><path id="Trazado_105" data-name="Trazado 105" d="M83.5,49.013l2.343-.213v3.727a.842.842,0,0,0,.959.8,1.265,1.265,0,0,0,1.065-.852,20.094,20.094,0,0,0,.053-2.449s.106-.532-.745-.692v-.319l2.29-.16v4.1s.053.8.745.692v.373l-2.236.213V53.113a2.031,2.031,0,0,1-2.023,1.065,1.576,1.576,0,0,1-1.6-1.438V49.918a.513.513,0,0,0-.373-.479s-.266-.106-.426-.16C83.5,49.279,83.5,49.013,83.5,49.013Z" transform="translate(-39.037 -22.797)" fill="#486da1"></path><path id="Trazado_106" data-name="Trazado 106" d="M111.978,49.6a3.333,3.333,0,0,0-2.29-.8,2.972,2.972,0,0,0-2.077.692,2.683,2.683,0,0,0-1.012,2.023,2.325,2.325,0,0,0,.639,1.757,2.9,2.9,0,0,0,2.5.852,3.169,3.169,0,0,0,2.343-.905,2.164,2.164,0,0,0,.639-1.651A2.923,2.923,0,0,0,111.978,49.6Zm-1.171,3.461a1.186,1.186,0,0,1-1.065.692,1.205,1.205,0,0,1-1.118-.692,3.556,3.556,0,0,1-.32-1.6,2.9,2.9,0,0,1,.426-1.7,1.371,1.371,0,0,1,1.065-.586,1.152,1.152,0,0,1,1.012.639,4.23,4.23,0,0,1,.319,1.7A3.934,3.934,0,0,1,110.807,53.06Z" transform="translate(-49.836 -22.797)" fill="#486da1"></path><path id="Trazado_107" data-name="Trazado 107" d="M122.721,48.8v1.6h-.266a1.738,1.738,0,0,0-1.6-1.171s-.8.053-.745.586c0,0,.053.426.905.745,0,0,1.7.532,1.917,1.438a1.887,1.887,0,0,1-.958,2.077,2.7,2.7,0,0,1-1.81.053s-.586-.107-.8.16H119.1V52.261l.319.053a2.309,2.309,0,0,0,1.171,1.438,1.1,1.1,0,0,0,1.331-.213s.319-.639-.16-.852a6.735,6.735,0,0,0-1.6-.8s-1.118-.426-1.012-1.438a1.574,1.574,0,0,1,1.491-1.491,4.171,4.171,0,0,1,1.225.106h.426s.213-.053.213-.106Z" transform="translate(-55.68 -22.797)" fill="#486da1"></path></g></svg> 