<?xml version="1.0" encoding="UTF-8"?> <svg xmlns="http://www.w3.org/2000/svg" width="66.223" height="32.336" viewBox="0 0 66.223 32.336"><g id="mapfre-fit" opacity="0.61"><g id="Grupo_23" data-name="Grupo 23" transform="translate(23.594)"><path id="Trazado_125" data-name="Trazado 125" d="M59.694,0a9.541,9.541,0,1,0,9.588,9.541A9.619,9.619,0,0,0,59.694,0Zm0,18.142a8.6,8.6,0,1,1,8.6-8.6A8.605,8.605,0,0,1,59.694,18.142Z" transform="translate(-50.2)" fill="#486da1"></path><path id="Trazado_126" data-name="Trazado 126" d="M69.649,15.323v-.188a5.144,5.144,0,0,0-.658-1.786A6.977,6.977,0,0,0,67.675,11.8a1.4,1.4,0,0,0-1.128-.235,1.759,1.759,0,0,0-.94-.987,6.956,6.956,0,0,0-4.512,0c-.047,0-.094.047-.188.094a1.411,1.411,0,0,0-.752.893,1.444,1.444,0,0,0-1.175.282A6.105,6.105,0,0,0,57.758,13.3a5.144,5.144,0,0,0-.658,1.786v.188a1.436,1.436,0,0,0,.705,1.269,1.488,1.488,0,0,0,.752.188h4.371v2.914h.94V16.733h4.371a1.379,1.379,0,0,0,.752-.188A1.321,1.321,0,0,0,69.649,15.323Zm-7.755.376a.172.172,0,0,1-.235.094H58.51a.6.6,0,0,1-.282-.047.578.578,0,0,1-.235-.47v-.047a4.5,4.5,0,0,1,.564-1.5A4.336,4.336,0,0,1,59.591,12.5h0a.515.515,0,0,1,.517-.047.469.469,0,0,1,.188.235l1.551,2.726C61.941,15.558,61.941,15.652,61.894,15.7Zm1.739,0a.284.284,0,0,1-.282.141.292.292,0,0,1-.282-.188l-1.927-3.337a.679.679,0,0,1-.094-.329.578.578,0,0,1,.329-.517.046.046,0,0,0,.047-.047,5.362,5.362,0,0,1,1.927-.329,6.628,6.628,0,0,1,1.927.329h.047a.624.624,0,0,1,.376.517.679.679,0,0,1-.094.329Zm4.841.094a.6.6,0,0,1-.282.047H65.043a.359.359,0,0,1-.235-.094.21.21,0,0,1,0-.235l1.551-2.726a.469.469,0,0,1,.188-.235.421.421,0,0,1,.517.047h0A4.335,4.335,0,0,1,68.1,13.819a4.5,4.5,0,0,1,.564,1.5v.047C68.756,15.511,68.662,15.7,68.474,15.793Z" transform="translate(-53.857 -5.406)" fill="#486da1"></path></g><g id="Grupo_24" data-name="Grupo 24" transform="translate(0 22.889)"><path id="Trazado_127" data-name="Trazado 127" d="M5.781,53.447,3.478,48.7H0v9.447H3.478v-4.7l2.3,4.7,2.3-4.7v4.7h3.478V48.7H8.084Z" transform="translate(0 -48.7)" fill="#486da1"></path><path id="Trazado_128" data-name="Trazado 128" d="M29.726,48.7,27,58.147h3.478L30.9,56.6h3.713l.423,1.551h3.478L35.789,48.7H29.726Zm1.645,6.345,1.41-4.935,1.41,4.935Z" transform="translate(-14.31 -48.7)" fill="#486da1"></path><path id="Trazado_129" data-name="Trazado 129" d="M60.533,48.7H54v9.447h3.478V54.2h3.055a2.778,2.778,0,0,0,2.773-2.773A2.738,2.738,0,0,0,60.533,48.7Zm-2.209,3.9h-.752v-2.82h.752c.8,0,1.551.423,1.551,1.269A1.535,1.535,0,0,1,58.324,52.6Z" transform="translate(-28.62 -48.7)" fill="#486da1"></path><path id="Trazado_130" data-name="Trazado 130" d="M76.3,58.147h3.478V54.2h5.781V52.648H79.778v-2.4h5.781V48.7H76.3Z" transform="translate(-40.439 -48.7)" fill="#486da1"></path><path id="Trazado_131" data-name="Trazado 131" d="M130.406,50.251V48.7H121.1v9.447h9.306V56.6h-5.781V54.2h5.781V52.648h-5.781v-2.4Z" transform="translate(-64.183 -48.7)" fill="#486da1"></path><path id="Trazado_132" data-name="Trazado 132" d="M107.959,51.05a2.327,2.327,0,0,0-2.35-2.35H98.7v9.4h3.525V54.2h.752a1.565,1.565,0,0,1,1.551,1.551v2.4h3.431V55.7a2.379,2.379,0,0,0-2.35-2.3A2.327,2.327,0,0,0,107.959,51.05ZM102.977,52.6h-.752v-2.82h.752a1.4,1.4,0,0,1,1.551,1.269A1.535,1.535,0,0,1,102.977,52.6Z" transform="translate(-52.311 -48.7)" fill="#486da1"></path></g></g></svg> 