<?xml version="1.0" encoding="UTF-8"?> <svg xmlns="http://www.w3.org/2000/svg" width="80.961" height="19.219" viewBox="0 0 80.961 19.219"><g id="mundial-fit" opacity="0.61"><path id="Trazado_108" data-name="Trazado 108" d="M18.568,9.511A9.284,9.284,0,1,1,9.311.2,9.3,9.3,0,0,1,18.568,9.511ZM9.688,2.945a9.987,9.987,0,0,0-7,2.691,4.961,4.961,0,0,0-.269,7.427,9.474,9.474,0,0,0,13.617.108,4.876,4.876,0,0,0,.108-7.212A9.2,9.2,0,0,0,9.688,2.945Z" transform="translate(0 -0.048)" fill="#486da1"></path><path id="Trazado_109" data-name="Trazado 109" d="M41.154,22v-4.09c0-.161-.054-.323.215-.431a13.42,13.42,0,0,1,4.144-.431,3.134,3.134,0,0,1,1.668.592.422.422,0,0,0,.592,0,5.02,5.02,0,0,1,3.283-.592,2.949,2.949,0,0,1,2.53,2.853,29.178,29.178,0,0,1,.054,3.068v3.068c0,.161.054.323-.215.323h-2.1c-.323,0-.269-.215-.269-.377V21.517a5.866,5.866,0,0,0-.161-1.4,1.244,1.244,0,0,0-1.507-.969,2.331,2.331,0,0,0-.269.054c-.592.161-.592.161-.484.753a7.949,7.949,0,0,1,.054,1.13v4.79c0,.323-.054.377-.377.377h-1.83c-.323,0-.377-.108-.377-.377V21.409a4,4,0,0,0-.161-1.346,1.188,1.188,0,0,0-1.4-1.023c-.861,0-.861,0-.861.861v5.92c0,.323-.054.431-.377.431-.592-.054-1.238,0-1.83,0-.269,0-.377-.108-.377-.377C41.154,24.746,41.154,23.347,41.154,22Z" transform="translate(-18.979 -7.801)" fill="#486da1"></path><path id="Trazado_110" data-name="Trazado 110" d="M108.781,16.947v6.082c0,.323-.054.431-.377.431h-4.037a4.494,4.494,0,1,1,.054-8.988h1.292c.269,0,.377-.108.377-.377v-2.96c0-.323.054-.431.377-.431.646-.054,1.292-.108,1.938-.215.323-.054.431.054.431.377C108.781,12.911,108.781,14.956,108.781,16.947Zm-2.745,2.1V17.109q0-.4-.323-.323H104.69a2.167,2.167,0,0,0-2.153,1.991,2.231,2.231,0,0,0,1.776,2.476,14.612,14.612,0,0,0,1.561.054c.215,0,.215-.161.215-.269C106.036,20.338,106.036,19.692,106.036,19.046Z" transform="translate(-46.132 -4.793)" fill="#486da1"></path><path id="Trazado_111" data-name="Trazado 111" d="M133.655,23.74v2.8c0,.269-.054.323-.323.323h-4.575A3.178,3.178,0,0,1,126.551,26a2.421,2.421,0,0,1-.807-2.422,2.787,2.787,0,0,1,2.1-2.1,3.729,3.729,0,0,1,1.076-.161h2.153c.323,0,.323-.108.269-.377a1.14,1.14,0,0,0-1.184-.807h-2.583c-.377,0-.538-.054-.646-.484a7.349,7.349,0,0,0-.377-1.561c-.054-.108-.054-.215.108-.215a28.059,28.059,0,0,1,4.252.108A3.113,3.113,0,0,1,133.6,21.21C133.655,22.018,133.655,22.879,133.655,23.74Zm-3.445,1.076h.915c.161,0,.269-.054.269-.269V23.363c0-.108,0-.215-.161-.215-.646,0-1.292,0-1.991.054a.774.774,0,0,0-.753.807.826.826,0,0,0,.807.807Z" transform="translate(-58.036 -8.195)" fill="#486da1"></path><path id="Trazado_112" data-name="Trazado 112" d="M74.728,22.182v4.144c0,.161.054.377-.215.377-1.507-.054-3.068.108-4.575-.054a3.2,3.2,0,0,1-3.014-3.229c-.161-1.83-.054-3.714-.054-5.544,0-.269.108-.269.323-.269H69.13c.323,0,.377.108.377.377v3.929a5.909,5.909,0,0,0,.108,1.4,1.18,1.18,0,0,0,1.238,1.023c1.292.108,1.292.108,1.292-1.184V17.931c0-.323.054-.431.431-.431H74.4c.323,0,.377.108.377.377C74.728,19.384,74.728,20.783,74.728,22.182Z" transform="translate(-30.863 -8.037)" fill="#486da1"></path><path id="Trazado_113" data-name="Trazado 113" d="M83.8,22.321V18.177c0-.215,0-.377.323-.377,1.453.054,2.906-.054,4.36.054A3.216,3.216,0,0,1,91.6,20.868c.215,1.938.054,3.821.108,5.759,0,.161-.054.269-.269.269h-2.1c-.269,0-.269-.161-.269-.323V22.805a8.761,8.761,0,0,0-.161-1.668,1.163,1.163,0,0,0-1.292-1.076H86.76c-.323-.054-.377.108-.377.377v5.974c0,.377-.108.484-.431.431-.592-.054-1.184,0-1.776,0-.323,0-.377-.108-.377-.377C83.8,25.066,83.8,23.667,83.8,22.321Z" transform="translate(-38.698 -8.175)" fill="#486da1"></path><path id="Trazado_114" data-name="Trazado 114" d="M142.988,15.928V10.707c0-.323.054-.377.377-.323.592.108,1.184.215,1.83.269.377.054.377.161.377.484v8.934a1.831,1.831,0,0,0,.054.538c.108.807.323,1.023,1.076,1.184.215.054.323.108.269.323-.108.538-.215,1.076-.269,1.615-.054.161-.108.269-.269.215a4.855,4.855,0,0,1-2.153-.484,2.4,2.4,0,0,1-1.238-2.368c-.108-1.668-.054-3.445-.054-5.167Z" transform="translate(-66.024 -4.742)" fill="#486da1"></path><path id="Trazado_115" data-name="Trazado 115" d="M121.537,22.367V26.4c0,.431-.108.484-.484.484-.646-.054-1.238,0-1.884,0-.215,0-.269-.054-.269-.269v-8.45c0-.215.054-.269.269-.269h2.045c.269,0,.323.108.323.377Z" transform="translate(-54.906 -8.221)" fill="#486da1"></path><path id="Trazado_116" data-name="Trazado 116" d="M62.348,3.028c0,.861.054,1.722,0,2.583a1.725,1.725,0,0,1-1.722,1.83,5.529,5.529,0,0,1-2.1-.108c-.377-.108-.269-.269-.215-.484.054-.323.215-.161.377-.108a4.172,4.172,0,0,0,1.991.108A1.307,1.307,0,0,0,61.7,5.288c-.054-.269-.215-.108-.323-.054a3,3,0,0,1-1.938.108A1.947,1.947,0,0,1,58.2,4.319a2.992,2.992,0,0,1,.161-3.068A2.082,2.082,0,0,1,59.98.283a6.577,6.577,0,0,1,2.045.161.376.376,0,0,1,.323.431c0,.646.054,1.4,0,2.153ZM61.7,2.651V1.574c0-.7,0-.7-.7-.753-1.238-.161-1.991.269-2.26,1.238a2.178,2.178,0,0,0,.538,2.314,1.868,1.868,0,0,0,2.1.108A.433.433,0,0,0,61.7,4,11.223,11.223,0,0,1,61.7,2.651Z" transform="translate(-26.718 -0.077)" fill="#486da1"></path><path id="Trazado_117" data-name="Trazado 117" d="M51.034,3.024H49.581c-.323,0-.377.108-.323.431a1.725,1.725,0,0,0,1.776,1.615,4.1,4.1,0,0,0,1.13-.161c.108-.054.269-.161.323.054,0,.161.215.377-.054.538a2.658,2.658,0,0,1-3.875-1.884,3.605,3.605,0,0,1,.323-2.26A2.276,2.276,0,0,1,51.357.171a2.079,2.079,0,0,1,1.615,1.884c.108.969.108.969-.915.969Zm-.269-.592H52c.108,0,.269,0,.269-.161A1.529,1.529,0,0,0,50.872.71,1.729,1.729,0,0,0,49.258,2.27c0,.215.108.161.269.161Z" transform="translate(-22.401 -0.019)" fill="#486da1"></path><path id="Trazado_118" data-name="Trazado 118" d="M88.8,2.8A2.614,2.614,0,0,1,87.35,5.382a2.361,2.361,0,0,1-3.229-1.4,3.61,3.61,0,0,1-.054-2.26,2.388,2.388,0,0,1,4.629.161A5.3,5.3,0,0,1,88.8,2.8Zm-.754,0A2.621,2.621,0,0,0,88,2.153,1.712,1.712,0,0,0,86.489.646a1.66,1.66,0,0,0-1.722,1.292,3.2,3.2,0,0,0,.054,1.884,1.664,1.664,0,0,0,1.561,1.13,1.6,1.6,0,0,0,1.507-1.13A2.159,2.159,0,0,0,88.05,2.8Z" transform="translate(-38.749 0.045)" fill="#486da1"></path><path id="Trazado_119" data-name="Trazado 119" d="M121.483,11.912a1.569,1.569,0,0,1-1.615,1.668,1.6,1.6,0,0,1-1.668-1.615,1.631,1.631,0,0,1,1.615-1.668A1.54,1.54,0,0,1,121.483,11.912Z" transform="translate(-54.583 -4.709)" fill="#486da1"></path><path id="Trazado_120" data-name="Trazado 120" d="M72.544,2.869v2.26c0,.161,0,.269-.161.323a5.3,5.3,0,0,1-2.422.161c-.969-.161-1.453-.807-1.507-1.938C68.4,2.6,68.454,1.577,68.4.5c0-.323.215-.215.377-.215s.323,0,.323.269V2.976a3.31,3.31,0,0,0,.054.753c.161,1.023.646,1.4,1.722,1.346.969-.108.969-.108.969-1.076V.662c0-.269.054-.377.323-.377s.377.108.377.377Z" transform="translate(-31.586 -0.079)" fill="#486da1"></path><path id="Trazado_121" data-name="Trazado 121" d="M95.334,5.559A4.887,4.887,0,0,1,94.1,5.4c-.323-.108-.215-.269-.161-.484.054-.269.215-.215.377-.161a3.321,3.321,0,0,0,1.776.054c.323-.108.592-.269.592-.646a.759.759,0,0,0-.431-.807c-.484-.269-.969-.431-1.453-.7a1.34,1.34,0,0,1-.915-1.507A1.442,1.442,0,0,1,95.226-.038a4.1,4.1,0,0,1,1.615.108c.323.108.215.323.161.484-.054.269-.215.161-.377.108A2.314,2.314,0,0,0,95.28.554a.794.794,0,0,0-.323,1.507c.431.215.861.377,1.346.592a1.475,1.475,0,0,1,.969,1.83c-.215.7-.807.861-1.4.969C95.764,5.559,95.549,5.505,95.334,5.559Z" transform="translate(-43.342 0.083)" fill="#486da1"></path><path id="Trazado_122" data-name="Trazado 122" d="M42.529,5.505a4.588,4.588,0,0,1-1.238-.161c-.269-.108-.269-.215-.215-.484s.215-.215.377-.161a2.549,2.549,0,0,0,1.668.108c.377-.108.646-.269.7-.646a.792.792,0,0,0-.484-.861c-.431-.215-.915-.431-1.346-.646-.753-.377-1.023-.807-.915-1.507A1.442,1.442,0,0,1,42.421-.038a3.774,3.774,0,0,1,1.561.108c.269.054.269.215.215.484s-.215.215-.431.161A2.65,2.65,0,0,0,42.475.608a.794.794,0,0,0-.323,1.507l1.453.646A1.467,1.467,0,0,1,44.52,4,1.336,1.336,0,0,1,43.5,5.4,1.933,1.933,0,0,1,42.529,5.505Z" transform="translate(-18.955 0.083)" fill="#486da1"></path><path id="Trazado_123" data-name="Trazado 123" d="M78.4,2.887V.734A.376.376,0,0,1,78.723.3,4.369,4.369,0,0,1,80.93.142c.215.054.323.108.269.377-.054.215-.108.323-.377.269a4.073,4.073,0,0,0-1.4,0c-.269.054-.323.161-.323.431V5.148c0,.323-.054.431-.377.431-.269,0-.323-.108-.323-.323Z" transform="translate(-36.204 0.01)" fill="#486da1"></path><path id="Trazado_124" data-name="Trazado 124" d="M8.6,13.867c.054-.161.215-.161.323-.161,2.476-.915,4.9-1.776,7.374-2.691.108-.054.269-.161.377-.054s0,.269-.054.377c-.861,2.422-1.776,4.9-2.637,7.32-.054.108-.054.323-.215.323s-.161-.161-.215-.269c-.484-.861-1.023-1.776-1.507-2.637a1.147,1.147,0,0,0-.592-.538c-.861-.431-1.668-.915-2.53-1.4C8.815,14.028,8.654,14.028,8.6,13.867Z" transform="translate(-3.971 -4.996)" fill="#486da1"></path></g></svg> 