<?xml version="1.0" encoding="UTF-8"?> <svg xmlns="http://www.w3.org/2000/svg" width="54.915" height="17.132" viewBox="0 0 54.915 17.132"><g id="sbs-fit" opacity="0.61"><g id="Grupo_21" data-name="Grupo 21" transform="translate(20.947 1.849)"><g id="Grupo_20" data-name="Grupo 20"><g id="Grupo_19" data-name="Grupo 19"><path id="Trazado_77" data-name="Trazado 77" d="M268.945,35.441a1.077,1.077,0,0,1-.445-.874,1.066,1.066,0,0,1,1.077-1.061,1.088,1.088,0,0,1,.671.2,5.62,5.62,0,0,0,3.643,1.334c1.412,0,2.3-.671,2.3-1.631v-.039c0-.928-.523-1.428-2.933-1.989-2.769-.671-4.33-1.482-4.33-3.877v-.039c0-2.231,1.857-3.768,4.439-3.768a7.15,7.15,0,0,1,4.119,1.209,1.041,1.041,0,0,1,.5.913,1.066,1.066,0,0,1-1.077,1.061,1.112,1.112,0,0,1-.593-.164,5.426,5.426,0,0,0-2.988-.983c-1.334,0-2.114.687-2.114,1.545v.039c0,1.006.593,1.451,3.1,2.044,2.746.671,4.158,1.654,4.158,3.807v.039c0,2.434-1.911,3.877-4.642,3.877A8.224,8.224,0,0,1,268.945,35.441Z" transform="translate(-268.5 -23.7)" fill="#486da1"></path><path id="Trazado_78" data-name="Trazado 78" d="M576.445,35.441a1.077,1.077,0,0,1-.445-.874,1.066,1.066,0,0,1,1.077-1.061,1.088,1.088,0,0,1,.671.2,5.62,5.62,0,0,0,3.643,1.334c1.412,0,2.3-.671,2.3-1.631v-.039c0-.928-.523-1.428-2.933-1.989-2.77-.671-4.33-1.482-4.33-3.877v-.039c0-2.231,1.857-3.768,4.439-3.768a7.15,7.15,0,0,1,4.119,1.209,1.041,1.041,0,0,1,.5.913,1.065,1.065,0,0,1-1.077,1.061,1.112,1.112,0,0,1-.593-.164,5.357,5.357,0,0,0-2.988-.991c-1.334,0-2.114.687-2.114,1.545v.039c0,1.006.593,1.451,3.105,2.044,2.746.671,4.158,1.654,4.158,3.807V33.2c0,2.434-1.911,3.877-4.642,3.877A8.164,8.164,0,0,1,576.445,35.441Z" transform="translate(-552.01 -23.7)" fill="#486da1"></path><path id="Trazado_79" data-name="Trazado 79" d="M414.908,24.886a1.166,1.166,0,0,1,1.186-1.186h4.813a4.824,4.824,0,0,1,3.5,1.186,2.993,2.993,0,0,1,.9,2.216v.039a3.186,3.186,0,0,1-1.911,2.98c1.568.538,2.652,1.435,2.652,3.245v.039c0,2.387-1.966,3.667-4.946,3.667h-5.009a1.166,1.166,0,0,1-1.186-1.186v-11Zm5.523,4.455c1.506,0,2.52-.593,2.52-1.818v-.039c0-1.053-.843-1.7-2.348-1.7h-3.378V29.34ZM421.118,35c1.607,0,2.582-.632,2.582-1.833v-.039c0-1.123-.9-1.794-2.754-1.794h-3.721V35Z" transform="translate(-403.479 -23.7)" fill="#486da1"></path></g></g></g><path id="Trazado_80" data-name="Trazado 80" d="M15.244.967a.967.967,0,0,1-.967.967H6.67a4.728,4.728,0,1,0,0,9.455h3.8a.928.928,0,0,0,0-1.857H6.67a2.871,2.871,0,1,1,0-5.742h3.8a6.657,6.657,0,0,1,4.72,1.95,6.657,6.657,0,0,1,1.95,4.72,6.657,6.657,0,0,1-1.95,4.72,6.657,6.657,0,0,1-4.72,1.95h-7.6a.967.967,0,1,1,0-1.935h7.6a4.728,4.728,0,1,0,0-9.455H6.67a.928.928,0,1,0,0,1.857h3.8a2.871,2.871,0,1,1,0,5.742H6.67a6.657,6.657,0,0,1-4.72-1.95A6.606,6.606,0,0,1,.523,9.268,6.678,6.678,0,0,1,1.95,1.95,6.606,6.606,0,0,1,4.072.523,6.746,6.746,0,0,1,6.67,0h7.6a.974.974,0,0,1,.975.967" fill="#486da1"></path></g></svg> 