<?xml version="1.0" encoding="UTF-8"?> <svg xmlns="http://www.w3.org/2000/svg" width="59.241" height="21.012" viewBox="0 0 59.241 21.012"><g id="sura-fit" opacity="0.61"><path id="Trazado_56" data-name="Trazado 56" d="M79.339,12.74h-.482c-2.651,0-5.141,1.968-5.261,5.783-.08,3.454,1.687,5.9,4.779,5.9a3.634,3.634,0,0,0,3.374-1.767c.161,1.165.763,1.526,2.048,1.526V12.7H79.339Zm2.289,6.747a2.851,2.851,0,0,1-2.892,3.093c-1.767,0-3.052-1.165-2.932-4.056.08-2.731,1.406-3.936,3.133-3.936h2.691v4.9Z" transform="translate(-44.036 -7.599)" fill="#486da1"></path><path id="Trazado_57" data-name="Trazado 57" d="M34.026,12.6v7.952c0,1.165-.964,1.727-2.209,1.727-1.325,0-2.209-.6-2.209-1.727V14.608A1.784,1.784,0,0,0,27.6,12.6v8.434c0,2.129,1.928,3.173,4.177,3.173,2.169,0,4.3-1.044,4.3-3.173V14.849c-.04-1.687-.643-2.249-2.048-2.249Z" transform="translate(-16.515 -7.539)" fill="#486da1"></path><path id="Trazado_58" data-name="Trazado 58" d="M55.8,16.918v7.069h2.008V16.838a2.181,2.181,0,0,1,2.37-2.45h.6c1.767,0,2.048-.884,2.048-1.888H60.017c-2.53.04-4.217,1.446-4.217,4.418Z" transform="translate(-33.389 -7.48)" fill="#486da1"></path><path id="Trazado_59" data-name="Trazado 59" d="M5.9,17.641l-2.45-.683c-.683-.2-1.285-.482-1.285-1.285,0-.843.522-1.285,1.607-1.285H5.944c.964,0,2.129-.321,2.129-1.888h-4.1C1.446,12.5,0,13.785,0,15.593c0,1.687,1.084,2.651,3.012,3.173l2.129.562a1.408,1.408,0,0,1,1.2,1.366c0,.843-.522,1.366-1.848,1.406l-4.137.04v1.848H4.5c2.53,0,3.976-1.366,3.976-3.133.04-1.807-.683-2.691-2.57-3.213Z" transform="translate(0 -7.48)" fill="#486da1"></path><path id="Trazado_60" data-name="Trazado 60" d="M113.756,19.077c.04,0,.04.04.04.08a2.637,2.637,0,0,1-1.245,1.526c-1.125.562-1.687.241-1.767.2-.04,0-.04-.04-.04-.08a.039.039,0,0,1,.04-.04,8.293,8.293,0,0,0,2.972-1.687Zm.12-2.008a19.194,19.194,0,0,1-3.735,1.526,10.049,10.049,0,0,1-3.815.562,2.291,2.291,0,0,1-1.285-.6l-.04-.04c0-.04.04-.04.08-.04l.281-.04c.643-.04,1.807-.08,3.173-.281a34.391,34.391,0,0,0,5.261-1.125c.08-.04.12,0,.08.04Zm.12.683c.04,0,.04.04.04.08a5.358,5.358,0,0,1-1.084.964,15.3,15.3,0,0,1-1.607.924,11.821,11.821,0,0,1-1.727.683,4.084,4.084,0,0,1-1.647.161,1.771,1.771,0,0,1-.884-.321V20.2a.039.039,0,0,1,.04-.04,22.55,22.55,0,0,0,3.936-1A12.5,12.5,0,0,0,114,17.752Zm6.265-5.7c.04,0,.04.04.04.08-.562.482-3.133,2.611-4.538,3.775l-.04.04c-.4.321-.683.361-.723-.281a.981.981,0,0,0-.04-.281c-.04-.12,0-.12.08-.161.442-.281,1.325-.763,2.008-1.165,1.2-.8,2.651-1.647,3.213-2.008Zm-1.928,2.892c.04,0,.04.04.04.08-.562.643-2.611,2.932-3.575,3.9-.08.12-.161.04-.12-.04a7.764,7.764,0,0,0,.241-.8.882.882,0,0,1,.2-.482c1.245-1,2.41-2.008,3.213-2.651Zm2.57-4.016h.04s.04.04,0,.04c-.281.161-6.065,2.57-6.1,2.57a.657.657,0,0,1-.924-.281c-.12-.2-.2-.321-.241-.4,0-.04-.08-.08.08-.12,0,0,1.647-.442,3.093-.8,1.647-.361,3.534-.843,4.056-1Zm.6-.8a.04.04,0,1,1,0,.08c-.442.08-8.474,1.165-8.555,1.165h-.281a1.787,1.787,0,0,1-1.084-.562,2.614,2.614,0,0,1-.361-.6v-.04a.039.039,0,0,1,.04-.04h10.242Zm.522-.723a.039.039,0,0,1,.04.04l-.04.04c-1.165-.08-11.768-.843-11.768-.843a.784.784,0,0,1-.281-.04,2.363,2.363,0,0,1-1.526-1.566v-.08a.14.14,0,0,1,.08-.04c0,.04,12.451,2.289,13.495,2.49ZM119.82,7.35c0,.04,0,.08-.04.04-.442-.241-1.486-.723-2.49-1.245-.884-.442-6.828-3.253-7.229-3.454l-.723-.361a1.746,1.746,0,0,1-.281-.161,1.367,1.367,0,0,1-.562-.482,2.561,2.561,0,0,1-.321-.562A3.547,3.547,0,0,1,108.012.04a.039.039,0,0,1,.04-.04h.08l.723.442.4.241,2.169,1.325c3.052,1.928,7.31,4.659,8.394,5.342Zm1.285,1.2h0c.04.08,0,.08-.04.08-.321-.08-1.044-.281-1.928-.522-2.048-.562-9.76-2.611-9.88-2.651h-.04a2.428,2.428,0,0,1-1.125-.683c-.08-.08-.161-.2-.241-.281a2.71,2.71,0,0,1-.321-1.084.039.039,0,0,1,.04-.04.056.056,0,0,1,.08,0l1.245.482c2.972,1.084,10.924,4.177,12.21,4.7Z" transform="translate(-62.829 0)" fill="#486da1"></path></g></svg> 