<svg xmlns="http://www.w3.org/2000/svg" width="57" height="57" viewBox="0 0 57 57"><g id="Group_7667" data-name="Group 7667" transform="translate(0 -0.338)"><g id="Ellipse_27" data-name="Ellipse 27" transform="translate(0 0.338)" fill="none" stroke="#5494ed" stroke-width="1"><circle cx="28.5" cy="28.5" r="28.5" stroke="none"></circle><circle cx="28.5" cy="28.5" r="28" fill="none"></circle></g><path id="arrow-small-right" d="M23.689,14.435h0a2.813,2.813,0,0,0-.83-1.969L16.826,6.418a1.407,1.407,0,1,0-1.983,2l4.627,4.613H5.406a1.406,1.406,0,0,0,0,2.813H19.47l-4.627,4.627a1.407,1.407,0,0,0,1.983,2l6.033-6.047A2.813,2.813,0,0,0,23.689,14.435Z" transform="translate(14.816 13.824)" fill="#5494ed"></path></g></svg>